SplineFontDB: 3.2
FontName: FPixelExtended-ExtraLight
FullName: F Pixel Extended ExtraLight
FamilyName: F Pixel Extended ExtraLight
Weight: ExtraLight
Copyright: Copyright (c) 2025 Fontsphere.com All rights reserved. Created by Bartosz Panek
UComments: "http://fontsphere.com/"
Version: 001.08.02.25
ItalicAngle: 0
UnderlinePosition: -100
UnderlineWidth: 50
Ascent: 776
Descent: 224
InvalidEm: 0
LayerCount: 2
Layer: 0 0 "Warstwa t+AUIA-a" 1
Layer: 1 0 "Plan pierwszy" 0
XUID: [1021 189 847953251 5917]
FSType: 0
OS2Version: 0
OS2_WeightWidthSlopeOnly: 0
OS2_UseTypoMetrics: 1
CreationTime: 1673873666
ModificationTime: 1739006679
PfmFamily: 17
TTFWeight: 200
TTFWidth: 8
LineGap: 125
VLineGap: 0
OS2TypoAscent: 0
OS2TypoAOffset: 1
OS2TypoDescent: 0
OS2TypoDOffset: 1
OS2TypoLinegap: 125
OS2WinAscent: 0
OS2WinAOffset: 1
OS2WinDescent: 0
OS2WinDOffset: 1
HheadAscent: 0
HheadAOffset: 1
HheadDescent: 0
HheadDOffset: 1
OS2Vendor: 'FSPH'
Lookup: 258 0 0 "kernKerningpoziomywtablicy0" { "Podtablica kernKerningpoziomywtablicy0"  } ['kern' ('DFLT' <'dflt' > 'grek' <'dflt' > 'latn' <'dflt' > ) ]
MarkAttachClasses: 1
DEI: 91125
KernClass2: 56 56 "Podtablica kernKerningpoziomywtablicy0"
 556 A AE Aacute Acircumflex Adieresis Agrave Aring Atilde B C Cacute Ccaron Ccedilla Ccircumflex D Dcroat E Eacute Ebreve Ecaron Ecircumflex Edieresis Egrave Emacron Eth G H I J M N Nacute Ntilde O OE Oacute Ocircumflex Odieresis Ograve Ohungarumlaut Oslash Otilde P Pi Q R S Sacute Scaron Scircumflex U Uacute Ucircumflex Udieresis Ugrave Uhungarumlaut W Wcircumflex Y Yacute Ycircumflex Ydieresis Z Zacute Zcaron Zdotaccent asterisk d degree eight exclam five four igrave nine one ordmasculine paragraph seven six three trademark uni01CD uni1E9E uni2116 zero
 15 Aogonek Eogonek
 4 Euro
 10 F question
 16 Iacute Idieresis
 28 Icircumflex iacute idieresis
 6 Igrave
 6 K less
 1 L
 6 Lslash
 1 T

StartChar: aogonek
Encoding: 261 261 0
Width: 1148
Flags: W
HStem: -182 28<890 916> -154 28<864 888> -126 28<838 862> -98 28<812 836> -70 28<784 810> 42 28<28 812> 378 28<28 1008>
VStem: 0 28<70 378> 784 28<-70 -42> 810 28<-98 -70> 836 28<-126 -98> 862 28<-154 -126> 888 28<-182 -154> 1008 28<42 378>
LayerCount: 2
Fore
SplineSet
0 406 m 1x0784
 1036 406 l 1
 1036 42 l 1
 1008 42 l 1
 1008 378 l 1
 28 378 l 1
 28 70 l 1
 812 70 l 1
 812 42 l 1
 0 42 l 1
 0 406 l 1x0784
890 -126 m 1x2714
 890 -154 l 1xa714
 916 -154 l 1
 916 -182 l 1
 888 -182 l 1xa70c
 888 -154 l 1x470c
 862 -154 l 1x4714
 862 -126 l 1x2714
 836 -126 l 1x2724
 836 -98 l 1x1724
 810 -98 l 1x1744
 810 -70 l 1x0f44
 784 -70 l 1
 784 -42 l 1
 812 -42 l 1x0f84
 812 -70 l 1x1784
 838 -70 l 1
 838 -98 l 1x2f44
 864 -98 l 1
 864 -126 l 1x5724
 890 -126 l 1x2714
EndSplineSet
EndChar

StartChar: Aogonek
Encoding: 260 260 1
Width: 1260
Flags: W
HStem: -182 28<1122 1148> -154 28<1096 1120> -126 28<1070 1094> -98 28<1044 1068> -70 28<1016 1042> 42 21G<0 28 1120 1148> 42 21G<0 28 1120 1148> 154 28<28 1120> 490 28<28 1120>
VStem: 0 28<42 154 182 490> 1016 28<-70 -42> 1042 28<-98 -70> 1068 28<-126 -98> 1094 28<-154 -126> 1120 28<-182 -154 42 154 182 490>
LayerCount: 2
Fore
SplineSet
1122 -126 m 1x21c4
 1122 -154 l 1xa1c4
 1148 -154 l 1
 1148 -182 l 1
 1120 -182 l 1xa1c2
 1120 -154 l 1x41c2
 1094 -154 l 1x41c4
 1094 -126 l 1x21c4
 1068 -126 l 1x21c8
 1068 -98 l 1x11c8
 1042 -98 l 1x11d0
 1042 -70 l 1x09d0
 1016 -70 l 1
 1016 -42 l 1
 1044 -42 l 1x09e0
 1044 -70 l 1x11e0
 1070 -70 l 1
 1070 -98 l 1x29d0
 1096 -98 l 1
 1096 -126 l 1x51c8
 1122 -126 l 1x21c4
0 518 m 1
 1148 518 l 1
 1148 42 l 1
 1120 42 l 1
 1120 154 l 1
 28 154 l 1
 28 42 l 1
 0 42 l 1x05c2
 0 518 l 1
1120 182 m 1
 1120 490 l 1
 28 490 l 1
 28 182 l 1
 1120 182 l 1
EndSplineSet
EndChar

StartChar: eogonek
Encoding: 281 281 2
Width: 1148
Flags: W
HStem: -182 28<666 692> -154 28<640 664> -126 28<614 638> -98 28<588 612> -70 28<28 476 560 586> 154 28<224 1008> 378 28<28 1008>
VStem: 0 28<-42 378> 560 28<-70 -42> 586 28<-98 -70> 612 28<-126 -98> 638 28<-154 -126> 664 28<-182 -154> 1008 28<182 378>
LayerCount: 2
Fore
SplineSet
666 -126 m 1x2714
 666 -154 l 1xa714
 692 -154 l 1
 692 -182 l 1
 664 -182 l 1xa70c
 664 -154 l 1x470c
 638 -154 l 1x4714
 638 -126 l 1x2714
 612 -126 l 1x2724
 612 -98 l 1x1724
 586 -98 l 1x1744
 586 -70 l 1x0f44
 560 -70 l 1
 560 -42 l 1
 588 -42 l 1x0f84
 588 -70 l 1x1784
 614 -70 l 1
 614 -98 l 1x2f44
 640 -98 l 1
 640 -126 l 1x5724
 666 -126 l 1x2714
0 406 m 1
 1036 406 l 1
 1036 154 l 1
 224 154 l 1
 224 182 l 1
 1008 182 l 1
 1008 378 l 1
 28 378 l 1
 28 -42 l 1
 476 -42 l 1
 476 -70 l 1
 0 -70 l 1x0f04
 0 406 l 1
EndSplineSet
EndChar

StartChar: Eogonek
Encoding: 280 280 3
Width: 1260
Flags: W
HStem: -182 28<1122 1148> -154 28<1096 1120> -126 28<1070 1094> -98 28<1044 1068> -70 28<1016 1042> 42 28<28 1120> 266 28<28 588> 490 28<28 1120>
VStem: 0 28<70 266 294 490> 1016 28<-70 -42> 1042 28<-98 -70> 1068 28<-126 -98> 1094 28<-154 -126> 1120 28<-182 -154 70 182 378 490>
LayerCount: 2
Fore
SplineSet
0 518 m 1x0784
 1148 518 l 1
 1148 378 l 1
 1120 378 l 1
 1120 490 l 1
 28 490 l 1
 28 294 l 1
 588 294 l 1
 588 266 l 1
 28 266 l 1
 28 70 l 1
 1120 70 l 1
 1120 182 l 1
 1148 182 l 1
 1148 42 l 1
 0 42 l 1
 0 518 l 1x0784
1122 -126 m 1x2788
 1122 -154 l 1xa788
 1148 -154 l 1
 1148 -182 l 1
 1120 -182 l 1xa784
 1120 -154 l 1x4784
 1094 -154 l 1x4788
 1094 -126 l 1x2788
 1068 -126 l 1x2790
 1068 -98 l 1x1790
 1042 -98 l 1x17a0
 1042 -70 l 1x0fa0
 1016 -70 l 1
 1016 -42 l 1
 1044 -42 l 1x0fc0
 1044 -70 l 1x17c0
 1070 -70 l 1
 1070 -98 l 1x2fa0
 1096 -98 l 1
 1096 -126 l 1x5790
 1122 -126 l 1x2788
EndSplineSet
EndChar

StartChar: lslash
Encoding: 322 322 4
Width: 1148
Flags: W
HStem: 42 28<28 1008> 274 28<112 140> 300 28<140 168> 326 28<168 196> 352 28<196 224> 378 28<224 252> 498 20G<0 28>
VStem: 0 28<70 518> 112 28<274 300> 140 28<302 326> 168 28<328 352> 196 28<354 378> 224 28<380 406> 1008 28<70 182>
LayerCount: 2
Fore
SplineSet
1008 70 m 1x8304
 1008 182 l 1
 1036 182 l 1
 1036 42 l 1
 0 42 l 1
 0 518 l 1
 28 518 l 1
 28 70 l 1
 1008 70 l 1x8304
140 300 m 1xa3a4
 140 274 l 1
 112 274 l 1
 112 302 l 1xc3a4
 140 302 l 1xc344
 140 328 l 1xa344
 168 328 l 1xa324
 168 354 l 1x9324
 196 354 l 1x9314
 196 380 l 1x8b14
 224 380 l 1x8b0c
 224 406 l 1
 252 406 l 1
 252 378 l 1x870c
 224 378 l 1x8714
 224 352 l 1
 196 352 l 1x8b2c
 196 326 l 1
 168 326 l 1x9354
 168 300 l 1
 140 300 l 1xa3a4
EndSplineSet
EndChar

StartChar: Lslash
Encoding: 321 321 5
Width: 1260
Flags: W
HStem: 42 28<28 1120> 274 28<112 140> 300 28<140 168> 326 28<168 196> 352 28<196 224> 378 28<224 252> 498 20G<0 28>
VStem: 0 28<70 518> 112 28<274 300> 140 28<302 326> 168 28<328 352> 196 28<354 378> 224 28<380 406> 1120 28<70 182>
LayerCount: 2
Fore
SplineSet
1120 70 m 1x8304
 1120 182 l 1
 1148 182 l 1
 1148 42 l 1
 0 42 l 1
 0 518 l 1
 28 518 l 1
 28 70 l 1
 1120 70 l 1x8304
140 300 m 1xa3a4
 140 274 l 1
 112 274 l 1
 112 302 l 1xc3a4
 140 302 l 1xc344
 140 328 l 1xa344
 168 328 l 1xa324
 168 354 l 1x9324
 196 354 l 1x9314
 196 380 l 1x8b14
 224 380 l 1x8b0c
 224 406 l 1
 252 406 l 1
 252 378 l 1x870c
 224 378 l 1x8714
 224 352 l 1
 196 352 l 1x8b2c
 196 326 l 1
 168 326 l 1x9354
 168 300 l 1
 140 300 l 1xa3a4
EndSplineSet
EndChar

StartChar: Zdotaccent
Encoding: 379 379 6
Width: 1260
Flags: W
HStem: 42 28<28 1148> 266 28<28 1120> 490 28<0 1120> 714 28<552 580>
VStem: 0 28<70 266> 552 28<714 742> 1120 28<294 490>
LayerCount: 2
Fore
SplineSet
552 714 m 1
 552 742 l 1
 580 742 l 1
 580 714 l 1
 552 714 l 1
0 518 m 1
 1148 518 l 1
 1148 266 l 1
 28 266 l 1
 28 70 l 1
 1148 70 l 1
 1148 42 l 1
 0 42 l 1
 0 294 l 1
 1120 294 l 1
 1120 490 l 1
 0 490 l 1
 0 518 l 1
EndSplineSet
EndChar

StartChar: twothirds
Encoding: 8532 8532 7
Width: 1820
Flags: W
HStem: 42 28<1008 1680> 154 28<1568 1596> 192 28<700 728> 218 28<728 756> 244 28<756 784> 266 28<784 812 1008 1680> 296 28<812 840> 322 28<840 868> 348 28<868 896> 378 28<252 700 896 924> 400 28<924 952> 426 28<952 980> 452 28<980 1008> 602 28<0 224>
VStem: 224 28<406 602> 672 28<42 192> 700 28<194 218> 728 28<220 244> 756 28<246 270> 784 28<272 296> 812 28<298 322> 840 28<324 348> 868 28<350 374> 896 28<376 400> 924 28<402 426> 952 28<428 452> 980 28<454 478> 1008 28<480 630> 1568 28<154 182> 1680 28<70 266>
LayerCount: 2
Fore
SplineSet
1008 478 m 1xc00e002c
 1008 452 l 1
 980 452 l 1xc00e005c
 980 426 l 1
 952 426 l 1xc01600ac
 952 400 l 1
 924 400 l 1xc026014c
 924 374 l 1
 896 374 l 1xc026028c
 896 348 l 1
 868 348 l 1xc0a6050c
 868 322 l 1
 840 322 l 1xc1060a0c
 840 296 l 1
 812 296 l 1xc206140c
 812 270 l 1
 784 270 l 1xc206280c
 784 244 l 1
 756 244 l 1xca06500c
 756 218 l 1
 728 218 l 1xd006a00c
 728 192 l 1
 700 192 l 1
 700 42 l 1
 672 42 l 1
 672 194 l 1xe007400c
 700 194 l 1
 700 220 l 1xe006800c
 728 220 l 1xe006400c
 728 246 l 1xd006400c
 756 246 l 1xd006200c
 756 272 l 1xc806200c
 784 272 l 1
 784 298 l 1xc806100c
 812 298 l 1
 812 324 l 1xca06080c
 840 324 l 1xca06040c
 840 350 l 1xc106040c
 868 350 l 1xc106020c
 868 376 l 1xc086020c
 896 376 l 1
 896 402 l 1xc086010c
 924 402 l 1
 924 428 l 1xc0a6008c
 952 428 l 1xc0a6004c
 952 454 l 1xc016004c
 980 454 l 1xc016002c
 980 480 l 1xc00e002c
 1008 480 l 1
 1008 630 l 1
 1036 630 l 1
 1036 478 l 1xc00e001c
 1008 478 l 1xc00e002c
700 378 m 1xc046800c
 224 378 l 1
 224 602 l 1
 0 602 l 1
 0 630 l 1
 252 630 l 1
 252 406 l 1
 700 406 l 1
 700 378 l 1xc046800c
1568 154 m 1
 1568 182 l 1
 1596 182 l 1
 1596 154 l 1
 1568 154 l 1
1008 294 m 1xc406001c
 1708 294 l 1
 1708 42 l 1
 1008 42 l 1
 1008 70 l 1
 1680 70 l 1
 1680 266 l 1
 1008 266 l 1
 1008 294 l 1xc406001c
EndSplineSet
EndChar

StartChar: onethird
Encoding: 8531 8531 8
Width: 1820
Flags: W
HStem: 42 28<1008 1680> 154 28<1568 1596> 192 28<700 728> 218 28<728 756> 244 28<756 784> 266 28<784 812 1008 1680> 296 28<812 840> 322 28<840 868> 348 28<868 896> 378 28<0 224 252 700 896 924> 400 28<924 952> 426 28<952 980> 452 28<980 1008> 602 28<0 224>
VStem: 224 28<406 602> 672 28<42 192> 700 28<194 218> 728 28<220 244> 756 28<246 270> 784 28<272 296> 812 28<298 322> 840 28<324 348> 868 28<350 374> 896 28<376 400> 924 28<402 426> 952 28<428 452> 980 28<454 478> 1008 28<480 630> 1568 28<154 182> 1680 28<70 266>
LayerCount: 2
Fore
SplineSet
1008 478 m 1xc00e002c
 1008 452 l 1
 980 452 l 1xc00e005c
 980 426 l 1
 952 426 l 1xc01600ac
 952 400 l 1
 924 400 l 1xc026014c
 924 374 l 1
 896 374 l 1xc026028c
 896 348 l 1
 868 348 l 1xc0a6050c
 868 322 l 1
 840 322 l 1xc1060a0c
 840 296 l 1
 812 296 l 1xc206140c
 812 270 l 1
 784 270 l 1xc206280c
 784 244 l 1
 756 244 l 1xca06500c
 756 218 l 1
 728 218 l 1xd006a00c
 728 192 l 1
 700 192 l 1
 700 42 l 1
 672 42 l 1
 672 194 l 1xe007400c
 700 194 l 1
 700 220 l 1xe006800c
 728 220 l 1xe006400c
 728 246 l 1xd006400c
 756 246 l 1xd006200c
 756 272 l 1xc806200c
 784 272 l 1
 784 298 l 1xc806100c
 812 298 l 1
 812 324 l 1xca06080c
 840 324 l 1xca06040c
 840 350 l 1xc106040c
 868 350 l 1xc106020c
 868 376 l 1xc086020c
 896 376 l 1
 896 402 l 1xc086010c
 924 402 l 1
 924 428 l 1xc0a6008c
 952 428 l 1xc0a6004c
 952 454 l 1xc016004c
 980 454 l 1xc016002c
 980 480 l 1xc00e002c
 1008 480 l 1
 1008 630 l 1
 1036 630 l 1
 1036 478 l 1xc00e001c
 1008 478 l 1xc00e002c
700 378 m 1xc046800c
 0 378 l 1
 0 406 l 1
 224 406 l 1
 224 602 l 1
 0 602 l 1
 0 630 l 1
 252 630 l 1
 252 406 l 1
 700 406 l 1
 700 378 l 1xc046800c
1568 154 m 1
 1568 182 l 1
 1596 182 l 1
 1596 154 l 1
 1568 154 l 1
1008 294 m 1xc406001c
 1708 294 l 1
 1708 42 l 1
 1008 42 l 1
 1008 70 l 1
 1680 70 l 1
 1680 266 l 1
 1008 266 l 1
 1008 294 l 1xc406001c
EndSplineSet
EndChar

StartChar: trademark
Encoding: 8482 8482 9
Width: 1596
Flags: W
HStem: 412 28<980 1008 1036 1064> 438 28<952 980 1064 1092> 464 28<924 952 1092 1120> 490 28<0 112 140 560 588 924 1120 1456>
VStem: 112 28<266 490> 560 28<266 490> 924 28<466 490> 952 28<440 464> 980 28<414 438> 1008 28<266 412> 1036 28<414 438> 1064 28<440 464> 1092 28<466 490> 1456 28<266 490>
LayerCount: 2
Fore
SplineSet
1120 518 m 1x1c0c
 1484 518 l 1
 1484 266 l 1
 1456 266 l 1
 1456 490 l 1
 1120 490 l 1x1c0c
 1120 464 l 1x2c0c
 1092 464 l 1x2c14
 1092 438 l 1
 1064 438 l 1x4c2c
 1064 412 l 1
 1036 412 l 1
 1036 266 l 1
 1008 266 l 1
 1008 412 l 1x8c54
 980 412 l 1x8c84
 980 438 l 1x4c84
 952 438 l 1x4d04
 952 464 l 1x2d04
 924 464 l 1x2e04
 924 490 l 1
 588 490 l 1
 588 266 l 1
 560 266 l 1
 560 490 l 1
 140 490 l 1
 140 266 l 1
 112 266 l 1
 112 490 l 1
 0 490 l 1
 0 518 l 1
 924 518 l 1x1e04
 924 492 l 1x2e04
 952 492 l 1x2d04
 952 466 l 1
 980 466 l 1x4e84
 980 440 l 1
 1008 440 l 1x8d44
 1008 414 l 1
 1036 414 l 1
 1036 440 l 1x8ca4
 1064 440 l 1x8c14
 1064 466 l 1x4c14
 1092 466 l 1x4c0c
 1092 492 l 1
 1120 492 l 1x2c0c
 1120 518 l 1x1c0c
EndSplineSet
EndChar

StartChar: Euro
Encoding: 8364 8364 10
Width: 1372
Flags: W
HStem: 42 28<218 1154> 70 28<192 216 1156 1180> 98 28<166 190 1182 1206> 126 28<140 164 1208 1232> 154 28<1234 1260> 266 28<0 112 140 812> 378 28<1234 1260> 406 28<140 164 1208 1232> 434 28<166 190 1182 1206> 462 28<192 216 1156 1180> 490 28<218 1154>
VStem: 112 28<154 266 294 406> 138 28<126 154 406 434> 164 28<98 126 434 462> 190 28<70 98 462 490> 1154 28<70 98 462 490> 1180 28<98 126 434 462> 1206 28<126 154 406 434> 1232 28<154 182 378 406>
LayerCount: 2
Fore
SplineSet
1260 378 m 1x068020
 1232 378 l 1x068020
 1232 406 l 1x050020
 1206 406 l 1x050040
 1206 434 l 1x048040
 1180 434 l 1x048080
 1180 462 l 1x044080
 1154 462 l 1x0441
 1154 490 l 1
 218 490 l 1x0423
 218 462 l 1x0443
 192 462 l 1x0444
 192 434 l 1x0484
 166 434 l 1x0488
 166 406 l 1x0508
 140 406 l 1
 140 294 l 1
 812 294 l 1
 812 266 l 1
 140 266 l 1
 140 154 l 1x1510
 166 154 l 1
 166 126 l 1x2c08
 192 126 l 1
 192 98 l 1x5404
 218 98 l 1
 218 70 l 1
 1154 70 l 1
 1154 98 l 1xa403
 1180 98 l 1
 1180 126 l 1x540080
 1206 126 l 1
 1206 154 l 1x2c0040
 1232 154 l 1x140020
 1232 182 l 1
 1260 182 l 1
 1260 154 l 1x0c0020
 1234 154 l 1x0c0040
 1234 126 l 1x140040
 1208 126 l 1x140080
 1208 98 l 1x240080
 1182 98 l 1x2401
 1182 70 l 1
 1156 70 l 1x4401
 1156 42 l 1
 216 42 l 1x8401
 216 70 l 1
 190 70 l 1x4403
 190 98 l 1x2403
 164 98 l 1x2404
 164 126 l 1x1404
 138 126 l 1x1408
 138 154 l 1x0c08
 112 154 l 1
 112 266 l 1
 0 266 l 1
 0 294 l 1
 112 294 l 1
 112 406 l 1x0d10
 138 406 l 1x0d08
 138 434 l 1x0488
 164 434 l 1
 164 462 l 1x0544
 190 462 l 1
 190 490 l 1x04a2
 216 490 l 1x0442
 216 518 l 1
 1156 518 l 1x0422
 1156 490 l 1x0442
 1182 490 l 1
 1182 462 l 1x04a3
 1208 462 l 1
 1208 434 l 1x054080
 1234 434 l 1
 1234 406 l 1x068040
 1260 406 l 1
 1260 378 l 1x068020
EndSplineSet
EndChar

StartChar: uni2084
Encoding: 8324 8324 11
Width: 812
Flags: W
HStem: 42 21G<672 700> 42 21G<672 700> 154 28<28 672>
VStem: 0 28<182 294> 672 28<42 154 182 294>
LayerCount: 2
Fore
SplineSet
672 182 m 1xb8
 672 294 l 1
 700 294 l 1
 700 42 l 1
 672 42 l 1
 672 154 l 1
 0 154 l 1
 0 294 l 1
 28 294 l 1
 28 182 l 1
 672 182 l 1xb8
EndSplineSet
EndChar

StartChar: uni2083
Encoding: 8323 8323 12
Width: 812
Flags: W
HStem: 42 28<0 672> 154 28<560 588> 266 28<0 672>
VStem: 560 28<154 182> 672 28<70 266>
CounterMasks: 1 e0
LayerCount: 2
Fore
SplineSet
560 154 m 1
 560 182 l 1
 588 182 l 1
 588 154 l 1
 560 154 l 1
0 294 m 1
 700 294 l 1
 700 42 l 1
 0 42 l 1
 0 70 l 1
 672 70 l 1
 672 266 l 1
 0 266 l 1
 0 294 l 1
EndSplineSet
EndChar

StartChar: uni2082
Encoding: 8322 8322 13
Width: 812
Flags: W
HStem: 42 28<252 700> 266 28<0 224>
VStem: 224 28<70 266>
LayerCount: 2
Fore
SplineSet
252 70 m 1
 700 70 l 1
 700 42 l 1
 224 42 l 1
 224 266 l 1
 0 266 l 1
 0 294 l 1
 252 294 l 1
 252 70 l 1
EndSplineSet
EndChar

StartChar: uni2081
Encoding: 8321 8321 14
Width: 812
Flags: W
HStem: 42 28<0 224 252 700> 266 28<0 224>
VStem: 224 28<70 266>
LayerCount: 2
Fore
SplineSet
252 70 m 1
 700 70 l 1
 700 42 l 1
 0 42 l 1
 0 70 l 1
 224 70 l 1
 224 266 l 1
 0 266 l 1
 0 294 l 1
 252 294 l 1
 252 70 l 1
EndSplineSet
EndChar

StartChar: uni2080
Encoding: 8320 8320 15
Width: 812
Flags: W
HStem: 42 28<28 672> 266 28<28 672>
VStem: 0 28<70 266> 672 28<70 266>
LayerCount: 2
Fore
SplineSet
0 294 m 1
 700 294 l 1
 700 42 l 1
 0 42 l 1
 0 294 l 1
672 70 m 1
 672 266 l 1
 28 266 l 1
 28 70 l 1
 672 70 l 1
EndSplineSet
EndChar

StartChar: uni2074
Encoding: 8308 8308 16
Width: 812
Flags: W
HStem: 490 28<28 672>
VStem: 0 28<518 630> 672 28<378 490 518 630>
LayerCount: 2
Fore
SplineSet
672 518 m 1
 672 630 l 1
 700 630 l 1
 700 378 l 1
 672 378 l 1
 672 490 l 1
 0 490 l 1
 0 630 l 1
 28 630 l 1
 28 518 l 1
 672 518 l 1
EndSplineSet
EndChar

StartChar: uni2070
Encoding: 8304 8304 17
Width: 812
Flags: W
HStem: 378 28<28 672> 602 28<28 672>
VStem: 0 28<406 602> 672 28<406 602>
LayerCount: 2
Fore
SplineSet
0 630 m 1
 700 630 l 1
 700 378 l 1
 0 378 l 1
 0 630 l 1
672 406 m 1
 672 602 l 1
 28 602 l 1
 28 406 l 1
 672 406 l 1
EndSplineSet
EndChar

StartChar: fraction
Encoding: 8260 8260 18
Width: 476
Flags: W
HStem: 42 21G<0 28> 42 21G<0 28> 192 28<28 56> 218 28<56 84> 244 28<84 112> 270 28<112 140> 296 28<140 168> 322 28<168 196> 348 28<196 224> 374 28<224 252> 400 28<252 280> 426 28<280 308> 452 28<308 336>
VStem: 0 28<42 192> 28 28<194 218> 56 28<220 244> 84 28<246 270> 112 28<272 296> 140 28<298 322> 168 28<324 348> 196 28<350 374> 224 28<376 400> 252 28<402 426> 280 28<428 452> 308 28<454 478> 336 28<480 630>
LayerCount: 2
Fore
SplineSet
336 480 m 1x00080040
 336 630 l 1
 364 630 l 1
 364 478 l 1x00080040
 336 478 l 1x00080080
 336 452 l 1
 308 452 l 1x00080140
 308 426 l 1
 280 426 l 1x00100280
 280 400 l 1
 252 400 l 1x002005
 252 374 l 1
 224 374 l 1x00400a
 224 348 l 1
 196 348 l 1x008014
 196 322 l 1
 168 322 l 1x010028
 168 296 l 1
 140 296 l 1x020050
 140 270 l 1
 112 270 l 1x0400a0
 112 244 l 1
 84 244 l 1x080140
 84 218 l 1
 56 218 l 1x100280
 56 192 l 1
 28 192 l 1
 28 42 l 1
 0 42 l 1
 0 194 l 1xa005
 28 194 l 1
 28 220 l 1xa002
 56 220 l 1xa001
 56 246 l 1x1001
 84 246 l 1x100080
 84 272 l 1x080080
 112 272 l 1x080040
 112 298 l 1x040040
 140 298 l 1x040020
 140 324 l 1x020020
 168 324 l 1x020010
 168 350 l 1x010010
 196 350 l 1x010008
 196 376 l 1x008008
 224 376 l 1x008004
 224 402 l 1x004004
 252 402 l 1x004002
 252 428 l 1x002002
 280 428 l 1x002001
 280 454 l 1x001001
 308 454 l 1x00100080
 308 480 l 1x00080080
 336 480 l 1x00080040
EndSplineSet
EndChar

StartChar: guilsinglright
Encoding: 8250 8250 19
Width: 588
Flags: W
HStem: 154 28<0 370> 182 28<372 396> 210 28<398 422> 238 28<424 448> 266 28<450 476> 294 28<424 448> 322 28<398 422> 350 28<372 396> 378 28<0 370>
VStem: 370 28<182 210 350 378> 396 28<210 238 322 350> 422 28<238 266 294 322> 448 28<266 294>
LayerCount: 2
Fore
SplineSet
450 322 m 1x0210
 450 294 l 1x0a10
 476 294 l 1
 476 266 l 1x0a08
 450 266 l 1x0a10
 450 238 l 1x1010
 424 238 l 1x1020
 424 210 l 1x2020
 398 210 l 1x2040
 398 182 l 1
 372 182 l 1x4040
 372 154 l 1
 0 154 l 1
 0 182 l 1
 370 182 l 1
 370 210 l 1xa040
 396 210 l 1
 396 238 l 1x5020
 422 238 l 1
 422 266 l 1x2810
 448 266 l 1
 448 294 l 1x1408
 422 294 l 1x1410
 422 322 l 1x0210
 396 322 l 1x0220
 396 350 l 1x0120
 370 350 l 1x0140
 370 378 l 1
 0 378 l 1
 0 406 l 1
 372 406 l 1x00c0
 372 378 l 1x0140
 398 378 l 1
 398 350 l 1x02c0
 424 350 l 1
 424 322 l 1x0520
 450 322 l 1x0210
EndSplineSet
EndChar

StartChar: guilsinglleft
Encoding: 8249 8249 20
Width: 588
Flags: W
HStem: 154 28<106 476> 182 28<80 104> 210 28<54 78> 238 28<28 52> 266 28<0 26> 294 28<28 52> 322 28<54 78> 350 28<80 104> 378 28<106 476>
VStem: 0 28<266 294> 26 28<238 266 294 322> 52 28<210 238 322 350> 78 28<182 210 350 378>
LayerCount: 2
Fore
SplineSet
104 406 m 1x0088
 476 406 l 1
 476 378 l 1
 106 378 l 1x0088
 106 350 l 1x0108
 80 350 l 1x0110
 80 322 l 1x0210
 54 322 l 1x0220
 54 294 l 1x0420
 28 294 l 1
 28 266 l 1x1440
 54 266 l 1
 54 238 l 1x2820
 80 238 l 1
 80 210 l 1x5010
 106 210 l 1
 106 182 l 1
 476 182 l 1
 476 154 l 1
 104 154 l 1xa008
 104 182 l 1
 78 182 l 1x4008
 78 210 l 1x2008
 52 210 l 1x2010
 52 238 l 1x1010
 26 238 l 1x1020
 26 266 l 1x0820
 0 266 l 1
 0 294 l 1x0840
 26 294 l 1
 26 322 l 1x0a20
 52 322 l 1
 52 350 l 1x0510
 78 350 l 1
 78 378 l 1x0288
 104 378 l 1x0108
 104 406 l 1x0088
EndSplineSet
EndChar

StartChar: perthousand
Encoding: 8240 8240 21
Width: 2604
Flags: W
HStem: 42 28<1148 1792 1820 2464> 188 28<812 840> 214 28<840 868> 240 28<868 896> 266 28<28 672 896 924 1148 1792 1820 2464> 292 28<924 952> 318 28<952 980> 344 28<980 1008> 490 28<28 672>
VStem: 0 28<294 490> 672 28<294 490> 784 28<42 188> 812 28<190 214> 840 28<216 240> 868 28<242 266> 896 28<268 292> 924 28<294 318> 952 28<320 344> 980 28<346 370> 1008 28<372 518> 1120 28<70 266> 1792 28<70 266> 2464 28<70 266>
LayerCount: 2
Fore
SplineSet
1008 372 m 1x81e01e
 1008 518 l 1
 1036 518 l 1
 1036 370 l 1x81e01e
 1008 370 l 1x81e02e
 1008 344 l 1
 980 344 l 1x81e05e
 980 318 l 1
 952 318 l 1x82e0ae
 952 292 l 1
 924 292 l 1x84e14e
 924 266 l 1
 896 266 l 1x88e28e
 896 240 l 1
 868 240 l 1x90e50e
 868 214 l 1
 840 214 l 1xa0ea0e
 840 188 l 1
 812 188 l 1
 812 42 l 1
 784 42 l 1
 784 190 l 1xc0f40e
 812 190 l 1
 812 216 l 1xc0e80e
 840 216 l 1xc0e40e
 840 242 l 1xa0e40e
 868 242 l 1xa0e20e
 868 268 l 1x90e20e
 896 268 l 1x90e10e
 896 294 l 1x88e10e
 924 294 l 1x88e08e
 924 320 l 1x84e08e
 952 320 l 1x84e04e
 952 346 l 1x82e04e
 980 346 l 1x82e02e
 980 372 l 1x81e02e
 1008 372 l 1x81e01e
1120 294 m 1x88e00e
 2492 294 l 1
 2492 42 l 1
 1120 42 l 1
 1120 294 l 1x88e00e
1148 70 m 1
 1792 70 l 1
 1792 266 l 1
 1148 266 l 1
 1148 70 l 1
2464 70 m 1
 2464 266 l 1
 1820 266 l 1
 1820 70 l 1
 2464 70 l 1
0 518 m 1
 700 518 l 1
 700 266 l 1
 0 266 l 1
 0 518 l 1
672 294 m 1
 672 490 l 1
 28 490 l 1
 28 294 l 1
 672 294 l 1
EndSplineSet
EndChar

StartChar: ellipsis
Encoding: 8230 8230 22
Width: 588
Flags: W
HStem: 42 28<0 28 224 252 448 476>
VStem: 0 28<42 70> 224 28<42 70> 448 28<42 70>
CounterMasks: 1 70
LayerCount: 2
Fore
SplineSet
0 42 m 1
 0 70 l 1
 28 70 l 1
 28 42 l 1
 0 42 l 1
224 42 m 1
 224 70 l 1
 252 70 l 1
 252 42 l 1
 224 42 l 1
448 42 m 1
 448 70 l 1
 476 70 l 1
 476 42 l 1
 448 42 l 1
EndSplineSet
EndChar

StartChar: bullet
Encoding: 8226 8226 23
Width: 252
Flags: W
HStem: 154 28<28 112> 266 28<28 112>
VStem: 0 28<182 266> 112 28<182 266>
LayerCount: 2
Fore
SplineSet
0 294 m 1
 140 294 l 1
 140 154 l 1
 0 154 l 1
 0 294 l 1
112 182 m 1
 112 266 l 1
 28 266 l 1
 28 182 l 1
 112 182 l 1
EndSplineSet
EndChar

StartChar: daggerdbl
Encoding: 8225 8225 24
Width: 1036
Flags: W
HStem: 154 28<0 448 476 924> 378 28<0 448 476 924> 498 20G<448 476>
VStem: 448 28<-70 154 182 378 406 518>
LayerCount: 2
Fore
SplineSet
476 406 m 1
 924 406 l 1
 924 378 l 1
 476 378 l 1
 476 182 l 1
 924 182 l 1
 924 154 l 1
 476 154 l 1
 476 -70 l 1
 448 -70 l 1
 448 154 l 1
 0 154 l 1
 0 182 l 1
 448 182 l 1
 448 378 l 1
 0 378 l 1
 0 406 l 1
 448 406 l 1
 448 518 l 1
 476 518 l 1
 476 406 l 1
EndSplineSet
EndChar

StartChar: dagger
Encoding: 8224 8224 25
Width: 1036
Flags: W
HStem: 378 28<0 448 476 924> 498 20G<448 476>
VStem: 448 28<-70 378 406 518>
LayerCount: 2
Fore
SplineSet
476 406 m 1
 924 406 l 1
 924 378 l 1
 476 378 l 1
 476 -70 l 1
 448 -70 l 1
 448 378 l 1
 0 378 l 1
 0 406 l 1
 448 406 l 1
 448 518 l 1
 476 518 l 1
 476 406 l 1
EndSplineSet
EndChar

StartChar: quotedblbase
Encoding: 8222 8222 26
Width: 364
Flags: W
HStem: -70 140<0 28 224 252>
VStem: 0 28<-70 70> 224 28<-70 70>
LayerCount: 2
Fore
SplineSet
0 -70 m 1
 0 70 l 1
 28 70 l 1
 28 -70 l 1
 0 -70 l 1
224 -70 m 1
 224 70 l 1
 252 70 l 1
 252 -70 l 1
 224 -70 l 1
EndSplineSet
EndChar

StartChar: quotedblright
Encoding: 8221 8221 27
Width: 364
Flags: W
HStem: 378 140<0 28 224 252>
VStem: 0 28<378 518> 224 28<378 518>
LayerCount: 2
Fore
SplineSet
0 378 m 1
 0 518 l 1
 28 518 l 1
 28 378 l 1
 0 378 l 1
224 378 m 1
 224 518 l 1
 252 518 l 1
 252 378 l 1
 224 378 l 1
EndSplineSet
EndChar

StartChar: quotedblleft
Encoding: 8220 8220 28
Width: 364
Flags: W
HStem: 378 140<0 28 224 252>
VStem: 0 28<378 518> 224 28<378 518>
LayerCount: 2
Fore
SplineSet
0 378 m 1
 0 518 l 1
 28 518 l 1
 28 378 l 1
 0 378 l 1
224 378 m 1
 224 518 l 1
 252 518 l 1
 252 378 l 1
 224 378 l 1
EndSplineSet
EndChar

StartChar: quotesinglbase
Encoding: 8218 8218 29
Width: 140
Flags: W
HStem: -70 140<0 28>
VStem: 0 28<-70 70>
LayerCount: 2
Fore
SplineSet
0 -70 m 1
 0 70 l 1
 28 70 l 1
 28 -70 l 1
 0 -70 l 1
EndSplineSet
EndChar

StartChar: quoteright
Encoding: 8217 8217 30
Width: 140
Flags: W
HStem: 378 140<0 28>
VStem: 0 28<378 518>
LayerCount: 2
Fore
SplineSet
0 378 m 1
 0 518 l 1
 28 518 l 1
 28 378 l 1
 0 378 l 1
EndSplineSet
EndChar

StartChar: quoteleft
Encoding: 8216 8216 31
Width: 140
Flags: W
HStem: 378 140<0 28>
VStem: 0 28<378 518>
LayerCount: 2
Fore
SplineSet
0 378 m 1
 0 518 l 1
 28 518 l 1
 28 378 l 1
 0 378 l 1
EndSplineSet
EndChar

StartChar: quotereversed
Encoding: 8219 8219 32
Width: 140
Flags: W
HStem: 378 140<0 28>
VStem: 0 28<378 518>
LayerCount: 2
Fore
SplineSet
0 378 m 1
 0 518 l 1
 28 518 l 1
 28 378 l 1
 0 378 l 1
EndSplineSet
EndChar

StartChar: uni201F
Encoding: 8223 8223 33
Width: 364
Flags: W
HStem: 378 140<0 28 224 252>
VStem: 0 28<378 518> 224 28<378 518>
LayerCount: 2
Fore
SplineSet
0 378 m 1
 0 518 l 1
 28 518 l 1
 28 378 l 1
 0 378 l 1
224 378 m 1
 224 518 l 1
 252 518 l 1
 252 378 l 1
 224 378 l 1
EndSplineSet
EndChar

StartChar: emdash
Encoding: 8212 8212 34
Width: 1260
Flags: W
HStem: 266 28<0 1148>
LayerCount: 2
Fore
SplineSet
0 266 m 1
 0 294 l 1
 1148 294 l 1
 1148 266 l 1
 0 266 l 1
EndSplineSet
EndChar

StartChar: endash
Encoding: 8211 8211 35
Width: 1036
Flags: W
HStem: 266 28<0 924>
LayerCount: 2
Fore
SplineSet
0 266 m 1
 0 294 l 1
 924 294 l 1
 924 266 l 1
 0 266 l 1
EndSplineSet
EndChar

StartChar: uni1E9E
Encoding: 7838 7838 36
Width: 1260
Flags: W
HStem: 42 28<224 1120> 182 28<1096 1120> 210 28<1070 1094> 238 28<1044 1068> 266 28<560 1042> 294 28<1044 1068> 322 28<1070 1094> 350 28<1096 1120> 406 28<28 52> 434 28<54 78> 462 28<80 104> 490 28<106 1120>
VStem: 0 28<-70 406> 26 28<406 434> 52 28<434 462> 78 28<462 490> 1042 28<238 266 294 322> 1068 28<210 238 322 350> 1094 28<182 210 350 378> 1120 28<70 182 378 490>
LayerCount: 2
Fore
SplineSet
104 518 m 1x8011
 1148 518 l 1
 1148 378 l 1x811110
 1122 378 l 1
 1122 350 l 1x811020
 1096 350 l 1x811040
 1096 322 l 1x820040
 1070 322 l 1x820080
 1070 294 l 1
 1044 294 l 1
 1044 266 l 1x940080
 1070 266 l 1
 1070 238 l 1xa80080
 1096 238 l 1
 1096 210 l 1xd00040
 1122 210 l 1xa00020
 1122 182 l 1xc00020
 1148 182 l 1
 1148 42 l 1
 224 42 l 1
 224 70 l 1
 1120 70 l 1
 1120 182 l 1xc00010
 1094 182 l 1xc00020
 1094 210 l 1xa00020
 1068 210 l 1xa00040
 1068 238 l 1x900040
 1042 238 l 1x900080
 1042 266 l 1
 560 266 l 1
 560 294 l 1
 1042 294 l 1
 1042 322 l 1x8a0080
 1068 322 l 1
 1068 350 l 1x850040
 1094 350 l 1x820020
 1094 378 l 1x810020
 1120 378 l 1
 1120 490 l 1
 106 490 l 1x811110
 106 462 l 1x802110
 80 462 l 1x8022
 80 434 l 1x8042
 54 434 l 1x8044
 54 406 l 1x8084
 28 406 l 1
 28 -70 l 1
 0 -70 l 1
 0 406 l 1x8088
 26 406 l 1x8084
 26 434 l 1x8044
 52 434 l 1
 52 462 l 1x80a2
 78 462 l 1
 78 490 l 1x8051
 104 490 l 1x8021
 104 518 l 1x8011
EndSplineSet
EndChar

StartChar: hungarumlaut
Encoding: 733 733 37
Width: 468
Flags: W
HStem: 490 28<0 26 224 250> 518 28<28 52 252 276> 546 28<54 78 278 302> 574 28<80 104 304 328> 602 28<106 132 330 356>
VStem: 0 28<490 518> 26 28<518 546> 52 28<546 574> 78 28<574 602> 104 28<602 630> 224 28<490 518> 250 28<518 546> 276 28<546 574> 302 28<574 602> 328 28<602 630>
LayerCount: 2
Fore
SplineSet
328 630 m 1x0802
 356 630 l 1
 356 602 l 1x0802
 330 602 l 1x0804
 330 574 l 1x1004
 304 574 l 1x1008
 304 546 l 1x2008
 278 546 l 1x2010
 278 518 l 1x4010
 252 518 l 1x4020
 252 490 l 1
 224 490 l 1
 224 518 l 1x8020
 250 518 l 1
 250 546 l 1xa010
 276 546 l 1
 276 574 l 1x5008
 302 574 l 1
 302 602 l 1x2804
 328 602 l 1x1002
 328 630 l 1x0802
104 602 m 1x1040
 104 630 l 1
 132 630 l 1
 132 602 l 1x0840
 106 602 l 1x0880
 106 574 l 1x1080
 80 574 l 1x11
 80 546 l 1x21
 54 546 l 1x22
 54 518 l 1x42
 28 518 l 1x44
 28 490 l 1
 0 490 l 1
 0 518 l 1x84
 26 518 l 1
 26 546 l 1xa2
 52 546 l 1
 52 574 l 1x51
 78 574 l 1
 78 602 l 1x2880
 104 602 l 1x1040
EndSplineSet
EndChar

StartChar: tilde
Encoding: 732 732 38
Width: 468
Flags: W
HStem: 490 28<218 328> 518 28<192 216> 546 28<166 190> 574 28<140 164> 602 28<28 138>
VStem: 0 28<490 602> 138 28<574 602> 164 28<546 574> 190 28<518 546> 328 28<518 630>
LayerCount: 2
Fore
SplineSet
328 518 m 1xa4c0
 328 630 l 1
 356 630 l 1
 356 490 l 1
 216 490 l 1xacc0
 216 518 l 1
 190 518 l 1x44c0
 190 546 l 1x24c0
 164 546 l 1x2540
 164 574 l 1x1540
 138 574 l 1x1640
 138 602 l 1
 28 602 l 1
 28 490 l 1
 0 490 l 1
 0 630 l 1
 140 630 l 1x8e40
 140 602 l 1x1640
 166 602 l 1
 166 574 l 1x2e40
 192 574 l 1
 192 546 l 1x5540
 218 546 l 1
 218 518 l 1
 328 518 l 1xa4c0
EndSplineSet
EndChar

StartChar: ogonek
Encoding: 731 731 39
Width: 244
Flags: W
HStem: -182 28<106 132> -154 28<80 104> -126 28<54 78> -98 28<28 52> -70 28<0 26>
VStem: 0 28<-70 -42> 26 28<-98 -70> 52 28<-126 -98> 78 28<-154 -126> 104 28<-182 -154>
LayerCount: 2
Fore
SplineSet
106 -154 m 1xa080
 132 -154 l 1
 132 -182 l 1
 104 -182 l 1xa040
 104 -154 l 1x4040
 78 -154 l 1x4080
 78 -126 l 1x2080
 52 -126 l 1x21
 52 -98 l 1x11
 26 -98 l 1x12
 26 -70 l 1x0a
 0 -70 l 1
 0 -42 l 1
 28 -42 l 1x0c
 28 -70 l 1x14
 54 -70 l 1
 54 -98 l 1x2a
 80 -98 l 1
 80 -126 l 1x51
 106 -126 l 1
 106 -154 l 1xa080
EndSplineSet
EndChar

StartChar: ring
Encoding: 730 730 40
Width: 252
Flags: W
HStem: 490 28<28 112> 602 28<28 112>
VStem: 0 28<518 602> 112 28<518 602>
LayerCount: 2
Fore
SplineSet
0 490 m 1
 0 630 l 1
 140 630 l 1
 140 490 l 1
 0 490 l 1
112 518 m 1
 112 602 l 1
 28 602 l 1
 28 518 l 1
 112 518 l 1
EndSplineSet
EndChar

StartChar: dotaccent
Encoding: 729 729 41
Width: 140
Flags: W
HStem: 602 28<0 28>
VStem: 0 28<602 630>
LayerCount: 2
Fore
SplineSet
0 602 m 1
 0 630 l 1
 28 630 l 1
 28 602 l 1
 0 602 l 1
EndSplineSet
EndChar

StartChar: breve
Encoding: 728 728 42
Width: 476
Flags: W
HStem: 490 28<106 258> 518 28<80 104 260 284> 546 28<54 78 286 310> 574 28<28 52 312 336> 602 28<0 26 338 364>
VStem: 0 28<602 630> 26 28<574 602> 52 28<546 574> 78 28<518 546> 258 28<518 546> 284 28<546 574> 310 28<574 602> 336 28<602 630>
LayerCount: 2
Fore
SplineSet
336 630 m 1x0808
 364 630 l 1
 364 602 l 1x0808
 338 602 l 1x0810
 338 574 l 1x1010
 312 574 l 1x1020
 312 546 l 1x2020
 286 546 l 1x2040
 286 518 l 1
 260 518 l 1x4040
 260 490 l 1
 104 490 l 1x8040
 104 518 l 1
 78 518 l 1x40c0
 78 546 l 1x20c0
 52 546 l 1x21
 52 574 l 1x11
 26 574 l 1x12
 26 602 l 1x0a
 0 602 l 1
 0 630 l 1
 28 630 l 1x0c
 28 602 l 1x14
 54 602 l 1
 54 574 l 1x2a
 80 574 l 1
 80 546 l 1x51
 106 546 l 1
 106 518 l 1
 258 518 l 1
 258 546 l 1xa0c0
 284 546 l 1
 284 574 l 1x5020
 310 574 l 1
 310 602 l 1x2810
 336 602 l 1x1008
 336 630 l 1x0808
EndSplineSet
EndChar

StartChar: caron
Encoding: 711 711 43
Width: 348
Flags: W
HStem: 490 28<106 130> 518 28<80 104 132 156> 546 28<54 78 158 182> 574 28<28 52 184 208> 602 28<0 26 210 236>
VStem: 0 28<602 630> 26 28<574 602> 52 28<546 574> 78 28<518 546> 130 28<518 546> 156 28<546 574> 182 28<574 602> 208 28<602 630>
LayerCount: 2
Fore
SplineSet
208 602 m 1x1008
 208 630 l 1
 236 630 l 1
 236 602 l 1x0808
 210 602 l 1x0810
 210 574 l 1x1010
 184 574 l 1x1020
 184 546 l 1x2020
 158 546 l 1x2040
 158 518 l 1
 132 518 l 1x4040
 132 490 l 1
 104 490 l 1x8040
 104 518 l 1
 78 518 l 1x40c0
 78 546 l 1x20c0
 52 546 l 1x21
 52 574 l 1x11
 26 574 l 1x12
 26 602 l 1x0a
 0 602 l 1
 0 630 l 1
 28 630 l 1x0c
 28 602 l 1x14
 54 602 l 1
 54 574 l 1x2a
 80 574 l 1
 80 546 l 1x51
 106 546 l 1
 106 518 l 1
 130 518 l 1
 130 546 l 1xa0c0
 156 546 l 1
 156 574 l 1x5020
 182 574 l 1
 182 602 l 1x2810
 208 602 l 1x1008
EndSplineSet
EndChar

StartChar: circumflex
Encoding: 710 710 44
Width: 348
Flags: W
HStem: 490 28<0 26 210 236> 518 28<28 52 184 208> 546 28<54 78 158 182> 574 28<80 104 132 156> 602 28<106 130>
VStem: 0 28<490 518> 26 28<518 546> 52 28<546 574> 78 28<574 602> 130 28<574 602> 156 28<546 574> 182 28<518 546> 208 28<490 518>
LayerCount: 2
Fore
SplineSet
210 546 m 1x2010
 210 518 l 1xa010
 236 518 l 1
 236 490 l 1
 208 490 l 1xa008
 208 518 l 1x4008
 182 518 l 1x4010
 182 546 l 1x2010
 156 546 l 1x2020
 156 574 l 1x1020
 130 574 l 1x1040
 130 602 l 1
 106 602 l 1x08c0
 106 574 l 1x10c0
 80 574 l 1x11
 80 546 l 1x21
 54 546 l 1x22
 54 518 l 1x42
 28 518 l 1x44
 28 490 l 1
 0 490 l 1
 0 518 l 1x84
 26 518 l 1
 26 546 l 1xa2
 52 546 l 1
 52 574 l 1x51
 78 574 l 1
 78 602 l 1x2880
 104 602 l 1x1080
 104 630 l 1
 132 630 l 1x0880
 132 602 l 1x1080
 158 602 l 1
 158 574 l 1x28c0
 184 574 l 1
 184 546 l 1x5020
 210 546 l 1x2010
EndSplineSet
EndChar

StartChar: florin
Encoding: 402 402 45
Width: 1260
Flags: W
HStem: -182 28<0 112> 42 28<140 1148> 378 28<140 1120>
VStem: 112 28<-154 42 70 378> 1120 28<266 378>
LayerCount: 2
Fore
SplineSet
112 406 m 1
 1148 406 l 1
 1148 266 l 1
 1120 266 l 1
 1120 378 l 1
 140 378 l 1
 140 70 l 1
 1148 70 l 1
 1148 42 l 1
 140 42 l 1
 140 -182 l 1
 0 -182 l 1
 0 -154 l 1
 112 -154 l 1
 112 406 l 1
EndSplineSet
EndChar

StartChar: uni0191
Encoding: 401 401 46
Width: 1372
Flags: W
HStem: -70 28<0 112> 154 28<140 700> 490 28<140 1232>
VStem: 112 28<-42 154 182 490> 1232 28<266 490>
LayerCount: 2
Fore
SplineSet
112 518 m 1
 1260 518 l 1
 1260 266 l 1
 1232 266 l 1
 1232 490 l 1
 140 490 l 1
 140 182 l 1
 700 182 l 1
 700 154 l 1
 140 154 l 1
 140 -70 l 1
 0 -70 l 1
 0 -42 l 1
 112 -42 l 1
 112 518 l 1
EndSplineSet
EndChar

StartChar: oe
Encoding: 339 339 47
Width: 2156
Flags: W
HStem: -70 28<1036 1484> 42 28<28 1008> 154 28<1232 2016> 378 28<28 1008 1036 2016>
VStem: 0 28<70 378> 1008 28<-42 42 70 378> 2016 28<182 378>
CounterMasks: 1 0e
LayerCount: 2
Fore
SplineSet
0 406 m 1
 2044 406 l 1
 2044 154 l 1
 1232 154 l 1
 1232 182 l 1
 2016 182 l 1
 2016 378 l 1
 1036 378 l 1
 1036 -42 l 1
 1484 -42 l 1
 1484 -70 l 1
 1008 -70 l 1
 1008 42 l 1
 0 42 l 1
 0 406 l 1
1008 70 m 1
 1008 378 l 1
 28 378 l 1
 28 70 l 1
 1008 70 l 1
EndSplineSet
EndChar

StartChar: OE
Encoding: 338 338 48
Width: 2380
Flags: W
HStem: 42 28<28 1120 1148 2240> 266 28<1148 1708> 490 28<28 1120 1148 2240>
VStem: 0 28<70 490> 1120 28<70 266 294 490> 2240 28<70 182 378 490>
CounterMasks: 1 fc
LayerCount: 2
Fore
SplineSet
0 518 m 1
 2268 518 l 1
 2268 378 l 1
 2240 378 l 1
 2240 490 l 1
 1148 490 l 1
 1148 294 l 1
 1708 294 l 1
 1708 266 l 1
 1148 266 l 1
 1148 70 l 1
 2240 70 l 1
 2240 182 l 1
 2268 182 l 1
 2268 42 l 1
 0 42 l 1
 0 518 l 1
1120 70 m 1
 1120 490 l 1
 28 490 l 1
 28 70 l 1
 1120 70 l 1
EndSplineSet
EndChar

StartChar: dotlessi
Encoding: 305 305 49
Width: 140
Flags: W
HStem: 42 21G<0 28> 42 21G<0 28> 386 20G<0 28>
VStem: 0 28<42 406>
LayerCount: 2
Fore
SplineSet
0 42 m 1xb0
 0 406 l 1
 28 406 l 1
 28 42 l 1
 0 42 l 1xb0
EndSplineSet
EndChar

StartChar: dcroat
Encoding: 273 273 50
Width: 1260
Flags: W
HStem: 42 28<28 1008> 378 28<28 1008> 490 28<1036 1148>
VStem: 0 28<70 378> 1008 28<70 378 406 490>
LayerCount: 2
Fore
SplineSet
1008 518 m 1
 1148 518 l 1
 1148 490 l 1
 1036 490 l 1
 1036 42 l 1
 0 42 l 1
 0 406 l 1
 1008 406 l 1
 1008 518 l 1
1008 70 m 1
 1008 378 l 1
 28 378 l 1
 28 70 l 1
 1008 70 l 1
EndSplineSet
EndChar

StartChar: Dcroat
Encoding: 272 272 51
Width: 1372
Flags: W
HStem: 42 28<0 112 140 1232> 266 28<0 112 140 252> 490 28<0 112 140 1232>
VStem: 112 28<70 266 294 490> 1232 28<70 490>
CounterMasks: 1 e0
LayerCount: 2
Fore
SplineSet
0 518 m 1
 1260 518 l 1
 1260 42 l 1
 0 42 l 1
 0 70 l 1
 112 70 l 1
 112 266 l 1
 0 266 l 1
 0 294 l 1
 112 294 l 1
 112 490 l 1
 0 490 l 1
 0 518 l 1
1232 70 m 1
 1232 490 l 1
 140 490 l 1
 140 294 l 1
 252 294 l 1
 252 266 l 1
 140 266 l 1
 140 70 l 1
 1232 70 l 1
EndSplineSet
EndChar

StartChar: thorn
Encoding: 254 254 52
Width: 1148
Flags: W
HStem: 42 28<28 1008> 378 28<28 1008> 498 20G<0 28>
VStem: 0 28<-70 42 70 378 406 518> 1008 28<70 378>
LayerCount: 2
Fore
SplineSet
28 406 m 1
 1036 406 l 1
 1036 42 l 1
 28 42 l 1
 28 -70 l 1
 0 -70 l 1
 0 518 l 1
 28 518 l 1
 28 406 l 1
1008 70 m 1
 1008 378 l 1
 28 378 l 1
 28 70 l 1
 1008 70 l 1
EndSplineSet
EndChar

StartChar: oslash
Encoding: 248 248 53
Width: 1148
Flags: W
HStem: -70 28<342 368> -42 28<370 394> -14 28<396 420> 14 56<422 448> 42 56<384 410> 42 28<28 384 412 420 448 1008> 98 28<412 436> 126 28<438 462> 154 28<464 488> 182 28<490 514> 210 28<516 540> 238 28<542 566> 266 28<568 592> 294 28<594 618> 322 28<620 644> 350 56<646 672> 378 56<594 620> 378 28<28 594 622 644 672 1008> 434 28<622 646> 462 28<648 672> 490 28<674 700>
VStem: 0 28<70 378> 342 28<-70 -42> 368 28<-42 -14> 384 28<70 98> 394 28<-14 14> 410 28<98 126> 420 28<14 42> 436 28<126 154> 462 28<154 182> 488 28<182 210> 514 28<210 238> 540 28<238 266> 566 28<266 294> 592 28<294 322 406 434> 618 28<322 350 434 462> 644 28<350 378 462 490> 672 28<490 518> 1008 28<70 378>
LayerCount: 2
Fore
SplineSet
622 406 m 1x0000640006
 1036 406 l 1
 1036 42 l 1
 448 42 l 1x0400641006
 448 14 l 1x1000041006
 422 14 l 1x1000044002
 422 -14 l 1x2000044002
 396 -14 l 1x2000050002
 396 -42 l 1x4000050002
 370 -42 l 1x4000060002
 370 -70 l 1
 342 -70 l 1
 342 -42 l 1x8000060002
 368 -42 l 1
 368 -14 l 1xa000050002
 394 -14 l 1
 394 14 l 1x5000044002
 420 14 l 1
 420 42 l 1
 0 42 l 1
 0 406 l 1
 594 406 l 1x2400441042
 594 434 l 1x0000841042
 620 434 l 1
 620 462 l 1x0000940022
 646 462 l 1
 646 490 l 1x00002c0012
 672 490 l 1x000014000a
 672 518 l 1
 700 518 l 1
 700 490 l 1
 674 490 l 1x00000c0006
 674 462 l 1
 648 462 l 1x0000140006
 648 434 l 1
 622 434 l 1
 622 406 l 1x0000640006
28 70 m 1
 384 70 l 1x040244800a
 384 98 l 1x080004800a
 410 98 l 1
 410 126 l 1x0900042002
 436 126 l 1
 436 154 l 1x0280040802
 462 154 l 1
 462 182 l 1x0140040402
 488 182 l 1
 488 210 l 1x00a0040202
 514 210 l 1
 514 238 l 1x0050040102
 540 238 l 1
 540 266 l 1x0028040082
 566 266 l 1
 566 294 l 1x0014040042
 592 294 l 1
 592 322 l 1x000a040022
 618 322 l 1
 618 350 l 1x0005040012
 644 350 l 1
 644 378 l 1x000244000a
 28 378 l 1
 28 70 l 1
1008 70 m 1
 1008 378 l 1
 672 378 l 1x060044800a
 672 350 l 1x000104800a
 646 350 l 1x0001040012
 646 322 l 1x0002040012
 620 322 l 1x0002040022
 620 294 l 1x0004040022
 594 294 l 1x0004040042
 594 266 l 1x0008040042
 568 266 l 1x0008040082
 568 238 l 1x0010040082
 542 238 l 1x0010040102
 542 210 l 1x0020040102
 516 210 l 1x0020040202
 516 182 l 1x0040040202
 490 182 l 1x0040040402
 490 154 l 1x0080040402
 464 154 l 1x0080040802
 464 126 l 1x0100040802
 438 126 l 1x0100042002
 438 98 l 1x0200042002
 412 98 l 1x0200048002
 412 70 l 1
 1008 70 l 1
EndSplineSet
EndChar

StartChar: divide
Encoding: 247 247 54
Width: 1036
Flags: W
HStem: 42 28<448 476> 266 28<0 924> 490 28<448 476>
VStem: 448 28<42 70 490 518>
CounterMasks: 1 e0
LayerCount: 2
Fore
SplineSet
0 266 m 1
 0 294 l 1
 924 294 l 1
 924 266 l 1
 0 266 l 1
448 490 m 1
 448 518 l 1
 476 518 l 1
 476 490 l 1
 448 490 l 1
448 42 m 1
 448 70 l 1
 476 70 l 1
 476 42 l 1
 448 42 l 1
EndSplineSet
EndChar

StartChar: eth
Encoding: 240 240 55
Width: 1260
Flags: W
HStem: 42 28<28 1008> 378 28<28 1008> 490 28<1036 1148>
VStem: 0 28<70 378> 1008 28<70 378 406 490>
LayerCount: 2
Fore
SplineSet
1008 518 m 1
 1148 518 l 1
 1148 490 l 1
 1036 490 l 1
 1036 42 l 1
 0 42 l 1
 0 406 l 1
 1008 406 l 1
 1008 518 l 1
1008 70 m 1
 1008 378 l 1
 28 378 l 1
 28 70 l 1
 1008 70 l 1
EndSplineSet
EndChar

StartChar: ccedilla
Encoding: 231 231 56
Width: 1148
Flags: W
HStem: -182 28<456 482> -154 28<484 508> -126 28<510 534> -98 28<536 560> -70 28<562 588> 42 28<28 1036> 378 28<28 1036>
VStem: 0 28<70 378> 456 28<-182 -154> 482 28<-154 -126> 508 28<-126 -98> 534 28<-98 -70> 560 28<-70 -42>
LayerCount: 2
Fore
SplineSet
28 378 m 1x07
 28 70 l 1
 1036 70 l 1
 1036 42 l 1
 0 42 l 1
 0 406 l 1
 1036 406 l 1
 1036 378 l 1
 28 378 l 1x07
560 -70 m 1x1708
 560 -42 l 1
 588 -42 l 1
 588 -70 l 1x0f08
 562 -70 l 1x0f10
 562 -98 l 1x1710
 536 -98 l 1x1720
 536 -126 l 1x2720
 510 -126 l 1x2740
 510 -154 l 1x4740
 484 -154 l 1x4780
 484 -182 l 1
 456 -182 l 1
 456 -154 l 1x8780
 482 -154 l 1
 482 -126 l 1xa740
 508 -126 l 1
 508 -98 l 1x5720
 534 -98 l 1
 534 -70 l 1x2f10
 560 -70 l 1x1708
EndSplineSet
EndChar

StartChar: ae
Encoding: 230 230 57
Width: 2156
Flags: W
HStem: -70 28<1036 1484> 42 28<28 812> 154 28<1232 2016> 378 28<28 1008 1036 2016>
VStem: 0 28<70 378> 1008 28<-42 378> 2016 28<182 378>
CounterMasks: 1 0e
LayerCount: 2
Fore
SplineSet
0 406 m 1
 2044 406 l 1
 2044 154 l 1
 1232 154 l 1
 1232 182 l 1
 2016 182 l 1
 2016 378 l 1
 1036 378 l 1
 1036 -42 l 1
 1484 -42 l 1
 1484 -70 l 1
 1008 -70 l 1
 1008 378 l 1
 28 378 l 1
 28 70 l 1
 812 70 l 1
 812 42 l 1
 0 42 l 1
 0 406 l 1
EndSplineSet
EndChar

StartChar: germandbls
Encoding: 223 223 58
Width: 1148
Flags: W
HStem: 42 28<224 1008> 378 28<476 1008> 490 28<28 448>
VStem: 0 28<-70 490> 448 28<406 490> 1008 28<70 378>
LayerCount: 2
Fore
SplineSet
476 406 m 1
 1036 406 l 1
 1036 42 l 1
 224 42 l 1
 224 70 l 1
 1008 70 l 1
 1008 378 l 1
 448 378 l 1
 448 490 l 1
 28 490 l 1
 28 -70 l 1
 0 -70 l 1
 0 518 l 1
 476 518 l 1
 476 406 l 1
EndSplineSet
EndChar

StartChar: Thorn
Encoding: 222 222 59
Width: 1260
Flags: W
HStem: 42 21G<0 28> 42 21G<0 28> 154 28<28 1120> 378 28<28 1120> 498 20G<0 28>
VStem: 0 28<42 154 182 378 406 518> 1120 28<182 378>
LayerCount: 2
Fore
SplineSet
28 406 m 1xbe
 1148 406 l 1
 1148 154 l 1
 28 154 l 1
 28 42 l 1
 0 42 l 1
 0 518 l 1
 28 518 l 1
 28 406 l 1xbe
1120 182 m 1
 1120 378 l 1
 28 378 l 1
 28 182 l 1
 1120 182 l 1
EndSplineSet
EndChar

StartChar: Oslash
Encoding: 216 216 60
Width: 1260
Flags: W
HStem: -70 28<342 368> -42 28<370 394> -14 28<396 420> 14 56<422 448> 42 56<392 418> 42 28<28 392 448 1120> 98 28<420 444> 126 28<446 470> 154 28<472 496> 182 28<498 522> 210 28<524 548> 238 28<550 574> 266 28<576 600> 294 28<602 626> 322 28<628 652> 350 28<654 678> 378 28<680 704> 406 28<706 730> 434 28<732 756> 462 56<758 784> 490 56<706 732> 490 28<28 706 734 756 784 1120> 546 28<734 758> 574 28<760 784> 602 28<786 812>
VStem: 0 28<70 490> 342 28<-70 -42> 368 28<-42 -14> 394 28<-14 14 70 98> 420 28<14 42 98 126> 444 28<126 154> 470 28<154 182> 496 28<182 210> 522 28<210 238> 548 28<238 266> 574 28<266 294> 600 28<294 322> 626 28<322 350> 652 28<350 378> 678 28<378 406> 704 28<406 434 518 546> 730 28<434 462 546 574> 756 28<462 490 574 602> 784 28<602 630> 1120 28<70 490>
LayerCount: 2
Fore
SplineSet
734 518 m 1x000006400018
 1148 518 l 1
 1148 42 l 1
 448 42 l 1x040006440018
 448 14 l 1x100000440018
 422 14 l 1x100000480008
 422 -14 l 1x200000480008
 396 -14 l 1x200000500008
 396 -42 l 1x400000500008
 370 -42 l 1x400000600008
 370 -70 l 1
 342 -70 l 1
 342 -42 l 1x800000600008
 368 -42 l 1
 368 -14 l 1xa00000500008
 394 -14 l 1
 394 14 l 1x500000480008
 420 14 l 1
 420 42 l 1
 0 42 l 1
 0 518 l 1
 706 518 l 1x240004440108
 706 546 l 1x000008440108
 732 546 l 1
 732 574 l 1x000009400088
 758 574 l 1
 758 602 l 1x000002c00048
 784 602 l 1x000001400028
 784 630 l 1
 812 630 l 1
 812 602 l 1
 786 602 l 1x000000c00018
 786 574 l 1
 760 574 l 1x000001400018
 760 546 l 1
 734 546 l 1
 734 518 l 1x000006400018
28 70 m 1
 392 70 l 1x040024400028
 392 98 l 1
 418 98 l 1
 418 126 l 1x090000400028
 444 126 l 1
 444 154 l 1x028000420028
 470 154 l 1
 470 182 l 1x014000410008
 496 182 l 1
 496 210 l 1x00a000408008
 522 210 l 1
 522 238 l 1x005000404008
 548 238 l 1
 548 266 l 1x002800402008
 574 266 l 1
 574 294 l 1x001400401008
 600 294 l 1
 600 322 l 1x000a00400808
 626 322 l 1
 626 350 l 1x000500400408
 652 350 l 1
 652 378 l 1x000280400208
 678 378 l 1
 678 406 l 1x000140400108
 704 406 l 1
 704 434 l 1x0000a0400088
 730 434 l 1
 730 462 l 1x000050400048
 756 462 l 1
 756 490 l 1x000024400028
 28 490 l 1
 28 70 l 1
1120 70 m 1
 1120 490 l 1
 784 490 l 1x060004440028
 784 462 l 1x000010440028
 758 462 l 1x000010400048
 758 434 l 1x000020400048
 732 434 l 1x000020400088
 732 406 l 1x000040400088
 706 406 l 1x000040400108
 706 378 l 1x000080400108
 680 378 l 1x000080400208
 680 350 l 1x000100400208
 654 350 l 1x000100400408
 654 322 l 1x000200400408
 628 322 l 1x000200400808
 628 294 l 1x000400400808
 602 294 l 1x000400401008
 602 266 l 1x000800401008
 576 266 l 1x000800402008
 576 238 l 1x001000402008
 550 238 l 1x001000404008
 550 210 l 1x002000404008
 524 210 l 1x002000408008
 524 182 l 1x004000408008
 498 182 l 1x004000410008
 498 154 l 1x008000410008
 472 154 l 1x008000420008
 472 126 l 1
 446 126 l 1x010000420008
 446 98 l 1
 420 98 l 1
 420 70 l 1x060000440008
 1120 70 l 1
EndSplineSet
EndChar

StartChar: multiply
Encoding: 215 215 61
Width: 1036
Flags: W
HStem: 154 28<0 370 554 924> 182 28<372 396 528 552> 210 28<398 422 502 526> 238 28<424 448 476 500> 294 28<424 448 476 500> 322 28<398 422 502 526> 350 28<372 396 528 552> 378 28<0 370 554 924>
VStem: 370 28<182 210 350 378> 396 28<210 238 322 350> 422 28<238 266 294 322> 474 28<238 266 294 322> 500 28<210 238 322 350> 526 28<182 210 350 378>
LayerCount: 2
Fore
SplineSet
552 406 m 1x0104
 924 406 l 1
 924 378 l 1
 554 378 l 1x0104
 554 350 l 1x0204
 528 350 l 1x0208
 528 322 l 1x0408
 502 322 l 1x0410
 502 294 l 1
 476 294 l 1
 476 266 l 1
 502 266 l 1x1810
 502 238 l 1x2010
 528 238 l 1
 528 210 l 1x5008
 554 210 l 1
 554 182 l 1
 924 182 l 1
 924 154 l 1
 552 154 l 1xa004
 552 182 l 1
 526 182 l 1x4004
 526 210 l 1x2004
 500 210 l 1x2008
 500 238 l 1x1008
 474 238 l 1
 474 266 l 1
 450 266 l 1
 450 238 l 1x1030
 424 238 l 1x1040
 424 210 l 1x2040
 398 210 l 1x2080
 398 182 l 1
 372 182 l 1x4080
 372 154 l 1
 0 154 l 1
 0 182 l 1
 370 182 l 1
 370 210 l 1xa080
 396 210 l 1
 396 238 l 1x5040
 422 238 l 1x2020
 422 266 l 1
 448 266 l 1
 448 294 l 1
 422 294 l 1x1820
 422 322 l 1x0420
 396 322 l 1x0440
 396 350 l 1x0240
 370 350 l 1x0280
 370 378 l 1
 0 378 l 1
 0 406 l 1
 372 406 l 1x0180
 372 378 l 1x0280
 398 378 l 1
 398 350 l 1x0580
 424 350 l 1
 424 322 l 1x0a40
 450 322 l 1x0420
 450 294 l 1
 474 294 l 1x0830
 474 322 l 1x0430
 500 322 l 1
 500 350 l 1x0a08
 526 350 l 1
 526 378 l 1x0504
 552 378 l 1x0204
 552 406 l 1x0104
EndSplineSet
EndChar

StartChar: Eth
Encoding: 208 208 62
Width: 1372
Flags: W
HStem: 42 28<0 112 140 1232> 266 28<0 112 140 252> 490 28<0 112 140 1232>
VStem: 112 28<70 266 294 490> 1232 28<70 490>
CounterMasks: 1 e0
LayerCount: 2
Fore
SplineSet
0 518 m 1
 1260 518 l 1
 1260 42 l 1
 0 42 l 1
 0 70 l 1
 112 70 l 1
 112 266 l 1
 0 266 l 1
 0 294 l 1
 112 294 l 1
 112 490 l 1
 0 490 l 1
 0 518 l 1
1232 70 m 1
 1232 490 l 1
 140 490 l 1
 140 294 l 1
 252 294 l 1
 252 266 l 1
 140 266 l 1
 140 70 l 1
 1232 70 l 1
EndSplineSet
EndChar

StartChar: Ccedilla
Encoding: 199 199 63
Width: 1260
Flags: W
HStem: -182 28<456 482> -154 28<484 508> -126 28<510 534> -98 28<536 560> -70 28<562 588> 42 28<28 1120> 490 28<28 1120>
VStem: 0 28<70 490> 456 28<-182 -154> 482 28<-154 -126> 508 28<-126 -98> 534 28<-98 -70> 560 28<-70 -42> 1120 28<70 182 378 490>
LayerCount: 2
Fore
SplineSet
560 -70 m 1x170c
 560 -42 l 1
 588 -42 l 1
 588 -70 l 1x0f0c
 562 -70 l 1x0f14
 562 -98 l 1x1714
 536 -98 l 1x1724
 536 -126 l 1x2724
 510 -126 l 1x2744
 510 -154 l 1x4744
 484 -154 l 1x4784
 484 -182 l 1
 456 -182 l 1
 456 -154 l 1x8784
 482 -154 l 1
 482 -126 l 1xa744
 508 -126 l 1
 508 -98 l 1x5724
 534 -98 l 1
 534 -70 l 1x2f14
 560 -70 l 1x170c
0 518 m 1
 1148 518 l 1
 1148 378 l 1
 1120 378 l 1
 1120 490 l 1
 28 490 l 1
 28 70 l 1
 1120 70 l 1
 1120 182 l 1
 1148 182 l 1
 1148 42 l 1
 0 42 l 1
 0 518 l 1
EndSplineSet
EndChar

StartChar: AE
Encoding: 198 198 64
Width: 2380
Flags: W
HStem: 42 28<1148 2240> 154 28<28 1120> 266 28<1148 1708> 490 28<28 1120 1148 2240>
VStem: 0 28<42 154 182 490> 1120 28<70 154 182 266 294 490> 2240 28<70 182 378 490>
CounterMasks: 1 0e
LayerCount: 2
Fore
SplineSet
0 518 m 1
 2268 518 l 1
 2268 378 l 1
 2240 378 l 1
 2240 490 l 1
 1148 490 l 1
 1148 294 l 1
 1708 294 l 1
 1708 266 l 1
 1148 266 l 1
 1148 70 l 1
 2240 70 l 1
 2240 182 l 1
 2268 182 l 1
 2268 42 l 1
 1120 42 l 1
 1120 154 l 1
 28 154 l 1
 28 42 l 1
 0 42 l 1
 0 518 l 1
1120 182 m 1
 1120 490 l 1
 28 490 l 1
 28 182 l 1
 1120 182 l 1
EndSplineSet
EndChar

StartChar: questiondown
Encoding: 191 191 65
Width: 1260
Flags: W
HStem: -70 28<28 1148> 154 28<28 1148> 378 28<1120 1148>
VStem: 0 28<-42 154> 1120 28<378 406>
CounterMasks: 1 e0
LayerCount: 2
Fore
SplineSet
1120 378 m 1
 1120 406 l 1
 1148 406 l 1
 1148 378 l 1
 1120 378 l 1
0 182 m 1
 1148 182 l 1
 1148 154 l 1
 28 154 l 1
 28 -42 l 1
 1148 -42 l 1
 1148 -70 l 1
 0 -70 l 1
 0 182 l 1
EndSplineSet
EndChar

StartChar: threequarters
Encoding: 190 190 66
Width: 1820
Flags: W
HStem: 42 21G<672 700 1680 1708> 42 21G<672 700 1680 1708> 154 28<1036 1680> 192 28<700 728> 218 28<728 756> 244 28<756 784> 270 28<784 812> 296 28<812 840> 322 28<840 868> 348 28<868 896> 378 28<0 672 896 924> 400 28<924 952> 426 28<952 980> 452 28<980 1008> 490 28<560 588> 602 28<0 672>
VStem: 560 28<490 518> 672 28<42 192 406 602> 700 28<194 218> 728 28<220 244> 756 28<246 270> 784 28<272 296> 812 28<298 322> 840 28<324 348> 868 28<350 374> 896 28<376 400> 924 28<402 426> 952 28<428 452> 980 28<454 478> 1008 28<182 294 480 630> 1680 28<42 154 182 294>
LayerCount: 2
Fore
SplineSet
1008 478 m 1x2007800a
 1008 452 l 1
 980 452 l 1x20078016
 980 426 l 1
 952 426 l 1x200b802a
 952 400 l 1
 924 400 l 1x20138052
 924 374 l 1
 896 374 l 1x201380a2
 896 348 l 1
 868 348 l 1x20538142
 868 322 l 1
 840 322 l 1x20838282
 840 296 l 1
 812 296 l 1x21038502
 812 270 l 1
 784 270 l 1x22038a02
 784 244 l 1
 756 244 l 1x24039402
 756 218 l 1
 728 218 l 1x2803a802
 728 192 l 1
 700 192 l 1
 700 42 l 1
 672 42 l 1
 672 194 l 1xb003d002
 700 194 l 1
 700 220 l 1xb003a002
 728 220 l 1xb0039002
 728 246 l 1x28039002
 756 246 l 1x28038802
 756 272 l 1x24038802
 784 272 l 1x24038402
 784 298 l 1x22038402
 812 298 l 1x22038202
 812 324 l 1x21038202
 840 324 l 1x21038102
 840 350 l 1x20838102
 868 350 l 1x20838082
 868 376 l 1x20438082
 896 376 l 1
 896 402 l 1x20438042
 924 402 l 1
 924 428 l 1x20538022
 952 428 l 1x20538012
 952 454 l 1x200b8012
 980 454 l 1x200b800a
 980 480 l 1x2007800a
 1008 480 l 1
 1008 630 l 1
 1036 630 l 1
 1036 478 l 1x20078006
 1008 478 l 1x2007800a
560 490 m 1
 560 518 l 1
 588 518 l 1
 588 490 l 1
 560 490 l 1
700 378 m 1x2023a002
 0 378 l 1
 0 406 l 1
 672 406 l 1
 672 602 l 1x2023c002
 0 602 l 1
 0 630 l 1
 700 630 l 1
 700 378 l 1x2023a002
1680 182 m 1
 1680 294 l 1
 1708 294 l 1
 1708 42 l 1
 1680 42 l 1
 1680 154 l 1
 1008 154 l 1
 1008 294 l 1
 1036 294 l 1
 1036 182 l 1xa0038006
 1680 182 l 1
EndSplineSet
EndChar

StartChar: onehalf
Encoding: 189 189 67
Width: 1820
Flags: W
HStem: 42 28<1260 1708> 192 28<700 728> 218 28<728 756> 244 28<756 784> 266 28<784 812 1008 1232> 296 28<812 840> 322 28<840 868> 348 28<868 896> 378 28<0 224 252 700 896 924> 400 28<924 952> 426 28<952 980> 452 28<980 1008> 602 28<0 224>
VStem: 224 28<406 602> 672 28<42 192> 700 28<194 218> 728 28<220 244> 756 28<246 270> 784 28<272 296> 812 28<298 322> 840 28<324 348> 868 28<350 374> 896 28<376 400> 924 28<402 426> 952 28<428 452> 980 28<454 478> 1008 28<480 630> 1232 28<70 266>
LayerCount: 2
Fore
SplineSet
1008 478 m 1x801c0050
 1008 452 l 1
 980 452 l 1x801c00b0
 980 426 l 1
 952 426 l 1x802c0150
 952 400 l 1
 924 400 l 1x804c0290
 924 374 l 1
 896 374 l 1x804c0510
 896 348 l 1
 868 348 l 1x814c0a10
 868 322 l 1
 840 322 l 1x820c1410
 840 296 l 1
 812 296 l 1x840c2810
 812 270 l 1
 784 270 l 1x840c5010
 784 244 l 1
 756 244 l 1x940ca010
 756 218 l 1
 728 218 l 1xa00d4010
 728 192 l 1
 700 192 l 1
 700 42 l 1
 672 42 l 1
 672 194 l 1xc00e8010
 700 194 l 1
 700 220 l 1xc00d0010
 728 220 l 1xc00c8010
 728 246 l 1xa00c8010
 756 246 l 1xa00c4010
 756 272 l 1x900c4010
 784 272 l 1
 784 298 l 1x900c2010
 812 298 l 1
 812 324 l 1x940c1010
 840 324 l 1x940c0810
 840 350 l 1x820c0810
 868 350 l 1x820c0410
 868 376 l 1x810c0410
 896 376 l 1
 896 402 l 1x810c0210
 924 402 l 1
 924 428 l 1x814c0110
 952 428 l 1x814c0090
 952 454 l 1x802c0090
 980 454 l 1x802c0050
 980 480 l 1x801c0050
 1008 480 l 1
 1008 630 l 1
 1036 630 l 1
 1036 478 l 1x801c0030
 1008 478 l 1x801c0050
700 378 m 1x808d0010
 0 378 l 1
 0 406 l 1
 224 406 l 1
 224 602 l 1
 0 602 l 1
 0 630 l 1
 252 630 l 1
 252 406 l 1
 700 406 l 1
 700 378 l 1x808d0010
1260 70 m 1
 1708 70 l 1
 1708 42 l 1
 1232 42 l 1
 1232 266 l 1
 1008 266 l 1
 1008 294 l 1
 1260 294 l 1x880c0030
 1260 70 l 1
EndSplineSet
EndChar

StartChar: onequarter
Encoding: 188 188 68
Width: 1820
Flags: W
HStem: 42 21G<672 700 1680 1708> 42 21G<672 700 1680 1708> 154 28<1036 1680> 192 28<700 728> 218 28<728 756> 244 28<756 784> 270 28<784 812> 296 28<812 840> 322 28<840 868> 348 28<868 896> 378 28<0 224 252 700 896 924> 400 28<924 952> 426 28<952 980> 452 28<980 1008> 602 28<0 224>
VStem: 224 28<406 602> 672 28<42 192> 700 28<194 218> 728 28<220 244> 756 28<246 270> 784 28<272 296> 812 28<298 322> 840 28<324 348> 868 28<350 374> 896 28<376 400> 924 28<402 426> 952 28<428 452> 980 28<454 478> 1008 28<182 294 480 630> 1680 28<42 154 182 294>
LayerCount: 2
Fore
SplineSet
1008 478 m 1x20070014
 1008 452 l 1
 980 452 l 1x2007002c
 980 426 l 1
 952 426 l 1x200b0054
 952 400 l 1
 924 400 l 1x201300a4
 924 374 l 1
 896 374 l 1x20130144
 896 348 l 1
 868 348 l 1x20530284
 868 322 l 1
 840 322 l 1x20830504
 840 296 l 1
 812 296 l 1x21030a04
 812 270 l 1
 784 270 l 1x22031404
 784 244 l 1
 756 244 l 1x24032804
 756 218 l 1
 728 218 l 1x28035004
 728 192 l 1
 700 192 l 1
 700 42 l 1
 672 42 l 1
 672 194 l 1xb003a004
 700 194 l 1
 700 220 l 1xb0034004
 728 220 l 1xb0032004
 728 246 l 1x28032004
 756 246 l 1x28031004
 756 272 l 1x24031004
 784 272 l 1x24030804
 784 298 l 1x22030804
 812 298 l 1x22030404
 812 324 l 1x21030404
 840 324 l 1x21030204
 840 350 l 1x20830204
 868 350 l 1x20830104
 868 376 l 1x20430104
 896 376 l 1
 896 402 l 1x20430084
 924 402 l 1
 924 428 l 1x20530044
 952 428 l 1x20530024
 952 454 l 1x200b0024
 980 454 l 1x200b0014
 980 480 l 1x20070014
 1008 480 l 1
 1008 630 l 1
 1036 630 l 1
 1036 478 l 1x2007000c
 1008 478 l 1x20070014
700 378 m 1x20234004
 0 378 l 1
 0 406 l 1
 224 406 l 1
 224 602 l 1
 0 602 l 1
 0 630 l 1
 252 630 l 1
 252 406 l 1
 700 406 l 1
 700 378 l 1x20234004
1680 182 m 1
 1680 294 l 1
 1708 294 l 1
 1708 42 l 1
 1680 42 l 1
 1680 154 l 1
 1008 154 l 1
 1008 294 l 1
 1036 294 l 1
 1036 182 l 1xa003000c
 1680 182 l 1
EndSplineSet
EndChar

StartChar: guillemotright
Encoding: 187 187 69
Width: 1148
Flags: W
HStem: 154 28<0 370 560 930> 182 28<372 396 932 956> 210 28<398 422 958 982> 238 28<424 448 984 1008> 266 28<450 476 1010 1036> 294 28<424 448 984 1008> 322 28<398 422 958 982> 350 28<372 396 932 956> 378 28<0 370 560 930>
VStem: 370 28<182 210 350 378> 396 28<210 238 322 350> 422 28<238 266 294 322> 448 28<266 294> 930 28<182 210 350 378> 956 28<210 238 322 350> 982 28<238 266 294 322> 1008 28<266 294>
LayerCount: 2
Fore
SplineSet
450 322 m 1x0210
 450 294 l 1x0a10
 476 294 l 1
 476 266 l 1x0a08
 450 266 l 1x0a10
 450 238 l 1x1010
 424 238 l 1x1020
 424 210 l 1x2020
 398 210 l 1x2040
 398 182 l 1
 372 182 l 1x4040
 372 154 l 1
 0 154 l 1
 0 182 l 1
 370 182 l 1
 370 210 l 1xa040
 396 210 l 1
 396 238 l 1x5020
 422 238 l 1
 422 266 l 1x2810
 448 266 l 1
 448 294 l 1x1408
 422 294 l 1x1410
 422 322 l 1x0210
 396 322 l 1x0220
 396 350 l 1x0120
 370 350 l 1x0140
 370 378 l 1
 0 378 l 1
 0 406 l 1
 372 406 l 1x00c0
 372 378 l 1x0140
 398 378 l 1
 398 350 l 1x02c0
 424 350 l 1
 424 322 l 1x0520
 450 322 l 1x0210
1010 322 m 1x0201
 1010 294 l 1x0a01
 1036 294 l 1
 1036 266 l 1x0a0080
 1010 266 l 1x0a01
 1010 238 l 1x1001
 984 238 l 1x1002
 984 210 l 1x2002
 958 210 l 1x2004
 958 182 l 1
 932 182 l 1x4004
 932 154 l 1
 560 154 l 1
 560 182 l 1
 930 182 l 1
 930 210 l 1xa004
 956 210 l 1
 956 238 l 1x5002
 982 238 l 1
 982 266 l 1x2801
 1008 266 l 1
 1008 294 l 1x140080
 982 294 l 1x1401
 982 322 l 1x0201
 956 322 l 1x0202
 956 350 l 1x0102
 930 350 l 1x0104
 930 378 l 1
 560 378 l 1
 560 406 l 1
 932 406 l 1x0084
 932 378 l 1x0104
 958 378 l 1
 958 350 l 1x0284
 984 350 l 1
 984 322 l 1x0502
 1010 322 l 1x0201
EndSplineSet
EndChar

StartChar: ordmasculine
Encoding: 186 186 70
Width: 812
Flags: W
HStem: 42 28<0 700> 266 28<28 672> 490 28<28 672>
VStem: 0 28<294 490> 672 28<294 490>
CounterMasks: 1 e0
LayerCount: 2
Fore
SplineSet
0 518 m 1
 700 518 l 1
 700 266 l 1
 0 266 l 1
 0 518 l 1
672 294 m 1
 672 490 l 1
 28 490 l 1
 28 294 l 1
 672 294 l 1
0 42 m 1
 0 70 l 1
 700 70 l 1
 700 42 l 1
 0 42 l 1
EndSplineSet
EndChar

StartChar: uni00B9
Encoding: 185 185 71
Width: 812
Flags: W
HStem: 378 28<0 224 252 700> 602 28<0 224>
VStem: 224 28<406 602>
LayerCount: 2
Fore
SplineSet
252 406 m 1
 700 406 l 1
 700 378 l 1
 0 378 l 1
 0 406 l 1
 224 406 l 1
 224 602 l 1
 0 602 l 1
 0 630 l 1
 252 630 l 1
 252 406 l 1
EndSplineSet
EndChar

StartChar: cedilla
Encoding: 184 184 72
Width: 244
Flags: W
HStem: -182 28<0 26> -154 28<28 52> -126 28<54 78> -98 28<80 104> -70 28<106 132>
VStem: 0 28<-182 -154> 26 28<-154 -126> 52 28<-126 -98> 78 28<-98 -70> 104 28<-70 -42>
LayerCount: 2
Fore
SplineSet
104 -42 m 1x0840
 132 -42 l 1
 132 -70 l 1x0840
 106 -70 l 1x0880
 106 -98 l 1x1080
 80 -98 l 1x11
 80 -126 l 1x21
 54 -126 l 1x22
 54 -154 l 1x42
 28 -154 l 1x44
 28 -182 l 1
 0 -182 l 1
 0 -154 l 1x84
 26 -154 l 1
 26 -126 l 1xa2
 52 -126 l 1
 52 -98 l 1x51
 78 -98 l 1
 78 -70 l 1x2880
 104 -70 l 1x1040
 104 -42 l 1x0840
EndSplineSet
EndChar

StartChar: periodcentered
Encoding: 183 183 73
Width: 140
Flags: W
HStem: 378 28<0 28>
VStem: 0 28<378 406>
LayerCount: 2
Fore
SplineSet
0 378 m 1
 0 406 l 1
 28 406 l 1
 28 378 l 1
 0 378 l 1
EndSplineSet
EndChar

StartChar: paragraph
Encoding: 182 182 74
Width: 1372
Flags: W
HStem: 42 21G<112 140 1232 1260> 42 21G<112 140 1232 1260> 266 28<28 112> 490 28<28 1232>
VStem: 0 28<294 490> 112 28<42 266> 1232 28<42 490>
LayerCount: 2
Fore
SplineSet
0 518 m 1xbe
 1260 518 l 1
 1260 42 l 1
 1232 42 l 1
 1232 490 l 1
 28 490 l 1
 28 294 l 1
 140 294 l 1
 140 42 l 1
 112 42 l 1
 112 266 l 1
 0 266 l 1
 0 518 l 1xbe
EndSplineSet
EndChar

StartChar: mu
Encoding: 181 181 75
Width: 1148
Flags: W
HStem: 42 28<28 1008> 386 20G<0 28 1008 1036>
VStem: 0 28<-70 42 70 406> 1008 28<70 406>
LayerCount: 2
Fore
SplineSet
1008 406 m 1
 1036 406 l 1
 1036 42 l 1
 28 42 l 1
 28 -70 l 1
 0 -70 l 1
 0 406 l 1
 28 406 l 1
 28 70 l 1
 1008 70 l 1
 1008 406 l 1
EndSplineSet
EndChar

StartChar: acute
Encoding: 180 180 76
Width: 244
Flags: W
HStem: 490 28<0 26> 518 28<28 52> 546 28<54 78> 574 28<80 104> 602 28<106 132>
VStem: 0 28<490 518> 26 28<518 546> 52 28<546 574> 78 28<574 602> 104 28<602 630>
LayerCount: 2
Fore
SplineSet
104 602 m 1x1040
 104 630 l 1
 132 630 l 1
 132 602 l 1x0840
 106 602 l 1x0880
 106 574 l 1x1080
 80 574 l 1x11
 80 546 l 1x21
 54 546 l 1x22
 54 518 l 1x42
 28 518 l 1x44
 28 490 l 1
 0 490 l 1
 0 518 l 1x84
 26 518 l 1
 26 546 l 1xa2
 52 546 l 1
 52 574 l 1x51
 78 574 l 1
 78 602 l 1x2880
 104 602 l 1x1040
EndSplineSet
EndChar

StartChar: uni00B3
Encoding: 179 179 77
Width: 812
Flags: W
HStem: 378 28<0 672> 490 28<560 588> 602 28<0 672>
VStem: 560 28<490 518> 672 28<406 602>
CounterMasks: 1 e0
LayerCount: 2
Fore
SplineSet
560 490 m 1
 560 518 l 1
 588 518 l 1
 588 490 l 1
 560 490 l 1
0 630 m 1
 700 630 l 1
 700 378 l 1
 0 378 l 1
 0 406 l 1
 672 406 l 1
 672 602 l 1
 0 602 l 1
 0 630 l 1
EndSplineSet
EndChar

StartChar: uni00B2
Encoding: 178 178 78
Width: 812
Flags: W
HStem: 378 28<252 700> 602 28<0 224>
VStem: 224 28<406 602>
LayerCount: 2
Fore
SplineSet
252 406 m 1
 700 406 l 1
 700 378 l 1
 224 378 l 1
 224 602 l 1
 0 602 l 1
 0 630 l 1
 252 630 l 1
 252 406 l 1
EndSplineSet
EndChar

StartChar: plusminus
Encoding: 177 177 79
Width: 1036
Flags: W
HStem: 42 28<0 924> 378 28<0 448 476 924> 498 20G<448 476>
VStem: 448 28<266 378 406 518>
LayerCount: 2
Fore
SplineSet
0 42 m 1
 0 70 l 1
 924 70 l 1
 924 42 l 1
 0 42 l 1
476 406 m 1
 924 406 l 1
 924 378 l 1
 476 378 l 1
 476 266 l 1
 448 266 l 1
 448 378 l 1
 0 378 l 1
 0 406 l 1
 448 406 l 1
 448 518 l 1
 476 518 l 1
 476 406 l 1
EndSplineSet
EndChar

StartChar: degree
Encoding: 176 176 80
Width: 812
Flags: W
HStem: 378 28<28 672> 602 28<28 672>
VStem: 0 28<406 602> 672 28<406 602>
LayerCount: 2
Fore
SplineSet
0 630 m 1
 700 630 l 1
 700 378 l 1
 0 378 l 1
 0 630 l 1
672 406 m 1
 672 602 l 1
 28 602 l 1
 28 406 l 1
 672 406 l 1
EndSplineSet
EndChar

StartChar: macron
Encoding: 175 175 81
Width: 364
Flags: W
HStem: 602 28<0 252>
VStem: 0 252<602 630>
LayerCount: 2
Fore
SplineSet
0 602 m 1
 0 630 l 1
 252 630 l 1
 252 602 l 1
 0 602 l 1
EndSplineSet
EndChar

StartChar: registered
Encoding: 174 174 82
Width: 1484
Flags: W
HStem: -70 28<28 140 1232 1344> 42 28<778 1148> 70 28<752 776> 98 28<726 750> 126 28<700 724> 154 28<252 698> 378 28<252 1120> 602 28<28 1344>
VStem: 0 28<-42 602> 224 28<42 154 182 378> 698 28<126 154> 724 28<98 126> 750 28<70 98> 1120 28<266 378> 1344 28<-42 602>
LayerCount: 2
Fore
SplineSet
0 630 m 1x83c6
 1372 630 l 1
 1372 -70 l 1
 1232 -70 l 1
 1232 -42 l 1
 1344 -42 l 1
 1344 602 l 1
 28 602 l 1
 28 -42 l 1
 140 -42 l 1
 140 -70 l 1
 0 -70 l 1
 0 630 l 1x83c6
224 406 m 1
 1148 406 l 1
 1148 266 l 1
 1120 266 l 1
 1120 378 l 1
 252 378 l 1
 252 182 l 1
 700 182 l 1xc7e6
 700 154 l 1x8be6
 726 154 l 1
 726 126 l 1x97e6
 752 126 l 1
 752 98 l 1xabd6
 778 98 l 1
 778 70 l 1
 1148 70 l 1
 1148 42 l 1
 776 42 l 1xd3ce
 776 70 l 1
 750 70 l 1xa3ce
 750 98 l 1x93ce
 724 98 l 1x93d6
 724 126 l 1x8bd6
 698 126 l 1x8be6
 698 154 l 1
 252 154 l 1
 252 42 l 1
 224 42 l 1xc7e6
 224 406 l 1
EndSplineSet
EndChar

StartChar: logicalnot
Encoding: 172 172 83
Width: 1148
Flags: W
HStem: 42 21G<1008 1036> 42 21G<1008 1036> 266 28<0 1008>
VStem: 1008 28<42 266>
LayerCount: 2
Fore
SplineSet
0 294 m 1xb0
 1036 294 l 1
 1036 42 l 1
 1008 42 l 1
 1008 266 l 1
 0 266 l 1
 0 294 l 1xb0
EndSplineSet
EndChar

StartChar: guillemotleft
Encoding: 171 171 84
Width: 1148
Flags: W
HStem: 154 28<106 476 666 1036> 182 28<80 104 640 664> 210 28<54 78 614 638> 238 28<28 52 588 612> 266 28<0 26 560 586> 294 28<28 52 588 612> 322 28<54 78 614 638> 350 28<80 104 640 664> 378 28<106 476 666 1036>
VStem: 0 28<266 294> 26 28<238 266 294 322> 52 28<210 238 322 350> 78 28<182 210 350 378> 560 28<266 294> 586 28<238 266 294 322> 612 28<210 238 322 350> 638 28<182 210 350 378>
LayerCount: 2
Fore
SplineSet
664 406 m 1x008080
 1036 406 l 1
 1036 378 l 1
 666 378 l 1x008080
 666 350 l 1x010080
 640 350 l 1x0101
 640 322 l 1x0201
 614 322 l 1x0202
 614 294 l 1x0402
 588 294 l 1
 588 266 l 1x1404
 614 266 l 1
 614 238 l 1x2802
 640 238 l 1
 640 210 l 1x5001
 666 210 l 1
 666 182 l 1
 1036 182 l 1
 1036 154 l 1
 664 154 l 1xa00080
 664 182 l 1
 638 182 l 1x400080
 638 210 l 1x200080
 612 210 l 1x2001
 612 238 l 1x1001
 586 238 l 1x1002
 586 266 l 1x0802
 560 266 l 1
 560 294 l 1x0804
 586 294 l 1
 586 322 l 1x0a02
 612 322 l 1
 612 350 l 1x0501
 638 350 l 1
 638 378 l 1x028080
 664 378 l 1x010080
 664 406 l 1x008080
104 406 m 1
 476 406 l 1
 476 378 l 1
 106 378 l 1x0088
 106 350 l 1x0108
 80 350 l 1x0110
 80 322 l 1x0210
 54 322 l 1x0220
 54 294 l 1x0420
 28 294 l 1
 28 266 l 1x1440
 54 266 l 1
 54 238 l 1x2820
 80 238 l 1
 80 210 l 1x5010
 106 210 l 1
 106 182 l 1
 476 182 l 1
 476 154 l 1
 104 154 l 1xa008
 104 182 l 1
 78 182 l 1x4008
 78 210 l 1x2008
 52 210 l 1x2010
 52 238 l 1x1010
 26 238 l 1x1020
 26 266 l 1x0820
 0 266 l 1
 0 294 l 1x0840
 26 294 l 1
 26 322 l 1x0a20
 52 322 l 1
 52 350 l 1x0510
 78 350 l 1
 78 378 l 1x0288
 104 378 l 1x0108
 104 406 l 1
EndSplineSet
EndChar

StartChar: ordfeminine
Encoding: 170 170 85
Width: 812
Flags: W
HStem: 42 28<0 700> 378 28<28 672> 602 28<28 672>
VStem: 0 28<266 378 406 602> 672 28<266 378 406 602>
LayerCount: 2
Fore
SplineSet
0 630 m 1
 700 630 l 1
 700 266 l 1
 672 266 l 1
 672 378 l 1
 28 378 l 1
 28 266 l 1
 0 266 l 1
 0 630 l 1
672 406 m 1
 672 602 l 1
 28 602 l 1
 28 406 l 1
 672 406 l 1
0 42 m 1
 0 70 l 1
 700 70 l 1
 700 42 l 1
 0 42 l 1
EndSplineSet
EndChar

StartChar: copyright
Encoding: 169 169 86
Width: 1484
Flags: W
HStem: -70 28<28 1344> 154 28<252 1148> 378 28<252 1148> 602 28<28 1344>
VStem: 0 28<-42 602> 224 28<182 378> 1344 28<-42 602>
LayerCount: 2
Fore
SplineSet
0 630 m 1
 1372 630 l 1
 1372 -70 l 1
 0 -70 l 1
 0 630 l 1
1344 -42 m 1
 1344 602 l 1
 28 602 l 1
 28 -42 l 1
 1344 -42 l 1
224 406 m 1
 1148 406 l 1
 1148 378 l 1
 252 378 l 1
 252 182 l 1
 1148 182 l 1
 1148 154 l 1
 224 154 l 1
 224 406 l 1
EndSplineSet
EndChar

StartChar: dieresis
Encoding: 168 168 87
Width: 364
Flags: W
HStem: 602 28<0 28 224 252>
VStem: 0 28<602 630> 224 28<602 630>
LayerCount: 2
Fore
SplineSet
0 602 m 1
 0 630 l 1
 28 630 l 1
 28 602 l 1
 0 602 l 1
224 602 m 1
 224 630 l 1
 252 630 l 1
 252 602 l 1
 224 602 l 1
EndSplineSet
EndChar

StartChar: section
Encoding: 167 167 88
Width: 1244
Flags: W
HStem: -70 28<106 1104> -42 28<80 104> -14 28<54 78> 14 28<28 52> 42 28<0 26> 70 28<1080 1104> 98 28<1054 1078> 126 28<1028 1052> 154 28<210 1000> 182 28<184 208> 210 28<158 182> 238 28<132 156> 294 28<976 1000> 322 28<950 974> 350 28<924 948> 378 28<132 922> 406 28<80 104> 434 28<54 78> 462 28<28 52> 490 28<1106 1132> 518 28<1080 1104> 546 28<1054 1078> 574 28<1028 1052> 602 28<28 1026>
VStem: 0 28<42 70 490 602> 26 28<14 42 462 490> 52 28<-14 14 434 462> 78 28<-42 -14 406 434> 104 28<266 378> 130 28<238 266> 156 28<210 238> 182 28<182 210> 922 28<350 378> 948 28<322 350> 974 28<294 322> 1000 28<182 294> 1026 28<126 154 574 602> 1052 28<98 126 546 574> 1078 28<70 98 518 546> 1104 28<-42 70 490 518>
LayerCount: 2
Fore
SplineSet
1132 490 m 1x0000140001
 1104 490 l 1x0000140001
 1104 518 l 1x0000080001
 1078 518 l 1x0000080002
 1078 546 l 1x0000040002
 1052 546 l 1x0000040004
 1052 574 l 1x0000020004
 1026 574 l 1x0000020008
 1026 602 l 1
 28 602 l 1
 28 490 l 1x0000218008
 54 490 l 1
 54 462 l 1x00005040
 80 462 l 1
 80 434 l 1x0000a020
 106 434 l 1x00004010
 106 406 l 1
 924 406 l 1
 924 378 l 1x00028010
 950 378 l 1
 950 350 l 1x0005001080
 976 350 l 1
 976 322 l 1x000a000040
 1002 322 l 1x0004000020
 1002 294 l 1x0008000020
 1028 294 l 1
 1028 154 l 1x0108000010
 1054 154 l 1
 1054 126 l 1x0280000008
 1080 126 l 1
 1080 98 l 1x0500000004
 1106 98 l 1x0200000002
 1106 70 l 1x0400000002
 1132 70 l 1
 1132 -70 l 1
 104 -70 l 1x8400000801
 104 -42 l 1x4000000801
 78 -42 l 1x40000010
 78 -14 l 1x20000010
 52 -14 l 1x20000020
 52 14 l 1x10000020
 26 14 l 1x10000040
 26 42 l 1x08000040
 0 42 l 1
 0 70 l 1x08000080
 28 70 l 1
 28 42 l 1x14000080
 54 42 l 1
 54 14 l 1x28000040
 80 14 l 1
 80 -14 l 1x50000020
 106 -14 l 1
 106 -42 l 1
 1104 -42 l 1
 1104 70 l 1xa400001001
 1078 70 l 1xa400000002
 1078 98 l 1x0200000002
 1052 98 l 1x0200000004
 1052 126 l 1x0100000004
 1026 126 l 1x0100000008
 1026 154 l 1
 208 154 l 1x0080000008
 208 182 l 1
 182 182 l 1x0040000108
 182 210 l 1x0020000108
 156 210 l 1x00200002
 156 238 l 1x00100002
 130 238 l 1
 130 266 l 1x00100004
 104 266 l 1
 104 406 l 1x00108008
 78 406 l 1x00108010
 78 434 l 1x00004010
 52 434 l 1x00004020
 52 462 l 1x00002020
 26 462 l 1x00002040
 26 490 l 1x00001040
 0 490 l 1
 0 630 l 1
 1028 630 l 1x0000118010
 1028 602 l 1x0000028010
 1054 602 l 1
 1054 574 l 1x0000050008
 1080 574 l 1
 1080 546 l 1x00000a0004
 1106 546 l 1
 1106 518 l 1x0000140002
 1132 518 l 1
 1132 490 l 1x0000140001
922 378 m 1x0001000080
 132 378 l 1
 132 266 l 1x0011000880
 158 266 l 1x00110004
 158 238 l 1x00200004
 184 238 l 1
 184 210 l 1x00500002
 210 210 l 1
 210 182 l 1
 1000 182 l 1
 1000 294 l 1x00a8000110
 974 294 l 1x00a8000020
 974 322 l 1x0004000020
 948 322 l 1x0004000040
 948 350 l 1x0002000040
 922 350 l 1x0002000080
 922 378 l 1x0001000080
EndSplineSet
EndChar

StartChar: brokenbar
Encoding: 166 166 89
Width: 140
Flags: W
VStem: 0 28<-182 182 378 742>
LayerCount: 2
Fore
SplineSet
0 378 m 1
 0 742 l 1
 28 742 l 1
 28 378 l 1
 0 378 l 1
0 -182 m 1
 0 182 l 1
 28 182 l 1
 28 -182 l 1
 0 -182 l 1
EndSplineSet
EndChar

StartChar: yen
Encoding: 165 165 90
Width: 1260
Flags: W
HStem: 42 28<0 560 588 1148> 266 28<28 560 588 1042> 294 28<1044 1068> 322 28<1070 1094> 350 28<1096 1120> 498 20G<0 28 1120 1148>
VStem: 0 28<294 518> 560 28<70 266> 1042 28<294 322> 1068 28<322 350> 1094 28<350 378> 1120 28<378 518>
LayerCount: 2
Fore
SplineSet
1120 518 m 1x8f10
 1148 518 l 1
 1148 378 l 1x8f10
 1122 378 l 1
 1122 350 l 1x8f20
 1096 350 l 1x8f40
 1096 322 l 1x9740
 1070 322 l 1x9780
 1070 294 l 1
 1044 294 l 1xa780
 1044 266 l 1
 588 266 l 1
 588 70 l 1
 1148 70 l 1
 1148 42 l 1
 0 42 l 1
 0 70 l 1
 560 70 l 1
 560 266 l 1
 0 266 l 1
 0 518 l 1
 28 518 l 1
 28 294 l 1
 1042 294 l 1
 1042 322 l 1xd790
 1068 322 l 1
 1068 350 l 1xaf40
 1094 350 l 1x9720
 1094 378 l 1x8f20
 1120 378 l 1
 1120 518 l 1x8f10
EndSplineSet
EndChar

StartChar: currency
Encoding: 164 164 91
Width: 1020
Flags: W
HStem: 42 28<0 26 882 908> 70 28<28 52 856 880> 98 28<54 78 830 854> 126 28<80 104 804 828> 406 28<80 104 804 828> 434 28<54 78 830 854> 462 28<28 52 856 880> 490 28<0 26 882 908>
VStem: 0 28<42 70 490 518> 26 28<70 98 462 490> 52 28<98 126 434 462> 78 28<126 154 406 434> 802 28<126 154 406 434> 828 28<98 126 434 462> 854 28<70 98 462 490> 880 28<42 70 490 518>
LayerCount: 2
Fore
SplineSet
804 406 m 1x0808
 804 154 l 1
 830 154 l 1x1808
 830 126 l 1x2008
 856 126 l 1
 856 98 l 1x5004
 882 98 l 1
 882 70 l 1xa002
 908 70 l 1
 908 42 l 1
 880 42 l 1xa001
 880 70 l 1x4001
 854 70 l 1x4002
 854 98 l 1x2002
 828 98 l 1x2004
 828 126 l 1x1004
 802 126 l 1
 802 154 l 1
 106 154 l 1
 106 126 l 1x1018
 80 126 l 1x1020
 80 98 l 1x2020
 54 98 l 1x2040
 54 70 l 1x4040
 28 70 l 1x4080
 28 42 l 1
 0 42 l 1
 0 70 l 1x8080
 26 70 l 1
 26 98 l 1xa040
 52 98 l 1
 52 126 l 1x5020
 78 126 l 1x2010
 78 154 l 1
 104 154 l 1
 104 406 l 1
 78 406 l 1x1810
 78 434 l 1x0410
 52 434 l 1x0420
 52 462 l 1x0220
 26 462 l 1x0240
 26 490 l 1x0140
 0 490 l 1
 0 518 l 1
 28 518 l 1x0180
 28 490 l 1x0280
 54 490 l 1
 54 462 l 1x0540
 80 462 l 1
 80 434 l 1x0a20
 106 434 l 1x0410
 106 406 l 1
 802 406 l 1x0818
 802 434 l 1x0418
 828 434 l 1
 828 462 l 1x0a04
 854 462 l 1
 854 490 l 1x0502
 880 490 l 1x0201
 880 518 l 1
 908 518 l 1
 908 490 l 1x0101
 882 490 l 1x0102
 882 462 l 1x0202
 856 462 l 1x0204
 856 434 l 1x0404
 830 434 l 1x0408
 830 406 l 1
 804 406 l 1x0808
132 182 m 1
 776 182 l 1
 776 378 l 1
 132 378 l 1
 132 182 l 1
EndSplineSet
EndChar

StartChar: sterling
Encoding: 163 163 92
Width: 1372
Flags: W
HStem: 42 28<0 112 140 1260> 266 28<0 112 140 588> 378 28<1234 1260> 406 28<140 164 1208 1232> 434 28<166 190 1182 1206> 462 28<192 216 1156 1180> 490 28<218 1154>
VStem: 112 28<70 266 294 406> 138 28<406 434> 164 28<434 462> 190 28<462 490> 1154 28<462 490> 1180 28<434 462> 1206 28<406 434> 1232 28<378 406>
LayerCount: 2
Fore
SplineSet
1260 378 m 1xe802
 1232 378 l 1xe802
 1232 406 l 1xd002
 1206 406 l 1xd004
 1206 434 l 1xc804
 1180 434 l 1xc808
 1180 462 l 1xc408
 1154 462 l 1xc410
 1154 490 l 1
 218 490 l 1xc230
 218 462 l 1xc430
 192 462 l 1xc440
 192 434 l 1xc840
 166 434 l 1xc880
 166 406 l 1xd080
 140 406 l 1
 140 294 l 1
 588 294 l 1
 588 266 l 1
 140 266 l 1
 140 70 l 1
 1260 70 l 1
 1260 42 l 1
 0 42 l 1
 0 70 l 1
 112 70 l 1
 112 266 l 1
 0 266 l 1
 0 294 l 1
 112 294 l 1
 112 406 l 1xd102
 138 406 l 1xd080
 138 434 l 1xc880
 164 434 l 1
 164 462 l 1xd440
 190 462 l 1
 190 490 l 1xca20
 216 490 l 1xc420
 216 518 l 1
 1156 518 l 1xc220
 1156 490 l 1xc420
 1182 490 l 1
 1182 462 l 1xca30
 1208 462 l 1
 1208 434 l 1xd408
 1234 434 l 1
 1234 406 l 1xe804
 1260 406 l 1
 1260 378 l 1xe802
EndSplineSet
EndChar

StartChar: cent
Encoding: 162 162 93
Width: 1260
Flags: W
HStem: 42 28<106 560 588 1042> 70 28<80 104 1044 1068> 98 28<54 78 1070 1094> 126 28<28 52 1096 1120> 154 28<1122 1148> 378 28<1122 1148> 406 28<28 52 1096 1120> 434 28<54 78 1070 1094> 462 28<80 104 1044 1068> 490 28<106 560 588 1042>
VStem: 0 28<154 406> 26 28<126 154 406 434> 52 28<98 126 434 462> 78 28<70 98 462 490> 560 28<-70 42 518 630> 1042 28<70 98 462 490> 1068 28<98 126 434 462> 1094 28<126 154 406 434> 1120 28<154 182 378 406>
LayerCount: 2
Fore
SplineSet
1148 378 m 1x050220
 1120 378 l 1x050220
 1120 406 l 1x020220
 1094 406 l 1x020240
 1094 434 l 1x010240
 1068 434 l 1x010280
 1068 462 l 1x008280
 1042 462 l 1x0083
 1042 490 l 1
 106 490 l 1x0047
 106 462 l 1x0087
 80 462 l 1x008a
 80 434 l 1x010a
 54 434 l 1x0112
 54 406 l 1x0212
 28 406 l 1
 28 154 l 1x1222
 54 154 l 1
 54 126 l 1x2812
 80 126 l 1
 80 98 l 1x500a
 106 98 l 1
 106 70 l 1
 1042 70 l 1
 1042 98 l 1xa007
 1068 98 l 1
 1068 126 l 1x500280
 1094 126 l 1
 1094 154 l 1x280240
 1120 154 l 1x100220
 1120 182 l 1
 1148 182 l 1
 1148 154 l 1x080220
 1122 154 l 1x080240
 1122 126 l 1x100240
 1096 126 l 1x100280
 1096 98 l 1x200280
 1070 98 l 1x2003
 1070 70 l 1
 1044 70 l 1x4003
 1044 42 l 1
 588 42 l 1
 588 -70 l 1
 560 -70 l 1
 560 42 l 1
 104 42 l 1x8003
 104 70 l 1
 78 70 l 1x4007
 78 98 l 1x2007
 52 98 l 1x200a
 52 126 l 1x100a
 26 126 l 1x1012
 26 154 l 1x0812
 0 154 l 1
 0 406 l 1x0a22
 26 406 l 1x0a12
 26 434 l 1x0112
 52 434 l 1
 52 462 l 1x028a
 78 462 l 1
 78 490 l 1x0146
 104 490 l 1x0086
 104 518 l 1
 560 518 l 1
 560 630 l 1
 588 630 l 1
 588 518 l 1
 1044 518 l 1x0046
 1044 490 l 1x0086
 1070 490 l 1
 1070 462 l 1x0147
 1096 462 l 1
 1096 434 l 1x028280
 1122 434 l 1
 1122 406 l 1x050240
 1148 406 l 1
 1148 378 l 1x050220
EndSplineSet
EndChar

StartChar: exclamdown
Encoding: 161 161 94
Width: 140
Flags: W
HStem: 378 28<0 28>
VStem: 0 28<-182 182 378 406>
LayerCount: 2
Fore
SplineSet
0 378 m 1
 0 406 l 1
 28 406 l 1
 28 378 l 1
 0 378 l 1
0 -182 m 1
 0 182 l 1
 28 182 l 1
 28 -182 l 1
 0 -182 l 1
EndSplineSet
EndChar

StartChar: asciitilde
Encoding: 126 126 95
Width: 1036
Flags: W
HStem: 266 28<558 896> 294 28<532 556> 322 28<506 530> 350 28<480 504> 378 28<28 478>
VStem: 0 28<266 378> 478 28<350 378> 504 28<322 350> 530 28<294 322> 896 28<294 406>
LayerCount: 2
Fore
SplineSet
896 406 m 1xacc0
 924 406 l 1
 924 266 l 1
 556 266 l 1xacc0
 556 294 l 1
 530 294 l 1x44c0
 530 322 l 1x24c0
 504 322 l 1x2540
 504 350 l 1x1540
 478 350 l 1x1640
 478 378 l 1
 28 378 l 1
 28 266 l 1
 0 266 l 1
 0 406 l 1
 480 406 l 1x8e40
 480 378 l 1x1640
 506 378 l 1
 506 350 l 1x2e40
 532 350 l 1
 532 322 l 1x5540
 558 322 l 1
 558 294 l 1
 896 294 l 1
 896 406 l 1xacc0
EndSplineSet
EndChar

StartChar: braceright
Encoding: 125 125 96
Width: 356
Flags: W
HStem: -182 28<0 112> 182 28<140 164> 210 28<166 190> 238 28<192 216> 266 28<218 244> 294 28<192 216> 322 28<166 190> 350 28<140 164> 714 28<0 112>
VStem: 112 28<-154 182 378 714> 138 28<182 210 350 378> 164 28<210 238 322 350> 190 28<238 266 294 322> 216 28<266 294>
LayerCount: 2
Fore
SplineSet
218 294 m 1x8a88
 244 294 l 1
 244 266 l 1x8a84
 218 266 l 1x8a88
 218 238 l 1x9088
 192 238 l 1x9090
 192 210 l 1xa090
 166 210 l 1xa0a0
 166 182 l 1xc0a0
 140 182 l 1
 140 -182 l 1
 0 -182 l 1
 0 -154 l 1
 112 -154 l 1
 112 182 l 1xc0c0
 138 182 l 1xc0a0
 138 210 l 1xa0a0
 164 210 l 1
 164 238 l 1xd090
 190 238 l 1
 190 266 l 1xa888
 216 266 l 1
 216 294 l 1x9484
 190 294 l 1x9488
 190 322 l 1x8288
 164 322 l 1x8290
 164 350 l 1x8190
 138 350 l 1
 138 378 l 1x81a0
 112 378 l 1
 112 714 l 1
 0 714 l 1
 0 742 l 1
 140 742 l 1
 140 378 l 1x81c0
 166 378 l 1x81a0
 166 350 l 1x82a0
 192 350 l 1
 192 322 l 1x8590
 218 322 l 1
 218 294 l 1x8a88
EndSplineSet
EndChar

StartChar: bar
Encoding: 124 124 97
Width: 140
Flags: W
VStem: 0 28<-182 742>
LayerCount: 2
Fore
SplineSet
0 -182 m 1
 0 742 l 1
 28 742 l 1
 28 -182 l 1
 0 -182 l 1
EndSplineSet
EndChar

StartChar: braceleft
Encoding: 123 123 98
Width: 356
Flags: W
HStem: -182 28<132 244> 182 28<80 104> 210 28<54 78> 238 28<28 52> 266 28<0 26> 294 28<28 52> 322 28<54 78> 350 28<80 104> 714 28<132 244>
VStem: 0 28<266 294> 26 28<238 266 294 322> 52 28<210 238 322 350> 78 28<182 210 350 378> 104 28<-154 182 378 714>
LayerCount: 2
Fore
SplineSet
104 742 m 1x8184
 244 742 l 1
 244 714 l 1
 132 714 l 1
 132 378 l 1x8184
 106 378 l 1
 106 350 l 1x8188
 80 350 l 1x8190
 80 322 l 1x8290
 54 322 l 1x82a0
 54 294 l 1x84a0
 28 294 l 1
 28 266 l 1x94c0
 54 266 l 1
 54 238 l 1xa8a0
 80 238 l 1
 80 210 l 1xd090
 106 210 l 1xa088
 106 182 l 1xc088
 132 182 l 1
 132 -154 l 1
 244 -154 l 1
 244 -182 l 1
 104 -182 l 1
 104 182 l 1xc084
 78 182 l 1xc088
 78 210 l 1xa088
 52 210 l 1xa090
 52 238 l 1x9090
 26 238 l 1x90a0
 26 266 l 1x88a0
 0 266 l 1
 0 294 l 1x88c0
 26 294 l 1
 26 322 l 1x8aa0
 52 322 l 1
 52 350 l 1x8590
 78 350 l 1x8288
 78 378 l 1x8188
 104 378 l 1
 104 742 l 1x8184
EndSplineSet
EndChar

StartChar: z
Encoding: 122 122 99
Width: 1148
Flags: W
HStem: -70 28<28 476> 154 28<28 1008> 378 28<0 1008>
VStem: 0 28<-42 154> 1008 28<182 378>
CounterMasks: 1 e0
LayerCount: 2
Fore
SplineSet
0 406 m 1
 1036 406 l 1
 1036 154 l 1
 28 154 l 1
 28 -42 l 1
 476 -42 l 1
 476 -70 l 1
 0 -70 l 1
 0 182 l 1
 1008 182 l 1
 1008 378 l 1
 0 378 l 1
 0 406 l 1
EndSplineSet
EndChar

StartChar: y
Encoding: 121 121 100
Width: 1148
Flags: W
HStem: -70 28<560 1008> 154 28<28 1008> 386 20G<0 28 1008 1036>
VStem: 0 28<182 406> 1008 28<-42 154 182 406>
LayerCount: 2
Fore
SplineSet
1008 182 m 1
 1008 406 l 1
 1036 406 l 1
 1036 -70 l 1
 560 -70 l 1
 560 -42 l 1
 1008 -42 l 1
 1008 154 l 1
 0 154 l 1
 0 406 l 1
 28 406 l 1
 28 182 l 1
 1008 182 l 1
EndSplineSet
EndChar

StartChar: x
Encoding: 120 120 101
Width: 1260
Flags: W
HStem: 42 28<0 448 700 1148> 378 28<0 448 700 1148>
VStem: 448 28<70 378> 672 28<70 378>
LayerCount: 2
Fore
SplineSet
672 406 m 1
 1148 406 l 1
 1148 378 l 1
 700 378 l 1
 700 70 l 1
 1148 70 l 1
 1148 42 l 1
 672 42 l 1
 672 406 l 1
0 406 m 1
 476 406 l 1
 476 42 l 1
 0 42 l 1
 0 70 l 1
 448 70 l 1
 448 378 l 1
 0 378 l 1
 0 406 l 1
EndSplineSet
EndChar

StartChar: w
Encoding: 119 119 102
Width: 1484
Flags: W
HStem: 42 28<28 672 700 1344> 386 20G<0 28 672 700 1344 1372>
VStem: 0 28<70 406> 672 28<70 406> 1344 28<70 406>
CounterMasks: 1 38
LayerCount: 2
Fore
SplineSet
1344 406 m 1
 1372 406 l 1
 1372 42 l 1
 0 42 l 1
 0 406 l 1
 28 406 l 1
 28 70 l 1
 672 70 l 1
 672 406 l 1
 700 406 l 1
 700 70 l 1
 1344 70 l 1
 1344 406 l 1
EndSplineSet
EndChar

StartChar: v
Encoding: 118 118 103
Width: 1148
Flags: W
HStem: 42 28<28 482> 70 28<484 508> 98 28<510 534> 126 28<536 560> 154 28<562 1008> 386 20G<0 28 1008 1036>
VStem: 0 28<70 406> 482 28<70 98> 508 28<98 126> 534 28<126 154> 1008 28<182 406>
LayerCount: 2
Fore
SplineSet
1008 182 m 1x0e60
 1008 406 l 1
 1036 406 l 1
 1036 154 l 1
 562 154 l 1x0e60
 562 126 l 1x1660
 536 126 l 1x16a0
 536 98 l 1x26a0
 510 98 l 1x2720
 510 70 l 1
 484 70 l 1x4720
 484 42 l 1
 0 42 l 1
 0 406 l 1
 28 406 l 1
 28 70 l 1
 482 70 l 1
 482 98 l 1xa720
 508 98 l 1
 508 126 l 1x56a0
 534 126 l 1
 534 154 l 1x2e60
 560 154 l 1x1660
 560 182 l 1
 1008 182 l 1x0e60
EndSplineSet
EndChar

StartChar: u
Encoding: 117 117 104
Width: 1148
Flags: W
HStem: 42 28<28 1008> 386 20G<0 28 1008 1036>
VStem: 0 28<70 406> 1008 28<70 406>
LayerCount: 2
Fore
SplineSet
1008 70 m 1
 1008 406 l 1
 1036 406 l 1
 1036 42 l 1
 0 42 l 1
 0 406 l 1
 28 406 l 1
 28 70 l 1
 1008 70 l 1
EndSplineSet
EndChar

StartChar: t
Encoding: 116 116 105
Width: 1148
Flags: W
HStem: 42 28<28 1008> 378 28<28 1036> 498 20G<0 28>
VStem: 0 28<70 378 406 518> 1008 28<70 182>
LayerCount: 2
Fore
SplineSet
28 406 m 1
 1036 406 l 1
 1036 378 l 1
 28 378 l 1
 28 70 l 1
 1008 70 l 1
 1008 182 l 1
 1036 182 l 1
 1036 42 l 1
 0 42 l 1
 0 518 l 1
 28 518 l 1
 28 406 l 1
EndSplineSet
EndChar

StartChar: s
Encoding: 115 115 106
Width: 1148
Flags: W
HStem: -70 28<560 1008> 154 28<28 1008> 378 28<28 1036>
VStem: 0 28<182 378> 1008 28<-42 154>
CounterMasks: 1 e0
LayerCount: 2
Fore
SplineSet
28 378 m 1
 28 182 l 1
 1036 182 l 1
 1036 -70 l 1
 560 -70 l 1
 560 -42 l 1
 1008 -42 l 1
 1008 154 l 1
 0 154 l 1
 0 406 l 1
 1036 406 l 1
 1036 378 l 1
 28 378 l 1
EndSplineSet
EndChar

StartChar: r
Encoding: 114 114 107
Width: 1148
Flags: W
HStem: 42 21G<0 28> 42 21G<0 28> 378 28<28 1008>
VStem: 0 28<42 378> 1008 28<266 378>
LayerCount: 2
Fore
SplineSet
0 406 m 1xb8
 1036 406 l 1
 1036 266 l 1
 1008 266 l 1
 1008 378 l 1
 28 378 l 1
 28 42 l 1
 0 42 l 1
 0 406 l 1xb8
EndSplineSet
EndChar

StartChar: q
Encoding: 113 113 108
Width: 1148
Flags: W
HStem: 42 28<28 1008> 378 28<28 1008>
VStem: 0 28<70 378> 1008 28<-70 42 70 378>
LayerCount: 2
Fore
SplineSet
0 406 m 1
 1036 406 l 1
 1036 -70 l 1
 1008 -70 l 1
 1008 42 l 1
 0 42 l 1
 0 406 l 1
1008 70 m 1
 1008 378 l 1
 28 378 l 1
 28 70 l 1
 1008 70 l 1
EndSplineSet
EndChar

StartChar: p
Encoding: 112 112 109
Width: 1148
Flags: W
HStem: 42 28<28 1008> 378 28<28 1008>
VStem: 0 28<-70 42 70 378> 1008 28<70 378>
LayerCount: 2
Fore
SplineSet
0 406 m 1
 1036 406 l 1
 1036 42 l 1
 28 42 l 1
 28 -70 l 1
 0 -70 l 1
 0 406 l 1
1008 70 m 1
 1008 378 l 1
 28 378 l 1
 28 70 l 1
 1008 70 l 1
EndSplineSet
EndChar

StartChar: o
Encoding: 111 111 110
Width: 1148
Flags: W
HStem: 42 28<28 1008> 378 28<28 1008>
VStem: 0 28<70 378> 1008 28<70 378>
LayerCount: 2
Fore
SplineSet
0 406 m 1
 1036 406 l 1
 1036 42 l 1
 0 42 l 1
 0 406 l 1
1008 70 m 1
 1008 378 l 1
 28 378 l 1
 28 70 l 1
 1008 70 l 1
EndSplineSet
EndChar

StartChar: n
Encoding: 110 110 111
Width: 1148
Flags: W
HStem: 42 21G<0 28 1008 1036> 42 21G<0 28 1008 1036> 378 28<28 1008>
VStem: 0 28<42 378> 1008 28<42 378>
LayerCount: 2
Fore
SplineSet
0 406 m 1xb8
 1036 406 l 1
 1036 42 l 1
 1008 42 l 1
 1008 378 l 1
 28 378 l 1
 28 42 l 1
 0 42 l 1
 0 406 l 1xb8
EndSplineSet
EndChar

StartChar: m
Encoding: 109 109 112
Width: 1484
Flags: W
HStem: 42 21G<0 28 672 700 1344 1372> 42 21G<0 28 672 700 1344 1372> 378 28<28 672 700 1344>
VStem: 0 28<42 378> 672 28<42 378> 1344 28<42 378>
CounterMasks: 1 1c
LayerCount: 2
Fore
SplineSet
0 406 m 1xbc
 1372 406 l 1
 1372 42 l 1
 1344 42 l 1
 1344 378 l 1
 700 378 l 1
 700 42 l 1
 672 42 l 1
 672 378 l 1
 28 378 l 1
 28 42 l 1
 0 42 l 1
 0 406 l 1xbc
EndSplineSet
EndChar

StartChar: l
Encoding: 108 108 113
Width: 1148
Flags: W
HStem: 42 28<28 1008> 498 20G<0 28>
VStem: 0 28<70 518> 1008 28<70 182>
LayerCount: 2
Fore
SplineSet
1008 70 m 1
 1008 182 l 1
 1036 182 l 1
 1036 42 l 1
 0 42 l 1
 0 518 l 1
 28 518 l 1
 28 70 l 1
 1008 70 l 1
EndSplineSet
EndChar

StartChar: k
Encoding: 107 107 114
Width: 1148
Flags: W
HStem: 42 28<476 1036> 182 28<424 448> 210 28<398 422> 238 28<372 396> 266 28<28 370> 294 28<372 396> 322 28<398 422> 350 28<424 448> 378 28<450 1036> 498 20G<0 28>
VStem: 0 28<42 266 294 518> 370 28<238 266 294 322> 396 28<210 238 322 350> 422 28<182 210 350 378> 448 28<70 182>
LayerCount: 2
Fore
SplineSet
448 406 m 1x80e2
 1036 406 l 1
 1036 378 l 1
 450 378 l 1x80e4
 450 350 l 1x8164
 424 350 l 1x8168
 424 322 l 1x8268
 398 322 l 1x8270
 398 294 l 1
 372 294 l 1
 372 266 l 1x9470
 398 266 l 1
 398 238 l 1xa870
 424 238 l 1
 424 210 l 1xd068
 450 210 l 1xa064
 450 182 l 1xc064
 476 182 l 1
 476 70 l 1
 1036 70 l 1
 1036 42 l 1
 448 42 l 1
 448 182 l 1xc062
 422 182 l 1xc064
 422 210 l 1xa064
 396 210 l 1xa068
 396 238 l 1x9068
 370 238 l 1x9070
 370 266 l 1
 28 266 l 1
 28 42 l 1
 0 42 l 1
 0 518 l 1
 28 518 l 1
 28 294 l 1
 370 294 l 1
 370 322 l 1x8a70
 396 322 l 1
 396 350 l 1x8568
 422 350 l 1
 422 378 l 1x82e4
 448 378 l 1x8162
 448 406 l 1x80e2
EndSplineSet
EndChar

StartChar: j
Encoding: 106 106 115
Width: 1148
Flags: W
HStem: -70 28<554 1008> -42 28<528 552> -14 28<502 526> 14 28<476 500> 42 28<28 474> 378 28<0 1008>
VStem: 0 28<70 182> 474 28<14 42> 500 28<-14 14> 526 28<-42 -14> 1008 28<-42 378>
LayerCount: 2
Fore
SplineSet
0 406 m 1xa660
 1036 406 l 1
 1036 -70 l 1
 552 -70 l 1xa660
 552 -42 l 1
 526 -42 l 1x4660
 526 -14 l 1x2660
 500 -14 l 1x26a0
 500 14 l 1x16a0
 474 14 l 1x1720
 474 42 l 1
 0 42 l 1
 0 182 l 1
 28 182 l 1
 28 70 l 1
 476 70 l 1x0f20
 476 42 l 1x1720
 502 42 l 1
 502 14 l 1x2f20
 528 14 l 1
 528 -14 l 1x56a0
 554 -14 l 1
 554 -42 l 1
 1008 -42 l 1
 1008 378 l 1
 0 378 l 1
 0 406 l 1xa660
EndSplineSet
EndChar

StartChar: i
Encoding: 105 105 116
Width: 140
Flags: W
HStem: 42 21G<0 28> 42 21G<0 28> 386 20G<0 28> 602 28<0 28>
VStem: 0 28<42 406 602 630>
LayerCount: 2
Fore
SplineSet
0 602 m 5x38
 0 630 l 5
 28 630 l 5
 28 602 l 5
 0 602 l 5x38
0 42 m 1xb8
 0 406 l 1
 28 406 l 1
 28 42 l 1
 0 42 l 1xb8
EndSplineSet
EndChar

StartChar: h
Encoding: 104 104 117
Width: 1148
Flags: W
HStem: 42 21G<0 28 1008 1036> 42 21G<0 28 1008 1036> 378 28<28 1008> 498 20G<0 28>
VStem: 0 28<42 378 406 518> 1008 28<42 378>
LayerCount: 2
Fore
SplineSet
28 406 m 1xbc
 1036 406 l 1
 1036 42 l 1
 1008 42 l 1
 1008 378 l 1
 28 378 l 1
 28 42 l 1
 0 42 l 1
 0 518 l 1
 28 518 l 1
 28 406 l 1xbc
EndSplineSet
EndChar

StartChar: g
Encoding: 103 103 118
Width: 1148
Flags: W
HStem: -182 28<560 1008> 42 28<28 1008> 378 28<28 1008>
VStem: 0 28<70 378> 1008 28<-154 42 70 378>
LayerCount: 2
Fore
SplineSet
0 406 m 1
 1036 406 l 1
 1036 -182 l 1
 560 -182 l 1
 560 -154 l 1
 1008 -154 l 1
 1008 42 l 1
 0 42 l 1
 0 406 l 1
1008 70 m 1
 1008 378 l 1
 28 378 l 1
 28 70 l 1
 1008 70 l 1
EndSplineSet
EndChar

StartChar: f
Encoding: 102 102 119
Width: 1148
Flags: W
HStem: 42 28<28 1036> 378 28<28 1008>
VStem: 0 28<-70 42 70 378> 1008 28<266 378>
LayerCount: 2
Fore
SplineSet
0 406 m 1
 1036 406 l 1
 1036 266 l 1
 1008 266 l 1
 1008 378 l 1
 28 378 l 1
 28 70 l 1
 1036 70 l 1
 1036 42 l 1
 28 42 l 1
 28 -70 l 1
 0 -70 l 1
 0 406 l 1
EndSplineSet
EndChar

StartChar: e
Encoding: 101 101 120
Width: 1148
Flags: W
HStem: -70 28<28 476> 154 28<224 1008> 378 28<28 1008>
VStem: 0 28<-42 378> 1008 28<182 378>
CounterMasks: 1 e0
LayerCount: 2
Fore
SplineSet
0 406 m 1
 1036 406 l 1
 1036 154 l 1
 224 154 l 1
 224 182 l 1
 1008 182 l 1
 1008 378 l 1
 28 378 l 1
 28 -42 l 1
 476 -42 l 1
 476 -70 l 1
 0 -70 l 1
 0 406 l 1
EndSplineSet
EndChar

StartChar: d
Encoding: 100 100 121
Width: 1148
Flags: W
HStem: 42 28<28 1008> 378 28<28 1008> 498 20G<1008 1036>
VStem: 0 28<70 378> 1008 28<70 378 406 518>
LayerCount: 2
Fore
SplineSet
1008 406 m 1
 1008 518 l 1
 1036 518 l 1
 1036 42 l 1
 0 42 l 1
 0 406 l 1
 1008 406 l 1
1008 70 m 1
 1008 378 l 1
 28 378 l 1
 28 70 l 1
 1008 70 l 1
EndSplineSet
EndChar

StartChar: c
Encoding: 99 99 122
Width: 1148
Flags: W
HStem: 42 28<28 1036> 378 28<28 1036>
VStem: 0 28<70 378>
LayerCount: 2
Fore
SplineSet
0 406 m 1
 1036 406 l 1
 1036 378 l 1
 28 378 l 1
 28 70 l 1
 1036 70 l 1
 1036 42 l 1
 0 42 l 1
 0 406 l 1
EndSplineSet
EndChar

StartChar: b
Encoding: 98 98 123
Width: 1148
Flags: W
HStem: 42 28<28 1008> 378 28<28 1008> 498 20G<0 28>
VStem: 0 28<70 378 406 518> 1008 28<70 378>
LayerCount: 2
Fore
SplineSet
28 406 m 1
 1036 406 l 1
 1036 42 l 1
 0 42 l 1
 0 518 l 1
 28 518 l 1
 28 406 l 1
1008 70 m 1
 1008 378 l 1
 28 378 l 1
 28 70 l 1
 1008 70 l 1
EndSplineSet
EndChar

StartChar: a
Encoding: 97 97 124
Width: 1148
Flags: W
HStem: 42 28<28 812> 378 28<28 1008>
VStem: 0 28<70 378> 1008 28<42 378>
LayerCount: 2
Fore
SplineSet
0 406 m 1
 1036 406 l 1
 1036 42 l 1
 1008 42 l 1
 1008 378 l 1
 28 378 l 1
 28 70 l 1
 812 70 l 1
 812 42 l 1
 0 42 l 1
 0 406 l 1
EndSplineSet
EndChar

StartChar: grave
Encoding: 96 96 125
Width: 244
Flags: W
HStem: 490 28<106 132> 518 28<80 104> 546 28<54 78> 574 28<28 52> 602 28<0 26>
VStem: 0 28<602 630> 26 28<574 602> 52 28<546 574> 78 28<518 546> 104 28<490 518>
LayerCount: 2
Fore
SplineSet
106 546 m 1x2080
 106 518 l 1xa080
 132 518 l 1
 132 490 l 1
 104 490 l 1xa040
 104 518 l 1x4040
 78 518 l 1x4080
 78 546 l 1x2080
 52 546 l 1x21
 52 574 l 1x11
 26 574 l 1x12
 26 602 l 1x0a
 0 602 l 1
 0 630 l 1
 28 630 l 1x0c
 28 602 l 1x14
 54 602 l 1
 54 574 l 1x2a
 80 574 l 1
 80 546 l 1x51
 106 546 l 1x2080
EndSplineSet
EndChar

StartChar: underscore
Encoding: 95 95 126
Width: 924
Flags: W
HStem: -70 28<0 812>
LayerCount: 2
Fore
SplineSet
0 -70 m 1
 0 -42 l 1
 812 -42 l 1
 812 -70 l 1
 0 -70 l 1
EndSplineSet
EndChar

StartChar: asciicircum
Encoding: 94 94 127
Width: 588
Flags: W
HStem: 308 28<28 56 420 448> 334 28<56 84 392 420> 360 28<84 112 364 392> 386 28<112 140 336 364> 412 28<140 168 308 336> 438 28<168 196 280 308> 464 28<196 224 252 280> 490 28<224 252>
VStem: 0 28<154 308> 28 28<310 334> 56 28<336 360> 84 28<362 386> 112 28<388 412> 140 28<414 438> 168 28<440 464> 196 28<466 490> 224 28<492 518> 252 28<466 490> 280 28<440 464> 308 28<414 438> 336 28<388 412> 364 28<362 386> 392 28<336 360> 420 28<310 334> 448 28<154 308>
LayerCount: 2
Fore
SplineSet
448 310 m 1x800001
 476 310 l 1
 476 154 l 1
 448 154 l 1
 448 308 l 1x80000080
 420 308 l 1x800001
 420 334 l 1x400001
 392 334 l 1x400002
 392 360 l 1x200002
 364 360 l 1x200004
 364 386 l 1x100004
 336 386 l 1x100008
 336 412 l 1x080008
 308 412 l 1x080010
 308 438 l 1x040010
 280 438 l 1x040020
 280 464 l 1x020020
 252 464 l 1x020040
 252 490 l 1
 224 490 l 1x010140
 224 464 l 1
 196 464 l 1x020280
 196 438 l 1
 168 438 l 1x0405
 168 412 l 1
 140 412 l 1x080a
 140 386 l 1
 112 386 l 1x1014
 112 360 l 1
 84 360 l 1x2028
 84 334 l 1
 56 334 l 1x4050
 56 308 l 1
 28 308 l 1
 28 154 l 1
 0 154 l 1
 0 310 l 1x80a0
 28 310 l 1
 28 336 l 1x8040
 56 336 l 1x8020
 56 362 l 1x4020
 84 362 l 1x4010
 84 388 l 1x2010
 112 388 l 1x2008
 112 414 l 1x1008
 140 414 l 1x1004
 140 440 l 1x0804
 168 440 l 1x0802
 168 466 l 1x0402
 196 466 l 1x0401
 196 492 l 1x0201
 224 492 l 1x020080
 224 518 l 1
 252 518 l 1x010080
 252 492 l 1
 280 492 l 1x0200a0
 280 466 l 1
 308 466 l 1x040050
 308 440 l 1
 336 440 l 1x080028
 336 414 l 1
 364 414 l 1x100014
 364 388 l 1
 392 388 l 1x20000a
 392 362 l 1
 420 362 l 1x400005
 420 336 l 1
 448 336 l 1x80000280
 448 310 l 1x800001
EndSplineSet
EndChar

StartChar: bracketright
Encoding: 93 93 128
Width: 252
Flags: W
HStem: -182 28<0 112> 714 28<0 112>
VStem: 112 28<-154 714>
LayerCount: 2
Fore
SplineSet
0 742 m 1
 140 742 l 1
 140 -182 l 1
 0 -182 l 1
 0 -154 l 1
 112 -154 l 1
 112 714 l 1
 0 714 l 1
 0 742 l 1
EndSplineSet
EndChar

StartChar: backslash
Encoding: 92 92 129
Width: 476
Flags: W
HStem: 42 21G<336 364> 42 21G<336 364> 192 28<308 336> 218 28<280 308> 244 28<252 280> 270 28<224 252> 296 28<196 224> 322 28<168 196> 348 28<140 168> 374 28<112 140> 400 28<84 112> 426 28<56 84> 452 28<28 56>
VStem: 0 28<480 630> 28 28<454 478> 56 28<428 452> 84 28<402 426> 112 28<376 400> 140 28<350 374> 168 28<324 348> 196 28<298 322> 224 28<272 296> 252 28<246 270> 280 28<220 244> 308 28<194 218> 336 28<42 192>
LayerCount: 2
Fore
SplineSet
336 220 m 1x20000140
 336 194 l 1x20000080
 364 194 l 1
 364 42 l 1
 336 42 l 1
 336 192 l 1xa0000040
 308 192 l 1xa0000080
 308 218 l 1x10000080
 280 218 l 1x100001
 280 244 l 1x080001
 252 244 l 1x080002
 252 270 l 1x040002
 224 270 l 1x040004
 224 296 l 1x020004
 196 296 l 1x020008
 196 322 l 1x010008
 168 322 l 1x010010
 168 348 l 1x008010
 140 348 l 1x008020
 140 374 l 1x004020
 112 374 l 1x004040
 112 400 l 1x002040
 84 400 l 1x002080
 84 426 l 1x001080
 56 426 l 1x0011
 56 452 l 1x0009
 28 452 l 1
 28 478 l 1x000a
 0 478 l 1
 0 630 l 1
 28 630 l 1
 28 480 l 1
 56 480 l 1x000d
 56 454 l 1
 84 454 l 1x001280
 84 428 l 1
 112 428 l 1x002140
 112 402 l 1
 140 402 l 1x0040a0
 140 376 l 1
 168 376 l 1x008050
 168 350 l 1
 196 350 l 1x010028
 196 324 l 1
 224 324 l 1x020014
 224 298 l 1
 252 298 l 1x04000a
 252 272 l 1
 280 272 l 1x080005
 280 246 l 1
 308 246 l 1x10000280
 308 220 l 1
 336 220 l 1x20000140
EndSplineSet
EndChar

StartChar: bracketleft
Encoding: 91 91 130
Width: 252
Flags: W
HStem: -182 28<28 140> 714 28<28 140>
VStem: 0 28<-154 714>
LayerCount: 2
Fore
SplineSet
0 742 m 1
 140 742 l 1
 140 714 l 1
 28 714 l 1
 28 -154 l 1
 140 -154 l 1
 140 -182 l 1
 0 -182 l 1
 0 742 l 1
EndSplineSet
EndChar

StartChar: Z
Encoding: 90 90 131
Width: 1260
Flags: W
HStem: 42 28<28 1148> 266 28<28 1120> 490 28<0 1120>
VStem: 0 28<70 266> 1120 28<294 490>
CounterMasks: 1 e0
LayerCount: 2
Fore
SplineSet
0 518 m 1
 1148 518 l 1
 1148 266 l 1
 28 266 l 1
 28 70 l 1
 1148 70 l 1
 1148 42 l 1
 0 42 l 1
 0 294 l 1
 1120 294 l 1
 1120 490 l 1
 0 490 l 1
 0 518 l 1
EndSplineSet
EndChar

StartChar: Y
Encoding: 89 89 132
Width: 1260
Flags: W
HStem: 42 21G<560 588> 42 21G<560 588> 154 28<28 560 588 1120> 498 20G<0 28 1120 1148>
VStem: 0 28<182 518> 560 28<42 154> 1120 28<182 518>
CounterMasks: 1 0e
LayerCount: 2
Fore
SplineSet
1120 182 m 1xbe
 1120 518 l 1
 1148 518 l 1
 1148 154 l 1
 588 154 l 1
 588 42 l 1
 560 42 l 1
 560 154 l 1
 0 154 l 1
 0 518 l 1
 28 518 l 1
 28 182 l 1
 1120 182 l 1xbe
EndSplineSet
EndChar

StartChar: X
Encoding: 88 88 133
Width: 1260
Flags: W
HStem: 42 28<0 448 700 1148> 490 28<0 448 700 1148>
VStem: 448 28<70 490> 672 28<70 490>
LayerCount: 2
Fore
SplineSet
0 518 m 1
 476 518 l 1
 476 42 l 1
 0 42 l 1
 0 70 l 1
 448 70 l 1
 448 490 l 1
 0 490 l 1
 0 518 l 1
672 518 m 1
 1148 518 l 1
 1148 490 l 1
 700 490 l 1
 700 70 l 1
 1148 70 l 1
 1148 42 l 1
 672 42 l 1
 672 518 l 1
EndSplineSet
EndChar

StartChar: W
Encoding: 87 87 134
Width: 1820
Flags: W
HStem: 42 28<28 560 1148 1680> 266 28<588 1120> 498 20G<0 28 1120 1148 1680 1708>
VStem: 0 28<70 518> 560 28<70 266> 1120 28<70 266 294 518> 1680 28<70 518>
LayerCount: 2
Fore
SplineSet
1680 518 m 1
 1708 518 l 1
 1708 42 l 1
 1120 42 l 1
 1120 266 l 1
 588 266 l 1
 588 42 l 1
 0 42 l 1
 0 518 l 1
 28 518 l 1
 28 70 l 1
 560 70 l 1
 560 294 l 1
 1120 294 l 1
 1120 518 l 1
 1148 518 l 1
 1148 70 l 1
 1680 70 l 1
 1680 518 l 1
EndSplineSet
EndChar

StartChar: V
Encoding: 86 86 135
Width: 1260
Flags: W
HStem: 42 28<28 560> 266 28<588 1120> 498 20G<0 28 1120 1148>
VStem: 0 28<70 518> 560 28<70 266> 1120 28<294 518>
CounterMasks: 1 1c
LayerCount: 2
Fore
SplineSet
1120 294 m 1
 1120 518 l 1
 1148 518 l 1
 1148 266 l 1
 588 266 l 1
 588 42 l 1
 0 42 l 1
 0 518 l 1
 28 518 l 1
 28 70 l 1
 560 70 l 1
 560 294 l 1
 1120 294 l 1
EndSplineSet
EndChar

StartChar: U
Encoding: 85 85 136
Width: 1260
Flags: W
HStem: 42 28<28 1120> 498 20G<0 28 1120 1148>
VStem: 0 28<70 518> 1120 28<70 518>
LayerCount: 2
Fore
SplineSet
1120 70 m 1
 1120 518 l 1
 1148 518 l 1
 1148 42 l 1
 0 42 l 1
 0 518 l 1
 28 518 l 1
 28 70 l 1
 1120 70 l 1
EndSplineSet
EndChar

StartChar: T
Encoding: 84 84 137
Width: 1260
Flags: W
HStem: 42 21G<560 588> 42 21G<560 588> 490 28<28 560 588 1120>
VStem: 0 28<378 490> 560 28<42 490> 1120 28<378 490>
CounterMasks: 1 1c
LayerCount: 2
Fore
SplineSet
0 518 m 1xbc
 1148 518 l 1
 1148 378 l 1
 1120 378 l 1
 1120 490 l 1
 588 490 l 1
 588 42 l 1
 560 42 l 1
 560 490 l 1
 28 490 l 1
 28 378 l 1
 0 378 l 1
 0 518 l 1xbc
EndSplineSet
EndChar

StartChar: S
Encoding: 83 83 138
Width: 1260
Flags: W
HStem: 42 28<0 1120> 266 28<28 1120> 490 28<28 1148>
VStem: 0 28<294 490> 1120 28<70 266>
CounterMasks: 1 e0
LayerCount: 2
Fore
SplineSet
28 490 m 1
 28 294 l 1
 1148 294 l 1
 1148 42 l 1
 0 42 l 1
 0 70 l 1
 1120 70 l 1
 1120 266 l 1
 0 266 l 1
 0 518 l 1
 1148 518 l 1
 1148 490 l 1
 28 490 l 1
EndSplineSet
EndChar

StartChar: R
Encoding: 82 82 139
Width: 1260
Flags: W
HStem: 42 28<588 1148> 266 28<588 1120> 490 28<28 1120>
VStem: 0 28<42 490> 560 28<70 266> 1120 28<294 490>
CounterMasks: 1 fc
LayerCount: 2
Fore
SplineSet
0 518 m 1
 1148 518 l 1
 1148 266 l 1
 588 266 l 1
 588 70 l 1
 1148 70 l 1
 1148 42 l 1
 560 42 l 1
 560 294 l 1
 1120 294 l 1
 1120 490 l 1
 28 490 l 1
 28 42 l 1
 0 42 l 1
 0 518 l 1
EndSplineSet
EndChar

StartChar: Q
Encoding: 81 81 140
Width: 1260
Flags: W
HStem: 42 28<28 560 588 1120> 490 28<28 1120>
VStem: 0 28<70 490> 560 28<70 182> 1120 28<70 490>
CounterMasks: 1 38
LayerCount: 2
Fore
SplineSet
0 518 m 1
 1148 518 l 1
 1148 42 l 1
 0 42 l 1
 0 518 l 1
1120 70 m 1
 1120 490 l 1
 28 490 l 1
 28 70 l 1
 560 70 l 1
 560 182 l 1
 588 182 l 1
 588 70 l 1
 1120 70 l 1
EndSplineSet
EndChar

StartChar: P
Encoding: 80 80 141
Width: 1260
Flags: W
HStem: 42 21G<0 28> 42 21G<0 28> 154 28<224 1120> 490 28<28 1120>
VStem: 0 28<42 490> 1120 28<182 490>
LayerCount: 2
Fore
SplineSet
0 518 m 1xbc
 1148 518 l 1
 1148 154 l 1
 224 154 l 1
 224 182 l 1
 1120 182 l 1
 1120 490 l 1
 28 490 l 1
 28 42 l 1
 0 42 l 1
 0 518 l 1xbc
EndSplineSet
EndChar

StartChar: O
Encoding: 79 79 142
Width: 1260
Flags: W
HStem: 42 28<28 1120> 490 28<28 1120>
VStem: 0 28<70 490> 1120 28<70 490>
LayerCount: 2
Fore
SplineSet
0 518 m 1
 1148 518 l 1
 1148 42 l 1
 0 42 l 1
 0 518 l 1
1120 70 m 1
 1120 490 l 1
 28 490 l 1
 28 70 l 1
 1120 70 l 1
EndSplineSet
EndChar

StartChar: N
Encoding: 78 78 143
Width: 1260
Flags: W
HStem: 42 21G<0 28 1120 1148> 42 21G<0 28 1120 1148> 266 28<588 1120> 490 28<28 560>
VStem: 0 28<42 490> 560 28<294 490> 1120 28<42 266 294 518>
CounterMasks: 1 0e
LayerCount: 2
Fore
SplineSet
1120 294 m 1xbe
 1120 518 l 1
 1148 518 l 1
 1148 42 l 1
 1120 42 l 1
 1120 266 l 1
 560 266 l 1
 560 490 l 1
 28 490 l 1
 28 42 l 1
 0 42 l 1
 0 518 l 1
 588 518 l 1
 588 294 l 1
 1120 294 l 1xbe
EndSplineSet
EndChar

StartChar: M
Encoding: 77 77 144
Width: 1820
Flags: W
HStem: 42 21G<0 28 1120 1148 1680 1708> 42 21G<0 28 1120 1148 1680 1708> 266 28<588 1120> 490 28<28 560 1148 1680>
VStem: 0 28<42 490> 560 28<294 490> 1120 28<42 266 294 490> 1680 28<42 490>
LayerCount: 2
Fore
SplineSet
1120 518 m 1xbf
 1708 518 l 1
 1708 42 l 1
 1680 42 l 1
 1680 490 l 1
 1148 490 l 1
 1148 42 l 1
 1120 42 l 1
 1120 266 l 1
 560 266 l 1
 560 490 l 1
 28 490 l 1
 28 42 l 1
 0 42 l 1
 0 518 l 1
 588 518 l 1
 588 294 l 1
 1120 294 l 1
 1120 518 l 1xbf
EndSplineSet
EndChar

StartChar: L
Encoding: 76 76 145
Width: 1260
Flags: W
HStem: 42 28<28 1120> 498 20G<0 28>
VStem: 0 28<70 518> 1120 28<70 182>
LayerCount: 2
Fore
SplineSet
1120 70 m 1
 1120 182 l 1
 1148 182 l 1
 1148 42 l 1
 0 42 l 1
 0 518 l 1
 28 518 l 1
 28 70 l 1
 1120 70 l 1
EndSplineSet
EndChar

StartChar: K
Encoding: 75 75 146
Width: 1260
Flags: W
HStem: 42 28<588 1148> 182 28<536 560> 210 28<510 534> 238 28<484 508> 266 28<28 482> 294 28<484 508> 322 28<510 534> 350 28<536 560> 490 28<588 1148>
VStem: 0 28<42 266 294 518> 482 28<238 266 294 322> 508 28<210 238 322 350> 534 28<182 210 350 378> 560 28<70 182 378 490>
LayerCount: 2
Fore
SplineSet
560 518 m 1x81c4
 1148 518 l 1
 1148 490 l 1
 588 490 l 1
 588 378 l 1x81c4
 562 378 l 1
 562 350 l 1x81c8
 536 350 l 1x81d0
 536 322 l 1x82d0
 510 322 l 1x82e0
 510 294 l 1
 484 294 l 1
 484 266 l 1x94e0
 510 266 l 1
 510 238 l 1xa8e0
 536 238 l 1
 536 210 l 1xd0d0
 562 210 l 1xa0c8
 562 182 l 1xc0c8
 588 182 l 1
 588 70 l 1
 1148 70 l 1
 1148 42 l 1
 560 42 l 1
 560 182 l 1xc0c4
 534 182 l 1xc0c8
 534 210 l 1xa0c8
 508 210 l 1xa0d0
 508 238 l 1x90d0
 482 238 l 1x90e0
 482 266 l 1
 28 266 l 1
 28 42 l 1
 0 42 l 1
 0 518 l 1
 28 518 l 1
 28 294 l 1
 482 294 l 1
 482 322 l 1x8ae0
 508 322 l 1
 508 350 l 1x85d0
 534 350 l 1x82c8
 534 378 l 1x81c8
 560 378 l 1
 560 518 l 1x81c4
EndSplineSet
EndChar

StartChar: J
Encoding: 74 74 147
Width: 1260
Flags: W
HStem: 42 28<666 1120> 70 28<640 664> 98 28<614 638> 126 28<588 612> 154 28<28 586> 490 28<0 1120>
VStem: 0 28<182 294> 586 28<126 154> 612 28<98 126> 638 28<70 98> 1120 28<70 490>
LayerCount: 2
Fore
SplineSet
0 518 m 1xa660
 1148 518 l 1
 1148 42 l 1
 664 42 l 1xa660
 664 70 l 1
 638 70 l 1x4660
 638 98 l 1x2660
 612 98 l 1x26a0
 612 126 l 1x16a0
 586 126 l 1x1720
 586 154 l 1
 0 154 l 1
 0 294 l 1
 28 294 l 1
 28 182 l 1
 588 182 l 1x0f20
 588 154 l 1x1720
 614 154 l 1
 614 126 l 1x2f20
 640 126 l 1
 640 98 l 1x56a0
 666 98 l 1
 666 70 l 1
 1120 70 l 1
 1120 490 l 1
 0 490 l 1
 0 518 l 1xa660
EndSplineSet
EndChar

StartChar: I
Encoding: 73 73 148
Width: 140
Flags: W
HStem: 42 21G<0 28> 42 21G<0 28> 498 20G<0 28>
VStem: 0 28<42 518>
LayerCount: 2
Fore
SplineSet
0 42 m 1xb0
 0 518 l 1
 28 518 l 1
 28 42 l 1
 0 42 l 1xb0
EndSplineSet
EndChar

StartChar: H
Encoding: 72 72 149
Width: 1260
Flags: W
HStem: 42 21G<0 28 1120 1148> 42 21G<0 28 1120 1148> 266 28<28 1120> 498 20G<0 28 1120 1148>
VStem: 0 28<42 266 294 518> 1120 28<42 266 294 518>
LayerCount: 2
Fore
SplineSet
1120 294 m 1xbc
 1120 518 l 1
 1148 518 l 1
 1148 42 l 1
 1120 42 l 1
 1120 266 l 1
 28 266 l 1
 28 42 l 1
 0 42 l 1
 0 518 l 1
 28 518 l 1
 28 294 l 1
 1120 294 l 1xbc
EndSplineSet
EndChar

StartChar: G
Encoding: 71 71 150
Width: 1260
Flags: W
HStem: 42 28<28 1120> 266 28<560 1120> 490 28<28 1148>
VStem: 0 28<70 490> 1120 28<70 266>
CounterMasks: 1 e0
LayerCount: 2
Fore
SplineSet
28 490 m 1
 28 70 l 1
 1120 70 l 1
 1120 266 l 1
 560 266 l 1
 560 294 l 1
 1148 294 l 1
 1148 42 l 1
 0 42 l 1
 0 518 l 1
 1148 518 l 1
 1148 490 l 1
 28 490 l 1
EndSplineSet
EndChar

StartChar: F
Encoding: 70 70 151
Width: 1260
Flags: W
HStem: 42 21G<0 28> 42 21G<0 28> 154 28<28 588> 490 28<28 1120>
VStem: 0 28<42 154 182 490> 1120 28<266 490>
LayerCount: 2
Fore
SplineSet
0 518 m 1xbc
 1148 518 l 1
 1148 266 l 1
 1120 266 l 1
 1120 490 l 1
 28 490 l 1
 28 182 l 1
 588 182 l 1
 588 154 l 1
 28 154 l 1
 28 42 l 1
 0 42 l 1
 0 518 l 1xbc
EndSplineSet
EndChar

StartChar: E
Encoding: 69 69 152
Width: 1260
Flags: W
HStem: 42 28<28 1120> 266 28<28 588> 490 28<28 1120>
VStem: 0 28<70 266 294 490> 1120 28<70 182 378 490>
CounterMasks: 1 e0
LayerCount: 2
Fore
SplineSet
0 518 m 1
 1148 518 l 1
 1148 378 l 1
 1120 378 l 1
 1120 490 l 1
 28 490 l 1
 28 294 l 1
 588 294 l 1
 588 266 l 1
 28 266 l 1
 28 70 l 1
 1120 70 l 1
 1120 182 l 1
 1148 182 l 1
 1148 42 l 1
 0 42 l 1
 0 518 l 1
EndSplineSet
EndChar

StartChar: D
Encoding: 68 68 153
Width: 1372
Flags: W
HStem: 42 28<0 112 140 1232> 490 28<0 112 140 1232>
VStem: 112 28<70 490> 1232 28<70 490>
LayerCount: 2
Fore
SplineSet
0 518 m 1
 1260 518 l 1
 1260 42 l 1
 0 42 l 1
 0 70 l 1
 112 70 l 1
 112 490 l 1
 0 490 l 1
 0 518 l 1
1232 70 m 1
 1232 490 l 1
 140 490 l 1
 140 70 l 1
 1232 70 l 1
EndSplineSet
EndChar

StartChar: C
Encoding: 67 67 154
Width: 1260
Flags: W
HStem: 42 28<28 1120> 490 28<28 1120>
VStem: 0 28<70 490> 1120 28<70 182 378 490>
LayerCount: 2
Fore
SplineSet
0 518 m 1
 1148 518 l 1
 1148 378 l 1
 1120 378 l 1
 1120 490 l 1
 28 490 l 1
 28 70 l 1
 1120 70 l 1
 1120 182 l 1
 1148 182 l 1
 1148 42 l 1
 0 42 l 1
 0 518 l 1
EndSplineSet
EndChar

StartChar: B
Encoding: 66 66 155
Width: 1372
Flags: W
HStem: 42 28<0 112 140 1232> 266 28<672 1232> 490 28<0 112 140 1232>
VStem: 112 28<70 490> 1232 28<70 266 294 490>
CounterMasks: 1 e0
LayerCount: 2
Fore
SplineSet
0 518 m 1
 1260 518 l 1
 1260 42 l 1
 0 42 l 1
 0 70 l 1
 112 70 l 1
 112 490 l 1
 0 490 l 1
 0 518 l 1
1232 294 m 1
 1232 490 l 1
 140 490 l 1
 140 70 l 1
 1232 70 l 1
 1232 266 l 1
 672 266 l 1
 672 294 l 1
 1232 294 l 1
EndSplineSet
EndChar

StartChar: A
Encoding: 65 65 156
Width: 1260
Flags: W
HStem: 42 21G<0 28 1120 1148> 42 21G<0 28 1120 1148> 154 28<28 1120> 490 28<28 1120>
VStem: 0 28<42 154 182 490> 1120 28<42 154 182 490>
LayerCount: 2
Fore
SplineSet
0 518 m 1xbc
 1148 518 l 1
 1148 42 l 1
 1120 42 l 1
 1120 154 l 1
 28 154 l 1
 28 42 l 1
 0 42 l 1
 0 518 l 1xbc
1120 182 m 1
 1120 490 l 1
 28 490 l 1
 28 182 l 1
 1120 182 l 1
EndSplineSet
EndChar

StartChar: at
Encoding: 64 64 157
Width: 1260
Flags: W
HStem: 42 28<28 1120> 266 28<252 896> 386 20G<224 252> 602 28<28 896>
VStem: 0 28<70 602> 224 28<294 406> 896 28<294 602> 1120 28<70 630>
LayerCount: 2
Fore
SplineSet
1120 630 m 1
 1148 630 l 1
 1148 42 l 1
 0 42 l 1
 0 630 l 1
 924 630 l 1
 924 266 l 1
 224 266 l 1
 224 406 l 1
 252 406 l 1
 252 294 l 1
 896 294 l 1
 896 602 l 1
 28 602 l 1
 28 70 l 1
 1120 70 l 1
 1120 630 l 1
EndSplineSet
EndChar

StartChar: question
Encoding: 63 63 158
Width: 1260
Flags: W
HStem: 42 28<0 28> 266 28<0 1120> 490 28<0 1120>
VStem: 0 28<42 70> 1120 28<294 490>
CounterMasks: 1 e0
LayerCount: 2
Fore
SplineSet
0 42 m 1
 0 70 l 1
 28 70 l 1
 28 42 l 1
 0 42 l 1
0 518 m 1
 1148 518 l 1
 1148 266 l 1
 0 266 l 1
 0 294 l 1
 1120 294 l 1
 1120 490 l 1
 0 490 l 1
 0 518 l 1
EndSplineSet
EndChar

StartChar: greater
Encoding: 62 62 159
Width: 1132
Flags: W
HStem: 42 28<0 362> 70 28<364 388> 98 28<390 414> 126 28<416 440> 154 28<442 802> 182 28<804 828> 210 28<830 854> 238 28<856 880> 266 28<882 1020> 294 28<856 880> 322 28<830 854> 350 28<804 828> 378 28<442 802> 406 28<416 440> 434 28<390 414> 462 28<364 388> 490 28<0 362>
VStem: 362 28<70 98 462 490> 388 28<98 126 434 462> 414 28<126 154 406 434> 802 28<182 210 350 378> 828 28<210 238 322 350> 854 28<238 266 294 322>
LayerCount: 2
Fore
SplineSet
882 294 m 1x00a002
 1020 294 l 1
 1020 266 l 1
 882 266 l 1x00a002
 882 238 l 1x010002
 856 238 l 1x010004
 856 210 l 1x020004
 830 210 l 1x020008
 830 182 l 1
 804 182 l 1x040008
 804 154 l 1
 442 154 l 1x080018
 442 126 l 1x100018
 416 126 l 1x100020
 416 98 l 1x200020
 390 98 l 1x200040
 390 70 l 1
 364 70 l 1x400040
 364 42 l 1
 0 42 l 1
 0 70 l 1
 362 70 l 1
 362 98 l 1xa00040
 388 98 l 1
 388 126 l 1x500020
 414 126 l 1
 414 154 l 1x280010
 440 154 l 1
 440 182 l 1x140010
 802 182 l 1
 802 210 l 1x0a0018
 828 210 l 1
 828 238 l 1x050004
 854 238 l 1
 854 266 l 1x028002
 880 266 l 1
 880 294 l 1
 854 294 l 1x014002
 854 322 l 1x002002
 828 322 l 1x002004
 828 350 l 1x001004
 802 350 l 1x001008
 802 378 l 1
 440 378 l 1x000808
 440 406 l 1
 414 406 l 1x000418
 414 434 l 1x000218
 388 434 l 1x000220
 388 462 l 1x000120
 362 462 l 1x000140
 362 490 l 1
 0 490 l 1
 0 518 l 1
 364 518 l 1x0000c0
 364 490 l 1x000140
 390 490 l 1
 390 462 l 1x0002c0
 416 462 l 1
 416 434 l 1x000520
 442 434 l 1
 442 406 l 1x000a10
 804 406 l 1
 804 378 l 1x001410
 830 378 l 1
 830 350 l 1x002818
 856 350 l 1
 856 322 l 1x005004
 882 322 l 1
 882 294 l 1x00a002
EndSplineSet
EndChar

StartChar: equal
Encoding: 61 61 160
Width: 1036
Flags: W
HStem: 154 28<0 924> 378 28<0 924>
LayerCount: 2
Fore
SplineSet
0 154 m 1
 0 182 l 1
 924 182 l 1
 924 154 l 1
 0 154 l 1
0 378 m 1
 0 406 l 1
 924 406 l 1
 924 378 l 1
 0 378 l 1
EndSplineSet
EndChar

StartChar: less
Encoding: 60 60 161
Width: 1132
Flags: W
HStem: 42 28<658 1020> 70 28<632 656> 98 28<606 630> 126 28<580 604> 154 28<218 578> 182 28<192 216> 210 28<166 190> 238 28<140 164> 266 28<0 138> 294 28<140 164> 322 28<166 190> 350 28<192 216> 378 28<218 578> 406 28<580 604> 434 28<606 630> 462 28<632 656> 490 28<658 1020>
VStem: 138 28<238 266 294 322> 164 28<210 238 322 350> 190 28<182 210 350 378> 578 28<126 154 406 434> 604 28<98 126 434 462> 630 28<70 98 462 490>
LayerCount: 2
Fore
SplineSet
656 518 m 1x000082
 1020 518 l 1
 1020 490 l 1
 658 490 l 1x000082
 658 462 l 1x000102
 632 462 l 1x000104
 632 434 l 1x000204
 606 434 l 1x000208
 606 406 l 1
 580 406 l 1x000408
 580 378 l 1
 218 378 l 1x000818
 218 350 l 1x001018
 192 350 l 1x001020
 192 322 l 1x002020
 166 322 l 1x002040
 166 294 l 1
 140 294 l 1
 140 266 l 1x014040
 166 266 l 1
 166 238 l 1x028040
 192 238 l 1
 192 210 l 1x050020
 218 210 l 1
 218 182 l 1x0a0010
 580 182 l 1
 580 154 l 1x140010
 606 154 l 1
 606 126 l 1x280018
 632 126 l 1
 632 98 l 1x500004
 658 98 l 1
 658 70 l 1
 1020 70 l 1
 1020 42 l 1
 656 42 l 1xa00002
 656 70 l 1
 630 70 l 1x400002
 630 98 l 1x200002
 604 98 l 1x200004
 604 126 l 1x100004
 578 126 l 1x100008
 578 154 l 1
 216 154 l 1x080008
 216 182 l 1
 190 182 l 1x040018
 190 210 l 1x020018
 164 210 l 1x020020
 164 238 l 1x010020
 138 238 l 1x010040
 138 266 l 1
 0 266 l 1
 0 294 l 1
 138 294 l 1
 138 322 l 1x00a040
 164 322 l 1
 164 350 l 1x005020
 190 350 l 1
 190 378 l 1x002810
 216 378 l 1
 216 406 l 1x001410
 578 406 l 1
 578 434 l 1x000a18
 604 434 l 1
 604 462 l 1x000504
 630 462 l 1
 630 490 l 1x000282
 656 490 l 1x000102
 656 518 l 1x000082
EndSplineSet
EndChar

StartChar: semicolon
Encoding: 59 59 162
Width: 140
Flags: W
HStem: 378 28<0 28>
VStem: 0 28<-70 70 378 406>
LayerCount: 2
Fore
SplineSet
0 -70 m 1
 0 70 l 1
 28 70 l 1
 28 -70 l 1
 0 -70 l 1
0 378 m 1
 0 406 l 1
 28 406 l 1
 28 378 l 1
 0 378 l 1
EndSplineSet
EndChar

StartChar: colon
Encoding: 58 58 163
Width: 140
Flags: W
HStem: 42 28<0 28> 378 28<0 28>
VStem: 0 28<42 70 378 406>
LayerCount: 2
Fore
SplineSet
0 42 m 1
 0 70 l 1
 28 70 l 1
 28 42 l 1
 0 42 l 1
0 378 m 1
 0 406 l 1
 28 406 l 1
 28 378 l 1
 0 378 l 1
EndSplineSet
EndChar

StartChar: nine
Encoding: 57 57 164
Width: 1260
Flags: W
HStem: 42 28<0 1042> 70 28<1044 1068> 98 28<1070 1094> 126 28<1096 1120> 266 28<28 1120> 490 28<28 1120>
VStem: 0 28<294 490> 1042 28<70 98> 1068 28<98 126> 1094 28<126 154> 1120 28<154 266 294 490>
LayerCount: 2
Fore
SplineSet
0 518 m 1x1e20
 1148 518 l 1
 1148 154 l 1x1e20
 1122 154 l 1
 1122 126 l 1x1e40
 1096 126 l 1x1e80
 1096 98 l 1x2e80
 1070 98 l 1x2f
 1070 70 l 1
 1044 70 l 1x4f
 1044 42 l 1
 0 42 l 1
 0 70 l 1
 1042 70 l 1
 1042 98 l 1xaf
 1068 98 l 1
 1068 126 l 1x5e80
 1094 126 l 1x2e40
 1094 154 l 1x1e40
 1120 154 l 1
 1120 266 l 1
 0 266 l 1
 0 518 l 1x1e20
1120 294 m 1
 1120 490 l 1
 28 490 l 1
 28 294 l 1
 1120 294 l 1
EndSplineSet
EndChar

StartChar: eight
Encoding: 56 56 165
Width: 1260
Flags: W
HStem: 42 28<28 1120> 266 28<28 1120> 490 28<28 1120>
VStem: 0 28<70 266 294 490> 1120 28<70 266 294 490>
CounterMasks: 1 e0
LayerCount: 2
Fore
SplineSet
0 518 m 1
 1148 518 l 1
 1148 42 l 1
 0 42 l 1
 0 518 l 1
1120 70 m 1
 1120 266 l 1
 28 266 l 1
 28 70 l 1
 1120 70 l 1
1120 294 m 1
 1120 490 l 1
 28 490 l 1
 28 294 l 1
 1120 294 l 1
EndSplineSet
EndChar

StartChar: seven
Encoding: 55 55 166
Width: 1260
Flags: W
HStem: 42 21G<1120 1148> 42 21G<1120 1148> 490 28<28 1120>
VStem: 0 28<378 490> 1120 28<42 490>
LayerCount: 2
Fore
SplineSet
0 518 m 1xb8
 1148 518 l 1
 1148 42 l 1
 1120 42 l 1
 1120 490 l 1
 28 490 l 1
 28 378 l 1
 0 378 l 1
 0 518 l 1xb8
EndSplineSet
EndChar

StartChar: six
Encoding: 54 54 167
Width: 1260
Flags: W
HStem: 42 28<28 1120> 266 28<28 1120> 406 28<28 52> 434 28<54 78> 462 28<80 104> 490 28<106 1148>
VStem: 0 28<70 266 294 406> 26 28<406 434> 52 28<434 462> 78 28<462 490> 1120 28<70 266>
LayerCount: 2
Fore
SplineSet
104 518 m 1xc460
 1148 518 l 1
 1148 490 l 1
 106 490 l 1xc460
 106 462 l 1xc860
 80 462 l 1xc8a0
 80 434 l 1xd0a0
 54 434 l 1xd120
 54 406 l 1xe120
 28 406 l 1
 28 294 l 1
 1148 294 l 1
 1148 42 l 1
 0 42 l 1
 0 406 l 1xe220
 26 406 l 1xe120
 26 434 l 1xd120
 52 434 l 1
 52 462 l 1xe8a0
 78 462 l 1
 78 490 l 1xd460
 104 490 l 1xc860
 104 518 l 1xc460
1120 266 m 1
 28 266 l 1
 28 70 l 1xc220
 1120 70 l 1
 1120 266 l 1
EndSplineSet
EndChar

StartChar: five
Encoding: 53 53 168
Width: 1260
Flags: W
HStem: 42 28<0 1042> 70 28<1044 1068> 98 28<1070 1094> 126 28<1096 1120> 266 28<28 1120> 490 28<28 1148>
VStem: 0 28<294 490> 1042 28<70 98> 1068 28<98 126> 1094 28<126 154> 1120 28<154 266>
LayerCount: 2
Fore
SplineSet
0 518 m 1x1e20
 1148 518 l 1
 1148 490 l 1
 28 490 l 1
 28 294 l 1
 1148 294 l 1
 1148 154 l 1x1e20
 1122 154 l 1
 1122 126 l 1x1e40
 1096 126 l 1x1e80
 1096 98 l 1x2e80
 1070 98 l 1x2f
 1070 70 l 1
 1044 70 l 1x4f
 1044 42 l 1
 0 42 l 1
 0 70 l 1
 1042 70 l 1
 1042 98 l 1xaf
 1068 98 l 1
 1068 126 l 1x5e80
 1094 126 l 1x2e40
 1094 154 l 1x1e40
 1120 154 l 1
 1120 266 l 1
 0 266 l 1
 0 518 l 1x1e20
EndSplineSet
EndChar

StartChar: four
Encoding: 52 52 169
Width: 1260
Flags: W
HStem: 42 21G<1120 1148> 42 21G<1120 1148> 266 28<28 1120> 498 20G<0 28 1120 1148>
VStem: 0 28<294 518> 1120 28<42 266 294 518>
LayerCount: 2
Fore
SplineSet
1120 294 m 1xbc
 1120 518 l 1
 1148 518 l 1
 1148 42 l 1
 1120 42 l 1
 1120 266 l 1
 0 266 l 1
 0 518 l 1
 28 518 l 1
 28 294 l 1
 1120 294 l 1xbc
EndSplineSet
EndChar

StartChar: three
Encoding: 51 51 170
Width: 1260
Flags: W
HStem: 42 28<0 1120> 266 28<560 1120> 490 28<0 1120>
VStem: 1120 28<70 266 294 490>
CounterMasks: 1 e0
LayerCount: 2
Fore
SplineSet
0 518 m 1
 1148 518 l 1
 1148 42 l 1
 0 42 l 1
 0 70 l 1
 1120 70 l 1
 1120 266 l 1
 560 266 l 1
 560 294 l 1
 1120 294 l 1
 1120 490 l 1
 0 490 l 1
 0 518 l 1
EndSplineSet
EndChar

StartChar: two
Encoding: 50 50 171
Width: 1260
Flags: W
HStem: 42 28<28 1148> 266 28<28 1042> 294 28<1044 1068> 322 28<1070 1094> 350 28<1096 1120> 490 28<0 1120>
VStem: 0 28<70 266> 1042 28<294 322> 1068 28<322 350> 1094 28<350 378> 1120 28<378 490>
LayerCount: 2
Fore
SplineSet
0 518 m 1x8e20
 1148 518 l 1
 1148 378 l 1x8e20
 1122 378 l 1
 1122 350 l 1x8e40
 1096 350 l 1x8e80
 1096 322 l 1x9680
 1070 322 l 1x97
 1070 294 l 1
 1044 294 l 1xa7
 1044 266 l 1
 28 266 l 1xc7
 28 70 l 1
 1148 70 l 1
 1148 42 l 1
 0 42 l 1
 0 294 l 1xa720
 1042 294 l 1
 1042 322 l 1xd720
 1068 322 l 1
 1068 350 l 1xae80
 1094 350 l 1x9640
 1094 378 l 1x8e40
 1120 378 l 1
 1120 490 l 1
 0 490 l 1
 0 518 l 1x8e20
EndSplineSet
EndChar

StartChar: one
Encoding: 49 49 172
Width: 252
Flags: W
HStem: 42 21G<112 140> 42 21G<112 140> 490 28<0 112>
VStem: 112 28<42 490>
LayerCount: 2
Fore
SplineSet
0 518 m 1xb0
 140 518 l 1
 140 42 l 1
 112 42 l 1
 112 490 l 1
 0 490 l 1
 0 518 l 1xb0
EndSplineSet
EndChar

StartChar: zero
Encoding: 48 48 173
Width: 1260
Flags: W
HStem: 42 28<28 1120> 266 28<560 588> 490 28<28 1120>
VStem: 0 28<70 490> 560 28<266 294> 1120 28<70 490>
CounterMasks: 1 fc
LayerCount: 2
Fore
SplineSet
560 266 m 1
 560 294 l 1
 588 294 l 1
 588 266 l 1
 560 266 l 1
0 518 m 1
 1148 518 l 1
 1148 42 l 1
 0 42 l 1
 0 518 l 1
1120 70 m 1
 1120 490 l 1
 28 490 l 1
 28 70 l 1
 1120 70 l 1
EndSplineSet
EndChar

StartChar: slash
Encoding: 47 47 174
Width: 476
Flags: W
HStem: 42 21G<0 28> 42 21G<0 28> 194 28<28 56> 220 28<56 84> 246 28<84 112> 272 28<112 140> 298 28<140 168> 324 28<168 196> 350 28<196 224> 376 28<224 252> 402 28<252 280> 428 28<280 308> 454 28<308 336>
VStem: 0 28<42 194> 28 28<196 220> 56 28<222 246> 84 28<248 272> 112 28<274 298> 140 28<300 324> 168 28<326 350> 196 28<352 376> 224 28<378 402> 252 28<404 428> 280 28<430 454> 308 28<456 480> 336 28<482 630>
LayerCount: 2
Fore
SplineSet
336 630 m 1x00080040
 364 630 l 1
 364 480 l 1x00080040
 336 480 l 1x00080080
 336 454 l 1
 308 454 l 1x00080140
 308 428 l 1
 280 428 l 1x00100280
 280 402 l 1
 252 402 l 1x002005
 252 376 l 1
 224 376 l 1x00400a
 224 350 l 1
 196 350 l 1x008014
 196 324 l 1
 168 324 l 1x010028
 168 298 l 1
 140 298 l 1x020050
 140 272 l 1
 112 272 l 1x0400a0
 112 246 l 1
 84 246 l 1x080140
 84 220 l 1
 56 220 l 1x100280
 56 194 l 1
 28 194 l 1
 28 42 l 1
 0 42 l 1
 0 196 l 1xa005
 28 196 l 1
 28 222 l 1xa002
 56 222 l 1xa001
 56 248 l 1x1001
 84 248 l 1x100080
 84 274 l 1x080080
 112 274 l 1x080040
 112 300 l 1x040040
 140 300 l 1x040020
 140 326 l 1x020020
 168 326 l 1x020010
 168 352 l 1x010010
 196 352 l 1x010008
 196 378 l 1x008008
 224 378 l 1x008004
 224 404 l 1x004004
 252 404 l 1x004002
 252 430 l 1x002002
 280 430 l 1x002001
 280 456 l 1x001001
 308 456 l 1x00100080
 308 482 l 1x00080080
 336 482 l 1
 336 630 l 1x00080040
EndSplineSet
EndChar

StartChar: period
Encoding: 46 46 175
Width: 140
Flags: W
HStem: 42 28<0 28>
VStem: 0 28<42 70>
LayerCount: 2
Fore
SplineSet
0 42 m 1
 0 70 l 1
 28 70 l 1
 28 42 l 1
 0 42 l 1
EndSplineSet
EndChar

StartChar: hyphen
Encoding: 45 45 176
Width: 812
Flags: W
HStem: 266 28<0 700>
LayerCount: 2
Fore
SplineSet
0 266 m 1
 0 294 l 1
 700 294 l 1
 700 266 l 1
 0 266 l 1
EndSplineSet
EndChar

StartChar: minus
Encoding: 8722 8722 177
Width: 1036
Flags: W
HStem: 266 28<0 924>
LayerCount: 2
Fore
SplineSet
0 266 m 1
 0 294 l 1
 924 294 l 1
 924 266 l 1
 0 266 l 1
EndSplineSet
EndChar

StartChar: uni00AD
Encoding: 173 173 178
Width: 812
Flags: W
HStem: 266 28<0 700>
LayerCount: 2
Fore
SplineSet
0 266 m 1
 0 294 l 1
 700 294 l 1
 700 266 l 1
 0 266 l 1
EndSplineSet
EndChar

StartChar: comma
Encoding: 44 44 179
Width: 140
Flags: W
HStem: -70 140<0 28>
VStem: 0 28<-70 70>
LayerCount: 2
Fore
SplineSet
0 -70 m 1
 0 70 l 1
 28 70 l 1
 28 -70 l 1
 0 -70 l 1
EndSplineSet
EndChar

StartChar: plus
Encoding: 43 43 180
Width: 1036
Flags: W
HStem: 266 28<0 448 476 924> 386 20G<448 476>
VStem: 448 28<154 266 294 406>
LayerCount: 2
Fore
SplineSet
476 294 m 1
 924 294 l 1
 924 266 l 1
 476 266 l 1
 476 154 l 1
 448 154 l 1
 448 266 l 1
 0 266 l 1
 0 294 l 1
 448 294 l 1
 448 406 l 1
 476 406 l 1
 476 294 l 1
EndSplineSet
EndChar

StartChar: asterisk
Encoding: 42 42 181
Width: 1036
Flags: W
HStem: 266 28<0 370 554 924> 294 28<372 396 528 552> 322 28<398 422 502 526> 350 28<424 448 476 500> 406 28<424 448 476 500> 434 28<398 422 502 526> 462 28<372 396 528 552> 490 28<0 370 554 924>
VStem: 370 28<294 322 462 490> 396 28<322 350 434 462> 422 28<350 378 406 434> 474 28<350 378 406 434> 500 28<322 350 434 462> 526 28<294 322 462 490>
LayerCount: 2
Fore
SplineSet
552 518 m 1x0104
 924 518 l 1
 924 490 l 1
 554 490 l 1x0104
 554 462 l 1x0204
 528 462 l 1x0208
 528 434 l 1x0408
 502 434 l 1x0410
 502 406 l 1
 476 406 l 1
 476 378 l 1
 502 378 l 1x1810
 502 350 l 1x2010
 528 350 l 1
 528 322 l 1x5008
 554 322 l 1
 554 294 l 1
 924 294 l 1
 924 266 l 1
 552 266 l 1xa004
 552 294 l 1
 526 294 l 1x4004
 526 322 l 1x2004
 500 322 l 1x2008
 500 350 l 1x1008
 474 350 l 1
 474 378 l 1
 450 378 l 1
 450 350 l 1x1030
 424 350 l 1x1040
 424 322 l 1x2040
 398 322 l 1x2080
 398 294 l 1
 372 294 l 1x4080
 372 266 l 1
 0 266 l 1
 0 294 l 1
 370 294 l 1
 370 322 l 1xa080
 396 322 l 1
 396 350 l 1x5040
 422 350 l 1x2020
 422 378 l 1
 448 378 l 1
 448 406 l 1
 422 406 l 1x1820
 422 434 l 1x0420
 396 434 l 1x0440
 396 462 l 1x0240
 370 462 l 1x0280
 370 490 l 1
 0 490 l 1
 0 518 l 1
 372 518 l 1x0180
 372 490 l 1x0280
 398 490 l 1
 398 462 l 1x0580
 424 462 l 1
 424 434 l 1x0a40
 450 434 l 1x0420
 450 406 l 1
 474 406 l 1x0830
 474 434 l 1x0430
 500 434 l 1
 500 462 l 1x0a08
 526 462 l 1
 526 490 l 1x0504
 552 490 l 1x0204
 552 518 l 1x0104
EndSplineSet
EndChar

StartChar: parenright
Encoding: 41 41 182
Width: 252
Flags: W
HStem: -182 28<0 28> -156 28<28 56> -130 28<56 84> -104 28<84 112> 636 28<84 112> 662 28<56 84> 688 28<28 56> 714 28<0 28>
VStem: 0 28<-182 -156 716 742> 28 28<-154 -130 690 714> 56 28<-128 -104 664 688> 84 28<-102 -78 638 662> 112 28<-76 636>
LayerCount: 2
Fore
SplineSet
112 638 m 1x0810
 140 638 l 1
 140 -78 l 1x0808
 112 -78 l 1x0810
 112 -104 l 1
 84 -104 l 1x1828
 84 -130 l 1
 56 -130 l 1x2050
 56 -156 l 1
 28 -156 l 1x40a0
 28 -182 l 1
 0 -182 l 1
 0 -154 l 1x80a0
 28 -154 l 1x8040
 28 -128 l 1x4040
 56 -128 l 1x4020
 56 -102 l 1x2020
 84 -102 l 1x2010
 84 -76 l 1x1010
 112 -76 l 1
 112 636 l 1x1808
 84 636 l 1x1810
 84 662 l 1x0410
 56 662 l 1x0420
 56 688 l 1x0220
 28 688 l 1x0240
 28 714 l 1x0140
 0 714 l 1
 0 742 l 1
 28 742 l 1x0180
 28 716 l 1
 56 716 l 1x02a0
 56 690 l 1
 84 690 l 1x0450
 84 664 l 1
 112 664 l 1x0828
 112 638 l 1x0810
EndSplineSet
EndChar

StartChar: parenleft
Encoding: 40 40 183
Width: 252
Flags: W
HStem: -182 28<112 140> -156 28<84 112> -130 28<56 84> -104 28<28 56> 636 28<28 56> 662 28<56 84> 688 28<84 112> 714 28<112 140>
VStem: 0 28<-76 636> 28 28<-102 -78 638 662> 56 28<-128 -104 664 688> 84 28<-154 -130 690 714> 112 28<-182 -156 716 742>
LayerCount: 2
Fore
SplineSet
112 716 m 1x0208
 112 742 l 1
 140 742 l 1
 140 714 l 1x0108
 112 714 l 1x0110
 112 688 l 1
 84 688 l 1x0228
 84 662 l 1
 56 662 l 1x0450
 56 636 l 1
 28 636 l 1
 28 -76 l 1
 56 -76 l 1x18a0
 56 -102 l 1
 84 -102 l 1x2050
 84 -128 l 1
 112 -128 l 1x4028
 112 -154 l 1x8010
 140 -154 l 1
 140 -182 l 1
 112 -182 l 1x8008
 112 -156 l 1x4008
 84 -156 l 1x4010
 84 -130 l 1x2010
 56 -130 l 1x2020
 56 -104 l 1x1020
 28 -104 l 1
 28 -78 l 1x1040
 0 -78 l 1
 0 638 l 1x1080
 28 638 l 1
 28 664 l 1x1840
 56 664 l 1x1820
 56 690 l 1x0420
 84 690 l 1x0410
 84 716 l 1x0210
 112 716 l 1x0208
EndSplineSet
EndChar

StartChar: quotesingle
Encoding: 39 39 184
Width: 140
Flags: W
HStem: 378 140<0 28>
VStem: 0 28<378 518>
LayerCount: 2
Fore
SplineSet
0 378 m 1
 0 518 l 1
 28 518 l 1
 28 378 l 1
 0 378 l 1
EndSplineSet
EndChar

StartChar: ampersand
Encoding: 38 38 185
Width: 1260
Flags: W
HStem: 42 28<106 938 1122 1148> 70 28<80 104 940 964 1096 1120> 98 28<54 78 966 990 1070 1094> 126 28<28 52 992 1016 1044 1068> 154 28<0 26 1018 1042> 182 28<28 52 992 1016 1044 1068> 210 28<54 78 966 990 1070 1094> 238 28<80 104 940 964 1096 1120> 266 28<106 938> 294 28<80 104> 322 28<54 78> 350 28<28 52> 378 28<0 26> 406 28<28 52> 434 28<54 78> 462 28<80 104> 490 28<106 588>
VStem: 0 28<154 182 378 406> 26 28<126 154 182 210 350 378 406 434> 52 28<98 126 210 238 322 350 434 462> 78 28<70 98 238 266 294 322 462 490> 938 28<70 98 238 266> 964 28<98 126 210 238> 990 28<126 154 182 210> 1042 28<126 154 182 210> 1068 28<98 126 210 238> 1094 28<70 98 238 266> 1120 28<42 70 266 406>
LayerCount: 2
Fore
SplineSet
1120 266 m 1x01000010
 1120 406 l 1
 1148 406 l 1
 1148 266 l 1x00840010
 1122 266 l 1x00840020
 1122 238 l 1x01000020
 1096 238 l 1x01000040
 1096 210 l 1x02000040
 1070 210 l 1x02000080
 1070 182 l 1
 1044 182 l 1
 1044 154 l 1x14000080
 1070 154 l 1
 1070 126 l 1x28000080
 1096 126 l 1
 1096 98 l 1x50000040
 1122 98 l 1
 1122 70 l 1xa0000020
 1148 70 l 1
 1148 42 l 1
 1120 42 l 1xa0000010
 1120 70 l 1x40000010
 1094 70 l 1x40000020
 1094 98 l 1x20000020
 1068 98 l 1x20000040
 1068 126 l 1x10000040
 1042 126 l 1x10000080
 1042 154 l 1
 1018 154 l 1x08000180
 1018 126 l 1x10000180
 992 126 l 1x100002
 992 98 l 1x200002
 966 98 l 1x200004
 966 70 l 1
 940 70 l 1x400004
 940 42 l 1
 104 42 l 1x800004
 104 70 l 1
 78 70 l 1x40000c
 78 98 l 1x20000c
 52 98 l 1x200010
 52 126 l 1x100010
 26 126 l 1x100020
 26 154 l 1x080020
 0 154 l 1
 0 182 l 1x080040
 26 182 l 1
 26 210 l 1x0a0020
 52 210 l 1
 52 238 l 1x050010
 78 238 l 1
 78 266 l 1x028008
 104 266 l 1
 104 294 l 1
 78 294 l 1x014008
 78 322 l 1x002008
 52 322 l 1x002010
 52 350 l 1x001010
 26 350 l 1x001020
 26 378 l 1x000820
 0 378 l 1
 0 406 l 1x000840
 26 406 l 1
 26 434 l 1x000a20
 52 434 l 1
 52 462 l 1x000510
 78 462 l 1
 78 490 l 1x000288
 104 490 l 1x000108
 104 518 l 1
 588 518 l 1
 588 490 l 1
 106 490 l 1x000088
 106 462 l 1x000108
 80 462 l 1x000110
 80 434 l 1x000210
 54 434 l 1x000220
 54 406 l 1x000420
 28 406 l 1
 28 378 l 1x001440
 54 378 l 1
 54 350 l 1x002820
 80 350 l 1
 80 322 l 1x005010
 106 322 l 1
 106 294 l 1x00a008
 940 294 l 1
 940 266 l 1x014008
 966 266 l 1
 966 238 l 1x02800c
 992 238 l 1
 992 210 l 1x050002
 1018 210 l 1
 1018 182 l 1
 1042 182 l 1
 1042 210 l 1x0a000180
 1068 210 l 1
 1068 238 l 1x05000040
 1094 238 l 1
 1094 266 l 1x02800020
 1120 266 l 1x01000010
990 154 m 1x280001
 1016 154 l 1
 1016 182 l 1
 990 182 l 1x140001
 990 210 l 1x020001
 964 210 l 1x020002
 964 238 l 1x010002
 938 238 l 1x010004
 938 266 l 1
 106 266 l 1x00800c
 106 238 l 1x01000c
 80 238 l 1x010010
 80 210 l 1x020010
 54 210 l 1x020020
 54 182 l 1x040020
 28 182 l 1
 28 154 l 1x140040
 54 154 l 1
 54 126 l 1x280020
 80 126 l 1
 80 98 l 1x500010
 106 98 l 1
 106 70 l 1
 938 70 l 1
 938 98 l 1xa0000c
 964 98 l 1
 964 126 l 1x500002
 990 126 l 1
 990 154 l 1x280001
EndSplineSet
EndChar

StartChar: percent
Encoding: 37 37 186
Width: 1932
Flags: W
HStem: 42 28<1148 1792> 188 28<812 840> 214 28<840 868> 240 28<868 896> 266 28<28 672 896 924 1148 1792> 292 28<924 952> 318 28<952 980> 344 28<980 1008> 490 28<28 672>
VStem: 0 28<294 490> 672 28<294 490> 784 28<42 188> 812 28<190 214> 840 28<216 240> 868 28<242 266> 896 28<268 292> 924 28<294 318> 952 28<320 344> 980 28<346 370> 1008 28<372 518> 1120 28<70 266> 1792 28<70 266>
LayerCount: 2
Fore
SplineSet
1008 372 m 1x81e01c
 1008 518 l 1
 1036 518 l 1
 1036 370 l 1x81e01c
 1008 370 l 1x81e02c
 1008 344 l 1
 980 344 l 1x81e05c
 980 318 l 1
 952 318 l 1x82e0ac
 952 292 l 1
 924 292 l 1x84e14c
 924 266 l 1
 896 266 l 1x88e28c
 896 240 l 1
 868 240 l 1x90e50c
 868 214 l 1
 840 214 l 1xa0ea0c
 840 188 l 1
 812 188 l 1
 812 42 l 1
 784 42 l 1
 784 190 l 1xc0f40c
 812 190 l 1
 812 216 l 1xc0e80c
 840 216 l 1xc0e40c
 840 242 l 1xa0e40c
 868 242 l 1xa0e20c
 868 268 l 1x90e20c
 896 268 l 1x90e10c
 896 294 l 1x88e10c
 924 294 l 1x88e08c
 924 320 l 1x84e08c
 952 320 l 1x84e04c
 952 346 l 1x82e04c
 980 346 l 1x82e02c
 980 372 l 1x81e02c
 1008 372 l 1x81e01c
1120 294 m 1x88e00c
 1820 294 l 1
 1820 42 l 1
 1120 42 l 1
 1120 294 l 1x88e00c
1792 70 m 1
 1792 266 l 1
 1148 266 l 1
 1148 70 l 1
 1792 70 l 1
0 518 m 1
 700 518 l 1
 700 266 l 1
 0 266 l 1
 0 518 l 1
672 294 m 1
 672 490 l 1
 28 490 l 1
 28 294 l 1
 672 294 l 1
EndSplineSet
EndChar

StartChar: dollar
Encoding: 36 36 187
Width: 1260
Flags: W
HStem: 42 28<0 560 588 1042> 70 28<1044 1068> 98 28<1070 1094> 126 28<1096 1120> 266 28<28 560 588 1120> 406 28<28 52> 434 28<54 78> 462 28<80 104> 490 28<106 560 588 1148>
VStem: 0 28<294 406> 26 28<406 434> 52 28<434 462> 78 28<462 490> 560 28<-70 42 70 266 294 490 518 630> 1042 28<70 98> 1068 28<98 126> 1094 28<126 154> 1120 28<154 266>
LayerCount: 2
Fore
SplineSet
588 518 m 1x088c
 1148 518 l 1
 1148 490 l 1
 588 490 l 1
 588 294 l 1
 1148 294 l 1
 1148 154 l 1x188c40
 1122 154 l 1
 1122 126 l 1x188480
 1096 126 l 1x1885
 1096 98 l 1x2805
 1070 98 l 1x2806
 1070 70 l 1
 1044 70 l 1x4806
 1044 42 l 1
 588 42 l 1
 588 -70 l 1
 560 -70 l 1
 560 42 l 1
 0 42 l 1
 0 70 l 1
 560 70 l 1
 560 266 l 1
 0 266 l 1
 0 406 l 1x8c46
 26 406 l 1x8c24
 26 434 l 1x0a24
 52 434 l 1
 52 462 l 1x0d14
 78 462 l 1
 78 490 l 1x0a8c
 104 490 l 1x090c
 104 518 l 1
 560 518 l 1
 560 630 l 1
 588 630 l 1
 588 518 l 1x088c
1120 266 m 1
 588 266 l 1
 588 70 l 1
 1042 70 l 1
 1042 98 l 1xa80640
 1068 98 l 1
 1068 126 l 1x5805
 1094 126 l 1x280480
 1094 154 l 1x180480
 1120 154 l 1
 1120 266 l 1
560 294 m 1
 560 490 l 1
 106 490 l 1x0ccc
 106 462 l 1x094c
 80 462 l 1x0914
 80 434 l 1x0a14
 54 434 l 1x0a24
 54 406 l 1x0c24
 28 406 l 1
 28 294 l 1x0c44
 560 294 l 1
EndSplineSet
EndChar

StartChar: numbersign
Encoding: 35 35 188
Width: 1484
Flags: W
HStem: 42 28<118 144 1014 1040> 70 28<146 170 1042 1066> 98 28<172 196 1068 1092> 126 56<198 224 1094 1120> 154 56<152 178 1048 1074> 154 28<0 152 180 196 224 1048 1076 1092 1120 1260> 210 28<180 204 1076 1100> 238 28<206 230 1102 1126> 266 28<232 256 1128 1152> 294 28<258 282 1154 1178> 322 28<284 308 1180 1204> 350 56<310 336 1206 1232> 378 56<258 284 1154 1180> 378 28<112 258 286 308 336 1154 1182 1204 1232 1372> 434 28<286 310 1182 1206> 462 28<312 336 1208 1232> 490 28<338 364 1234 1260>
VStem: 118 28<42 70> 144 28<70 98> 152 28<182 210> 170 28<98 126> 178 28<210 238> 196 28<126 154> 204 28<238 266> 230 28<266 294> 256 28<294 322 406 434> 282 28<322 350 434 462> 308 28<350 378 462 490> 336 28<490 518> 1014 28<42 70> 1040 28<70 98> 1048 28<182 210> 1066 28<98 126> 1074 28<210 238> 1092 28<126 154> 1100 28<238 266> 1126 28<266 294> 1152 28<294 322 406 434> 1178 28<322 350 434 462> 1204 28<350 378 462 490> 1232 28<490 518>
LayerCount: 2
Fore
SplineSet
1182 406 m 1x000600000080
 1372 406 l 1
 1372 378 l 1
 1232 378 l 1x0006000001
 1232 350 l 1x0010000001
 1206 350 l 1x0010000002
 1206 322 l 1x0020000002
 1180 322 l 1x0020000004
 1180 294 l 1x0040000004
 1154 294 l 1x0040000008
 1154 266 l 1x0080000008
 1128 266 l 1x0080000010
 1128 238 l 1x0100000010
 1102 238 l 1x0100000040
 1102 210 l 1x0200000040
 1076 210 l 1
 1076 182 l 1
 1260 182 l 1
 1260 154 l 1
 1120 154 l 1x060000012080
 1120 126 l 1x100000012080
 1094 126 l 1x1000000080
 1094 98 l 1x2000000080
 1068 98 l 1x20000002
 1068 70 l 1x40000002
 1042 70 l 1x40000004
 1042 42 l 1
 1014 42 l 1
 1014 70 l 1x80000004
 1040 70 l 1
 1040 98 l 1xa0000002
 1066 98 l 1
 1066 126 l 1x5000000080
 1092 126 l 1
 1092 154 l 1
 224 154 l 1x2400020020
 224 126 l 1x1000020020
 198 126 l 1x100008
 198 98 l 1x200008
 172 98 l 1x200020
 172 70 l 1x400020
 146 70 l 1x400040
 146 42 l 1
 118 42 l 1
 118 70 l 1x800040
 144 70 l 1
 144 98 l 1xa00020
 170 98 l 1
 170 126 l 1x500008
 196 126 l 1
 196 154 l 1
 0 154 l 1
 0 182 l 1
 152 182 l 1x240012
 152 210 l 1x080012
 178 210 l 1
 178 238 l 1x090004
 204 238 l 1
 204 266 l 1x028001
 230 266 l 1
 230 294 l 1x01400080
 256 294 l 1
 256 322 l 1x00a00040
 282 322 l 1
 282 350 l 1x00500020
 308 350 l 1
 308 378 l 1
 112 378 l 1
 112 406 l 1
 258 406 l 1x00240090
 258 434 l 1x00080090
 284 434 l 1
 284 462 l 1x00090040
 310 462 l 1
 310 490 l 1x00028020
 336 490 l 1x00010010
 336 518 l 1
 364 518 l 1
 364 490 l 1
 338 490 l 1x00008008
 338 462 l 1
 312 462 l 1x00010008
 312 434 l 1
 286 434 l 1
 286 406 l 1
 1154 406 l 1x0006000808
 1154 434 l 1x0008000808
 1180 434 l 1
 1180 462 l 1x0009000004
 1206 462 l 1
 1206 490 l 1x0002800002
 1232 490 l 1x0001000001
 1232 518 l 1
 1260 518 l 1
 1260 490 l 1
 1234 490 l 1x000080000080
 1234 462 l 1
 1208 462 l 1x000100000080
 1208 434 l 1
 1182 434 l 1
 1182 406 l 1x000600000080
1204 350 m 1x0020000001
 1204 378 l 1
 336 378 l 1x0024001001
 336 350 l 1x0010001001
 310 350 l 1x00100020
 310 322 l 1x00200020
 284 322 l 1x00200040
 284 294 l 1x00400040
 258 294 l 1x00400080
 258 266 l 1x00800080
 232 266 l 1x008001
 232 238 l 1x010001
 206 238 l 1x010004
 206 210 l 1x020004
 180 210 l 1
 180 182 l 1
 1048 182 l 1x06001001
 1048 210 l 1x08001001
 1074 210 l 1
 1074 238 l 1x0900000040
 1100 238 l 1
 1100 266 l 1x0280000010
 1126 266 l 1
 1126 294 l 1x0140000008
 1152 294 l 1
 1152 322 l 1x00a0000004
 1178 322 l 1
 1178 350 l 1x0050000002
 1204 350 l 1x0020000001
EndSplineSet
EndChar

StartChar: quotedbl
Encoding: 34 34 189
Width: 364
Flags: W
HStem: 378 140<0 28 224 252>
VStem: 0 28<378 518> 224 28<378 518>
LayerCount: 2
Fore
SplineSet
0 378 m 1
 0 518 l 1
 28 518 l 1
 28 378 l 1
 0 378 l 1
224 378 m 1
 224 518 l 1
 252 518 l 1
 252 378 l 1
 224 378 l 1
EndSplineSet
EndChar

StartChar: exclam
Encoding: 33 33 190
Width: 140
Flags: W
HStem: 42 28<0 28> 498 20G<0 28>
VStem: 0 28<42 70 266 518>
LayerCount: 2
Fore
SplineSet
0 42 m 1
 0 70 l 1
 28 70 l 1
 28 42 l 1
 0 42 l 1
0 266 m 1
 0 518 l 1
 28 518 l 1
 28 266 l 1
 0 266 l 1
EndSplineSet
EndChar

StartChar: Aring
Encoding: 197 197 191
Width: 1260
Flags: W
HStem: 42 21G<0 28 1120 1148> 42 21G<0 28 1120 1148> 154 28<28 1120> 490 28<28 1120> 602 28<476 560> 714 28<476 560>
VStem: 0 28<42 154 182 490> 448 28<630 714> 560 28<630 714> 1120 28<42 154 182 490>
LayerCount: 2
Fore
SplineSet
448 742 m 1x3fc0
 588 742 l 1
 588 602 l 1
 448 602 l 1
 448 742 l 1x3fc0
560 630 m 1
 560 714 l 1
 476 714 l 1
 476 630 l 1
 560 630 l 1
0 518 m 1
 1148 518 l 1
 1148 42 l 1
 1120 42 l 1
 1120 154 l 1
 28 154 l 1
 28 42 l 1
 0 42 l 1xbfc0
 0 518 l 1
1120 182 m 1
 1120 490 l 1
 28 490 l 1
 28 182 l 1
 1120 182 l 1
EndSplineSet
EndChar

StartChar: Adieresis
Encoding: 196 196 192
Width: 1260
Flags: W
HStem: 42 21G<0 28 1120 1148> 42 21G<0 28 1120 1148> 154 28<28 1120> 490 28<28 1120> 714 28<448 476 672 700>
VStem: 0 28<42 154 182 490> 448 28<714 742> 672 28<714 742> 1120 28<42 154 182 490>
LayerCount: 2
Fore
SplineSet
448 714 m 1x3f80
 448 742 l 1
 476 742 l 1
 476 714 l 1
 448 714 l 1x3f80
672 714 m 1
 672 742 l 1
 700 742 l 1
 700 714 l 1
 672 714 l 1
0 518 m 1
 1148 518 l 1
 1148 42 l 1
 1120 42 l 1
 1120 154 l 1
 28 154 l 1
 28 42 l 1
 0 42 l 1xbf80
 0 518 l 1
1120 182 m 1
 1120 490 l 1
 28 490 l 1
 28 182 l 1
 1120 182 l 1
EndSplineSet
EndChar

StartChar: Atilde
Encoding: 195 195 193
Width: 1260
Flags: W
HStem: 42 21G<0 28 1120 1148> 42 21G<0 28 1120 1148> 154 28<28 1120> 490 28<28 1120> 602 28<558 672> 630 28<532 556> 658 28<506 530> 686 28<480 504> 714 28<364 478>
VStem: 0 28<42 154 182 490> 336 28<602 714> 478 28<686 714> 504 28<658 686> 530 28<630 658> 672 28<630 742> 1120 28<42 154 182 490>
LayerCount: 2
Fore
SplineSet
672 742 m 1x3ae7
 700 742 l 1
 700 602 l 1
 556 602 l 1x3ae7
 556 630 l 1
 530 630 l 1x3467
 530 658 l 1x3267
 504 658 l 1x326b
 504 686 l 1x316b
 478 686 l 1x3173
 478 714 l 1
 364 714 l 1
 364 602 l 1
 336 602 l 1
 336 742 l 1
 480 742 l 1x38f3
 480 714 l 1x3173
 506 714 l 1
 506 686 l 1x32f3
 532 686 l 1
 532 658 l 1x356b
 558 658 l 1
 558 630 l 1
 672 630 l 1
 672 742 l 1x3ae7
0 518 m 1
 1148 518 l 1
 1148 42 l 1
 1120 42 l 1
 1120 154 l 1
 28 154 l 1
 28 42 l 1
 0 42 l 1xb063
 0 518 l 1
1120 182 m 1
 1120 490 l 1
 28 490 l 1
 28 182 l 1
 1120 182 l 1
EndSplineSet
EndChar

StartChar: Acircumflex
Encoding: 194 194 194
Width: 1260
Flags: W
HStem: 42 21G<0 28 1120 1148> 42 21G<0 28 1120 1148> 154 28<28 1120> 490 28<28 1120> 602 28<456 482 666 692> 630 28<484 508 640 664> 658 28<510 534 614 638> 686 28<536 560 588 612> 714 28<562 586>
VStem: 0 28<42 154 182 490> 456 28<602 630> 482 28<630 658> 508 28<658 686> 534 28<686 714> 586 28<686 714> 612 28<658 686> 638 28<630 658> 664 28<602 630> 1120 28<42 154 182 490>
LayerCount: 2
Fore
SplineSet
666 658 m 1x3240a0
 666 630 l 1x3a40a0
 692 630 l 1
 692 602 l 1
 664 602 l 1x3a4060
 664 630 l 1x344060
 638 630 l 1x3440a0
 638 658 l 1x3240a0
 612 658 l 1x324120
 612 686 l 1x314120
 586 686 l 1x314220
 586 714 l 1
 562 714 l 1x30c620
 562 686 l 1x314620
 536 686 l 1x314820
 536 658 l 1x324820
 510 658 l 1x325020
 510 630 l 1x345020
 484 630 l 1x346020
 484 602 l 1
 456 602 l 1
 456 630 l 1x386020
 482 630 l 1
 482 658 l 1x3a5020
 508 658 l 1
 508 686 l 1x354820
 534 686 l 1
 534 714 l 1x32c420
 560 714 l 1x314420
 560 742 l 1
 588 742 l 1x30c420
 588 714 l 1x314420
 614 714 l 1
 614 686 l 1x32c620
 640 686 l 1
 640 658 l 1x354120
 666 658 l 1x3240a0
0 518 m 1
 1148 518 l 1
 1148 42 l 1
 1120 42 l 1
 1120 154 l 1
 28 154 l 1
 28 42 l 1
 0 42 l 1xb04020
 0 518 l 1
1120 182 m 1
 1120 490 l 1
 28 490 l 1
 28 182 l 1
 1120 182 l 1
EndSplineSet
EndChar

StartChar: Aacute
Encoding: 193 193 195
Width: 1260
Flags: W
HStem: 42 21G<0 28 1120 1148> 42 21G<0 28 1120 1148> 154 28<28 1120> 490 28<28 1120> 602 28<448 474> 630 28<476 500> 658 28<502 526> 686 28<528 552> 714 28<554 580>
VStem: 0 28<42 154 182 490> 448 28<602 630> 474 28<630 658> 500 28<658 686> 526 28<686 714> 552 28<714 742> 1120 28<42 154 182 490>
LayerCount: 2
Fore
SplineSet
552 714 m 1x3143
 552 742 l 1
 580 742 l 1
 580 714 l 1x30c3
 554 714 l 1x30c5
 554 686 l 1x3145
 528 686 l 1x3149
 528 658 l 1x3249
 502 658 l 1x3251
 502 630 l 1x3451
 476 630 l 1x3461
 476 602 l 1
 448 602 l 1
 448 630 l 1x3861
 474 630 l 1
 474 658 l 1x3a51
 500 658 l 1
 500 686 l 1x3549
 526 686 l 1
 526 714 l 1x32c5
 552 714 l 1x3143
0 518 m 1
 1148 518 l 1
 1148 42 l 1
 1120 42 l 1
 1120 154 l 1
 28 154 l 1
 28 42 l 1
 0 42 l 1xb041
 0 518 l 1
1120 182 m 1
 1120 490 l 1
 28 490 l 1
 28 182 l 1
 1120 182 l 1
EndSplineSet
EndChar

StartChar: Agrave
Encoding: 192 192 196
Width: 1260
Flags: W
HStem: 42 21G<0 28 1120 1148> 42 21G<0 28 1120 1148> 154 28<28 1120> 490 28<28 1120> 602 28<562 588> 630 28<536 560> 658 28<510 534> 686 28<484 508> 714 28<456 482>
VStem: 0 28<42 154 182 490> 456 28<714 742> 482 28<686 714> 508 28<658 686> 534 28<630 658> 560 28<602 630> 1120 28<42 154 182 490>
LayerCount: 2
Fore
SplineSet
562 658 m 1x3245
 562 630 l 1x3a45
 588 630 l 1
 588 602 l 1
 560 602 l 1x3a43
 560 630 l 1x3443
 534 630 l 1x3445
 534 658 l 1x3245
 508 658 l 1x3249
 508 686 l 1x3149
 482 686 l 1x3151
 482 714 l 1x30d1
 456 714 l 1
 456 742 l 1
 484 742 l 1x30e1
 484 714 l 1x3161
 510 714 l 1
 510 686 l 1x32d1
 536 686 l 1
 536 658 l 1x3549
 562 658 l 1x3245
0 518 m 1
 1148 518 l 1
 1148 42 l 1
 1120 42 l 1
 1120 154 l 1
 28 154 l 1
 28 42 l 1
 0 42 l 1xb041
 0 518 l 1
1120 182 m 1
 1120 490 l 1
 28 490 l 1
 28 182 l 1
 1120 182 l 1
EndSplineSet
EndChar

StartChar: uni01CD
Encoding: 461 461 197
Width: 1260
Flags: W
HStem: 42 21G<0 28 1120 1148> 42 21G<0 28 1120 1148> 154 28<28 1120> 490 28<28 1120> 602 28<562 586> 630 28<536 560 588 612> 658 28<510 534 614 638> 686 28<484 508 640 664> 714 28<456 482 666 692>
VStem: 0 28<42 154 182 490> 456 28<714 742> 482 28<686 714> 508 28<658 686> 534 28<630 658> 586 28<630 658> 612 28<658 686> 638 28<686 714> 664 28<714 742> 1120 28<42 154 182 490>
LayerCount: 2
Fore
SplineSet
664 742 m 1x30c060
 692 742 l 1
 692 714 l 1x30c060
 666 714 l 1x30c0a0
 666 686 l 1x3140a0
 640 686 l 1x314120
 640 658 l 1x324120
 614 658 l 1x324220
 614 630 l 1
 588 630 l 1x344220
 588 602 l 1
 560 602 l 1x384220
 560 630 l 1
 534 630 l 1x344620
 534 658 l 1x324620
 508 658 l 1x324820
 508 686 l 1x314820
 482 686 l 1x315020
 482 714 l 1x30d020
 456 714 l 1
 456 742 l 1
 484 742 l 1x30e020
 484 714 l 1x316020
 510 714 l 1
 510 686 l 1x32d020
 536 686 l 1
 536 658 l 1x354820
 562 658 l 1
 562 630 l 1
 586 630 l 1
 586 658 l 1x3a4620
 612 658 l 1
 612 686 l 1x354120
 638 686 l 1
 638 714 l 1x32c0a0
 664 714 l 1x314060
 664 742 l 1x30c060
0 518 m 1
 1148 518 l 1
 1148 42 l 1
 1120 42 l 1
 1120 154 l 1
 28 154 l 1
 28 42 l 1
 0 42 l 1xb04020
 0 518 l 1
1120 182 m 1
 1120 490 l 1
 28 490 l 1
 28 182 l 1
 1120 182 l 1
EndSplineSet
EndChar

StartChar: Ohungarumlaut
Encoding: 336 336 198
Width: 1260
Flags: W
HStem: 42 28<28 1120> 490 28<28 1120> 602 28<448 474 672 698> 630 28<476 500 700 724> 658 28<502 526 726 750> 686 28<528 552 752 776> 714 28<554 580 778 804>
VStem: 0 28<70 490> 448 28<602 630> 474 28<630 658> 500 28<658 686> 526 28<686 714> 552 28<714 742> 672 28<602 630> 698 28<630 658> 724 28<658 686> 750 28<686 714> 776 28<714 742> 1120 28<70 490>
LayerCount: 2
Fore
SplineSet
552 714 m 1xc50820
 552 742 l 1
 580 742 l 1
 580 714 l 1xc30820
 554 714 l 1xc31020
 554 686 l 1xc51020
 528 686 l 1xc52020
 528 658 l 1xc92020
 502 658 l 1xc94020
 502 630 l 1xd14020
 476 630 l 1xd18020
 476 602 l 1
 448 602 l 1
 448 630 l 1xe18020
 474 630 l 1
 474 658 l 1xe94020
 500 658 l 1
 500 686 l 1xd52020
 526 686 l 1
 526 714 l 1xcb1020
 552 714 l 1xc50820
776 742 m 1xc30060
 804 742 l 1
 804 714 l 1xc30060
 778 714 l 1xc300a0
 778 686 l 1xc500a0
 752 686 l 1xc50120
 752 658 l 1xc90120
 726 658 l 1xc90220
 726 630 l 1xd10220
 700 630 l 1xd10420
 700 602 l 1
 672 602 l 1
 672 630 l 1xe10420
 698 630 l 1
 698 658 l 1xe90220
 724 658 l 1
 724 686 l 1xd50120
 750 686 l 1
 750 714 l 1xcb00a0
 776 714 l 1xc50060
 776 742 l 1xc30060
0 518 m 1
 1148 518 l 1
 1148 42 l 1
 0 42 l 1
 0 518 l 1
1120 70 m 1
 1120 490 l 1
 28 490 l 1
 28 70 l 1
 1120 70 l 1
EndSplineSet
EndChar

StartChar: Emacron
Encoding: 274 274 199
Width: 1260
Flags: W
HStem: 42 28<28 1120> 266 28<28 588> 490 28<28 1120> 714 28<448 700>
VStem: 0 28<70 266 294 490> 1120 28<70 182 378 490>
LayerCount: 2
Fore
SplineSet
448 714 m 1
 448 742 l 1
 700 742 l 1
 700 714 l 1
 448 714 l 1
0 518 m 1
 1148 518 l 1
 1148 378 l 1
 1120 378 l 1
 1120 490 l 1
 28 490 l 1
 28 294 l 1
 588 294 l 1
 588 266 l 1
 28 266 l 1
 28 70 l 1
 1120 70 l 1
 1120 182 l 1
 1148 182 l 1
 1148 42 l 1
 0 42 l 1
 0 518 l 1
EndSplineSet
EndChar

StartChar: Ebreve
Encoding: 276 276 200
Width: 1260
Flags: W
HStem: 42 28<28 1120> 266 28<28 588> 490 28<28 1120> 602 28<442 594> 630 28<416 440 596 620> 658 28<390 414 622 646> 686 28<364 388 648 672> 714 28<336 362 674 700>
VStem: 0 28<70 266 294 490> 336 28<714 742> 362 28<686 714> 388 28<658 686> 414 28<630 658> 594 28<630 658> 620 28<658 686> 646 28<686 714> 672 28<714 742> 1120 28<70 182 378 490>
LayerCount: 2
Fore
SplineSet
672 714 m 1xe280c0
 672 742 l 1
 700 742 l 1
 700 714 l 1xe180c0
 674 714 l 1xe18140
 674 686 l 1xe28140
 648 686 l 1xe28240
 648 658 l 1xe48240
 622 658 l 1xe48440
 622 630 l 1
 596 630 l 1xe88440
 596 602 l 1
 440 602 l 1xf08440
 440 630 l 1
 414 630 l 1xe88c40
 414 658 l 1xe48c40
 388 658 l 1xe49040
 388 686 l 1xe29040
 362 686 l 1xe2a040
 362 714 l 1xe1a040
 336 714 l 1
 336 742 l 1
 364 742 l 1xe1c040
 364 714 l 1xe2c040
 390 714 l 1
 390 686 l 1xe5a040
 416 686 l 1
 416 658 l 1xea9040
 442 658 l 1
 442 630 l 1
 594 630 l 1
 594 658 l 1xf48c40
 620 658 l 1
 620 686 l 1xea8240
 646 686 l 1
 646 714 l 1xe58140
 672 714 l 1xe280c0
0 518 m 1
 1148 518 l 1
 1148 378 l 1
 1120 378 l 1
 1120 490 l 1
 28 490 l 1
 28 294 l 1
 588 294 l 1
 588 266 l 1
 28 266 l 1
 28 70 l 1
 1120 70 l 1
 1120 182 l 1
 1148 182 l 1
 1148 42 l 1
 0 42 l 1
 0 518 l 1
EndSplineSet
EndChar

StartChar: pi
Encoding: 960 960 201
Width: 1148
Flags: W
HStem: 42 28<0 28> 68 28<28 56> 94 28<56 84> 120 28<84 112> 378 28<0 112 140 1008>
VStem: 0 28<42 68> 28 28<70 94> 56 28<96 120> 84 28<122 146> 112 28<148 378> 1008 28<42 378>
LayerCount: 2
Fore
SplineSet
0 406 m 1x1c60
 1036 406 l 1
 1036 42 l 1
 1008 42 l 1
 1008 378 l 1
 140 378 l 1
 140 146 l 1x9c60
 112 146 l 1x98a0
 112 120 l 1
 84 120 l 1x9960
 84 94 l 1
 56 94 l 1x2aa0
 56 68 l 1
 28 68 l 1x4d20
 28 42 l 1
 0 42 l 1
 0 70 l 1x8d20
 28 70 l 1x8a20
 28 96 l 1x4a20
 56 96 l 1x4920
 56 122 l 1x2920
 84 122 l 1x28a0
 84 148 l 1x18a0
 112 148 l 1
 112 378 l 1
 0 378 l 1
 0 406 l 1x1c60
EndSplineSet
EndChar

StartChar: Pi
Encoding: 928 928 202
Width: 1260
Flags: W
HStem: 42 21G<0 28 1120 1148> 42 21G<0 28 1120 1148> 292 28<28 56> 318 28<56 84> 344 28<84 112> 490 28<0 112 140 1120>
VStem: 0 28<42 292> 28 28<294 318> 56 28<320 344> 84 28<346 370> 112 28<372 490> 1120 28<42 490>
LayerCount: 2
Fore
SplineSet
0 518 m 1x0e30
 1148 518 l 1
 1148 42 l 1
 1120 42 l 1
 1120 490 l 1
 140 490 l 1
 140 370 l 1x8e30
 112 370 l 1x8c50
 112 344 l 1
 84 344 l 1x8cb0
 84 318 l 1
 56 318 l 1x1550
 56 292 l 1
 28 292 l 1
 28 42 l 1
 0 42 l 1
 0 294 l 1xa690
 28 294 l 1
 28 320 l 1xa510
 56 320 l 1xa490
 56 346 l 1x1490
 84 346 l 1x1450
 84 372 l 1x0c50
 112 372 l 1
 112 490 l 1
 0 490 l 1
 0 518 l 1x0e30
EndSplineSet
EndChar

StartChar: cacute
Encoding: 263 263 203
Width: 1148
Flags: W
HStem: 42 28<28 1036> 378 28<28 1036> 490 28<448 474> 518 28<476 500> 546 28<502 526> 574 28<528 552> 602 28<554 580>
VStem: 0 28<70 378> 448 28<490 518> 474 28<518 546> 500 28<546 574> 526 28<574 602> 552 28<602 630>
LayerCount: 2
Fore
SplineSet
0 406 m 1xc1
 1036 406 l 1
 1036 378 l 1
 28 378 l 1
 28 70 l 1
 1036 70 l 1
 1036 42 l 1
 0 42 l 1
 0 406 l 1xc1
552 602 m 1xc508
 552 630 l 1
 580 630 l 1
 580 602 l 1xc308
 554 602 l 1xc310
 554 574 l 1xc510
 528 574 l 1xc520
 528 546 l 1xc920
 502 546 l 1xc940
 502 518 l 1xd140
 476 518 l 1xd180
 476 490 l 1
 448 490 l 1
 448 518 l 1xe180
 474 518 l 1
 474 546 l 1xe940
 500 546 l 1
 500 574 l 1xd520
 526 574 l 1
 526 602 l 1xcb10
 552 602 l 1xc508
EndSplineSet
EndChar

StartChar: Cacute
Encoding: 262 262 204
Width: 1260
Flags: W
HStem: 42 28<28 1120> 490 28<28 1120> 602 28<448 474> 630 28<476 500> 658 28<502 526> 686 28<528 552> 714 28<554 580>
VStem: 0 28<70 490> 448 28<602 630> 474 28<630 658> 500 28<658 686> 526 28<686 714> 552 28<714 742> 1120 28<70 182 378 490>
LayerCount: 2
Fore
SplineSet
0 518 m 1xc104
 1148 518 l 1
 1148 378 l 1
 1120 378 l 1
 1120 490 l 1
 28 490 l 1
 28 70 l 1
 1120 70 l 1
 1120 182 l 1
 1148 182 l 1
 1148 42 l 1
 0 42 l 1
 0 518 l 1xc104
552 714 m 1xc50c
 552 742 l 1
 580 742 l 1
 580 714 l 1xc30c
 554 714 l 1xc314
 554 686 l 1xc514
 528 686 l 1xc524
 528 658 l 1xc924
 502 658 l 1xc944
 502 630 l 1xd144
 476 630 l 1xd184
 476 602 l 1
 448 602 l 1
 448 630 l 1xe184
 474 630 l 1
 474 658 l 1xe944
 500 658 l 1
 500 686 l 1xd524
 526 686 l 1
 526 714 l 1xcb14
 552 714 l 1xc50c
EndSplineSet
EndChar

StartChar: nacute
Encoding: 324 324 205
Width: 1148
Flags: W
HStem: 42 21G<0 28 1008 1036> 42 21G<0 28 1008 1036> 378 28<28 1008> 490 28<448 474> 518 28<476 500> 546 28<502 526> 574 28<528 552> 602 28<554 580>
VStem: 0 28<42 378> 448 28<490 518> 474 28<518 546> 500 28<546 574> 526 28<574 602> 552 28<602 630> 1008 28<42 378>
LayerCount: 2
Fore
SplineSet
0 406 m 1xa082
 1036 406 l 1
 1036 42 l 1
 1008 42 l 1
 1008 378 l 1
 28 378 l 1
 28 42 l 1
 0 42 l 1
 0 406 l 1xa082
552 602 m 1x2286
 552 630 l 1
 580 630 l 1
 580 602 l 1x2186
 554 602 l 1x218a
 554 574 l 1x228a
 528 574 l 1x2292
 528 546 l 1x2492
 502 546 l 1x24a2
 502 518 l 1x28a2
 476 518 l 1x28c2
 476 490 l 1
 448 490 l 1
 448 518 l 1x30c2
 474 518 l 1
 474 546 l 1x34a2
 500 546 l 1
 500 574 l 1x2a92
 526 574 l 1
 526 602 l 1x258a
 552 602 l 1x2286
EndSplineSet
EndChar

StartChar: Nacute
Encoding: 323 323 206
Width: 1260
Flags: W
HStem: 42 21G<0 28 1120 1148> 42 21G<0 28 1120 1148> 266 28<588 1120> 490 28<28 560> 602 28<448 474> 630 28<476 500> 658 28<502 526> 686 28<528 552> 714 28<554 580>
VStem: 0 28<42 490> 448 28<602 630> 474 28<630 658> 500 28<658 686> 526 28<686 714> 552 28<714 742> 560 28<294 490> 1120 28<42 266 294 518>
LayerCount: 2
Fore
SplineSet
1120 294 m 1xb04180
 1120 518 l 1
 1148 518 l 1
 1148 42 l 1
 1120 42 l 1
 1120 266 l 1
 560 266 l 1
 560 490 l 1
 28 490 l 1
 28 42 l 1
 0 42 l 1
 0 518 l 1
 588 518 l 1
 588 294 l 1
 1120 294 l 1xb04180
552 714 m 1x314280
 552 742 l 1
 580 742 l 1
 580 714 l 1x30c280
 554 714 l 1x30c480
 554 686 l 1x314480
 528 686 l 1x314880
 528 658 l 1x324880
 502 658 l 1x325080
 502 630 l 1x345080
 476 630 l 1x346080
 476 602 l 1
 448 602 l 1
 448 630 l 1x386080
 474 630 l 1
 474 658 l 1x3a5080
 500 658 l 1
 500 686 l 1x354880
 526 686 l 1
 526 714 l 1x32c480
 552 714 l 1x314280
EndSplineSet
EndChar

StartChar: oacute
Encoding: 243 243 207
Width: 1148
Flags: W
HStem: 42 28<28 1008> 378 28<28 1008> 490 28<448 474> 518 28<476 500> 546 28<502 526> 574 28<528 552> 602 28<554 580>
VStem: 0 28<70 378> 448 28<490 518> 474 28<518 546> 500 28<546 574> 526 28<574 602> 552 28<602 630> 1008 28<70 378>
LayerCount: 2
Fore
SplineSet
0 406 m 1xc104
 1036 406 l 1
 1036 42 l 1
 0 42 l 1
 0 406 l 1xc104
1008 70 m 1
 1008 378 l 1
 28 378 l 1
 28 70 l 1
 1008 70 l 1
552 602 m 1xc50c
 552 630 l 1
 580 630 l 1
 580 602 l 1xc30c
 554 602 l 1xc314
 554 574 l 1xc514
 528 574 l 1xc524
 528 546 l 1xc924
 502 546 l 1xc944
 502 518 l 1xd144
 476 518 l 1xd184
 476 490 l 1
 448 490 l 1
 448 518 l 1xe184
 474 518 l 1
 474 546 l 1xe944
 500 546 l 1
 500 574 l 1xd524
 526 574 l 1
 526 602 l 1xcb14
 552 602 l 1xc50c
EndSplineSet
EndChar

StartChar: Oacute
Encoding: 211 211 208
Width: 1260
Flags: W
HStem: 42 28<28 1120> 490 28<28 1120> 602 28<448 474> 630 28<476 500> 658 28<502 526> 686 28<528 552> 714 28<554 580>
VStem: 0 28<70 490> 448 28<602 630> 474 28<630 658> 500 28<658 686> 526 28<686 714> 552 28<714 742> 1120 28<70 490>
LayerCount: 2
Fore
SplineSet
0 518 m 1xc104
 1148 518 l 1
 1148 42 l 1
 0 42 l 1
 0 518 l 1xc104
1120 70 m 1
 1120 490 l 1
 28 490 l 1
 28 70 l 1
 1120 70 l 1
552 714 m 1xc50c
 552 742 l 1
 580 742 l 1
 580 714 l 1xc30c
 554 714 l 1xc314
 554 686 l 1xc514
 528 686 l 1xc524
 528 658 l 1xc924
 502 658 l 1xc944
 502 630 l 1xd144
 476 630 l 1xd184
 476 602 l 1
 448 602 l 1
 448 630 l 1xe184
 474 630 l 1
 474 658 l 1xe944
 500 658 l 1
 500 686 l 1xd524
 526 686 l 1
 526 714 l 1xcb14
 552 714 l 1xc50c
EndSplineSet
EndChar

StartChar: sacute
Encoding: 347 347 209
Width: 1148
Flags: W
HStem: -70 28<560 1008> 154 28<28 1008> 378 28<28 1036> 490 28<448 474> 518 28<476 500> 546 28<502 526> 574 28<528 552> 602 28<554 580>
VStem: 0 28<182 378> 448 28<490 518> 474 28<518 546> 500 28<546 574> 526 28<574 602> 552 28<602 630> 1008 28<-42 154>
LayerCount: 2
Fore
SplineSet
28 378 m 1xe082
 28 182 l 1
 1036 182 l 1
 1036 -70 l 1
 560 -70 l 1
 560 -42 l 1
 1008 -42 l 1
 1008 154 l 1
 0 154 l 1
 0 406 l 1
 1036 406 l 1
 1036 378 l 1
 28 378 l 1xe082
552 602 m 1xe286
 552 630 l 1
 580 630 l 1
 580 602 l 1xe186
 554 602 l 1xe18a
 554 574 l 1xe28a
 528 574 l 1xe292
 528 546 l 1xe492
 502 546 l 1xe4a2
 502 518 l 1xe8a2
 476 518 l 1xe8c2
 476 490 l 1
 448 490 l 1
 448 518 l 1xf0c2
 474 518 l 1
 474 546 l 1xf4a2
 500 546 l 1
 500 574 l 1xea92
 526 574 l 1
 526 602 l 1xe58a
 552 602 l 1xe286
EndSplineSet
EndChar

StartChar: Sacute
Encoding: 346 346 210
Width: 1260
Flags: W
HStem: 42 28<0 1120> 266 28<28 1120> 490 28<28 1148> 602 28<448 474> 630 28<476 500> 658 28<502 526> 686 28<528 552> 714 28<554 580>
VStem: 0 28<294 490> 448 28<602 630> 474 28<630 658> 500 28<658 686> 526 28<686 714> 552 28<714 742> 1120 28<70 266>
LayerCount: 2
Fore
SplineSet
28 490 m 1xe082
 28 294 l 1
 1148 294 l 1
 1148 42 l 1
 0 42 l 1
 0 70 l 1
 1120 70 l 1
 1120 266 l 1
 0 266 l 1
 0 518 l 1
 1148 518 l 1
 1148 490 l 1
 28 490 l 1xe082
552 714 m 1xe286
 552 742 l 1
 580 742 l 1
 580 714 l 1xe186
 554 714 l 1xe18a
 554 686 l 1xe28a
 528 686 l 1xe292
 528 658 l 1xe492
 502 658 l 1xe4a2
 502 630 l 1xe8a2
 476 630 l 1xe8c2
 476 602 l 1
 448 602 l 1
 448 630 l 1xf0c2
 474 630 l 1
 474 658 l 1xf4a2
 500 658 l 1
 500 686 l 1xea92
 526 686 l 1
 526 714 l 1xe58a
 552 714 l 1xe286
EndSplineSet
EndChar

StartChar: zacute
Encoding: 378 378 211
Width: 1148
Flags: W
HStem: -70 28<28 476> 154 28<28 1008> 378 28<0 1008> 490 28<448 474> 518 28<476 500> 546 28<502 526> 574 28<528 552> 602 28<554 580>
VStem: 0 28<-42 154> 448 28<490 518> 474 28<518 546> 500 28<546 574> 526 28<574 602> 552 28<602 630> 1008 28<182 378>
LayerCount: 2
Fore
SplineSet
0 406 m 1xe0c2
 1036 406 l 1
 1036 154 l 1
 28 154 l 1
 28 -42 l 1
 476 -42 l 1
 476 -70 l 1
 0 -70 l 1
 0 182 l 1
 1008 182 l 1
 1008 378 l 1
 0 378 l 1
 0 406 l 1xe0c2
552 602 m 1xe286
 552 630 l 1
 580 630 l 1
 580 602 l 1xe186
 554 602 l 1xe18a
 554 574 l 1xe28a
 528 574 l 1xe292
 528 546 l 1xe492
 502 546 l 1xe4a2
 502 518 l 1xe8a2
 476 518 l 1xe8c2
 476 490 l 1
 448 490 l 1
 448 518 l 1xf0c2
 474 518 l 1
 474 546 l 1xf4a2
 500 546 l 1
 500 574 l 1xea92
 526 574 l 1
 526 602 l 1xe58a
 552 602 l 1xe286
EndSplineSet
EndChar

StartChar: Zacute
Encoding: 377 377 212
Width: 1260
Flags: W
HStem: 42 28<28 1148> 266 28<28 1120> 490 28<0 1120> 602 28<448 474> 630 28<476 500> 658 28<502 526> 686 28<528 552> 714 28<554 580>
VStem: 0 28<70 266> 448 28<602 630> 474 28<630 658> 500 28<658 686> 526 28<686 714> 552 28<714 742> 1120 28<294 490>
LayerCount: 2
Fore
SplineSet
0 518 m 1xe082
 1148 518 l 1
 1148 266 l 1
 28 266 l 1
 28 70 l 1
 1148 70 l 1
 1148 42 l 1
 0 42 l 1
 0 294 l 1
 1120 294 l 1
 1120 490 l 1
 0 490 l 1
 0 518 l 1xe082
552 714 m 1xe286
 552 742 l 1
 580 742 l 1
 580 714 l 1xe186
 554 714 l 1xe18a
 554 686 l 1xe28a
 528 686 l 1xe292
 528 658 l 1xe492
 502 658 l 1xe4a2
 502 630 l 1xe8a2
 476 630 l 1xe8c2
 476 602 l 1
 448 602 l 1
 448 630 l 1xf0c2
 474 630 l 1
 474 658 l 1xf4a2
 500 658 l 1
 500 686 l 1xea92
 526 686 l 1
 526 714 l 1xe58a
 552 714 l 1xe286
EndSplineSet
EndChar

StartChar: eacute
Encoding: 233 233 213
Width: 1148
Flags: W
HStem: -70 28<28 476> 154 28<224 1008> 378 28<28 1008> 490 28<448 474> 518 28<476 500> 546 28<502 526> 574 28<528 552> 602 28<554 580>
VStem: 0 28<-42 378> 448 28<490 518> 474 28<518 546> 500 28<546 574> 526 28<574 602> 552 28<602 630> 1008 28<182 378>
LayerCount: 2
Fore
SplineSet
0 406 m 1xe0c2
 1036 406 l 1
 1036 154 l 1
 224 154 l 1
 224 182 l 1
 1008 182 l 1
 1008 378 l 1
 28 378 l 1
 28 -42 l 1
 476 -42 l 1
 476 -70 l 1
 0 -70 l 1
 0 406 l 1xe0c2
552 602 m 1xe286
 552 630 l 1
 580 630 l 1
 580 602 l 1xe186
 554 602 l 1xe18a
 554 574 l 1xe28a
 528 574 l 1xe292
 528 546 l 1xe492
 502 546 l 1xe4a2
 502 518 l 1xe8a2
 476 518 l 1xe8c2
 476 490 l 1
 448 490 l 1
 448 518 l 1xf0c2
 474 518 l 1
 474 546 l 1xf4a2
 500 546 l 1
 500 574 l 1xea92
 526 574 l 1
 526 602 l 1xe58a
 552 602 l 1xe286
EndSplineSet
EndChar

StartChar: Eacute
Encoding: 201 201 214
Width: 1260
Flags: W
HStem: 42 28<28 1120> 266 28<28 588> 490 28<28 1120> 602 28<448 474> 630 28<476 500> 658 28<502 526> 686 28<528 552> 714 28<554 580>
VStem: 0 28<70 266 294 490> 448 28<602 630> 474 28<630 658> 500 28<658 686> 526 28<686 714> 552 28<714 742> 1120 28<70 182 378 490>
LayerCount: 2
Fore
SplineSet
0 518 m 1xe082
 1148 518 l 1
 1148 378 l 1
 1120 378 l 1
 1120 490 l 1
 28 490 l 1
 28 294 l 1
 588 294 l 1
 588 266 l 1
 28 266 l 1
 28 70 l 1
 1120 70 l 1
 1120 182 l 1
 1148 182 l 1
 1148 42 l 1
 0 42 l 1
 0 518 l 1xe082
552 714 m 1xe286
 552 742 l 1
 580 742 l 1
 580 714 l 1xe186
 554 714 l 1xe18a
 554 686 l 1xe28a
 528 686 l 1xe292
 528 658 l 1xe492
 502 658 l 1xe4a2
 502 630 l 1xe8a2
 476 630 l 1xe8c2
 476 602 l 1
 448 602 l 1
 448 630 l 1xf0c2
 474 630 l 1
 474 658 l 1xf4a2
 500 658 l 1
 500 686 l 1xea92
 526 686 l 1
 526 714 l 1xe58a
 552 714 l 1xe286
EndSplineSet
EndChar

StartChar: egrave
Encoding: 232 232 215
Width: 1148
Flags: W
HStem: -70 28<28 476> 154 28<224 1008> 378 28<28 1008> 490 28<562 588> 518 28<536 560> 546 28<510 534> 574 28<484 508> 602 28<456 482>
VStem: 0 28<-42 378> 456 28<602 630> 482 28<574 602> 508 28<546 574> 534 28<518 546> 560 28<490 518> 1008 28<182 378>
LayerCount: 2
Fore
SplineSet
0 406 m 1xe082
 1036 406 l 1
 1036 154 l 1
 224 154 l 1
 224 182 l 1
 1008 182 l 1
 1008 378 l 1
 28 378 l 1
 28 -42 l 1
 476 -42 l 1
 476 -70 l 1
 0 -70 l 1
 0 406 l 1xe082
562 546 m 1xe48a
 562 518 l 1xf48a
 588 518 l 1
 588 490 l 1
 560 490 l 1xf486
 560 518 l 1xe886
 534 518 l 1xe88a
 534 546 l 1xe48a
 508 546 l 1xe492
 508 574 l 1xe292
 482 574 l 1xe2a2
 482 602 l 1xe1a2
 456 602 l 1
 456 630 l 1
 484 630 l 1xe1c2
 484 602 l 1xe2c2
 510 602 l 1
 510 574 l 1xe5a2
 536 574 l 1
 536 546 l 1xea92
 562 546 l 1xe48a
EndSplineSet
EndChar

StartChar: Egrave
Encoding: 200 200 216
Width: 1260
Flags: W
HStem: 42 28<28 1120> 266 28<28 588> 490 28<28 1120> 602 28<562 588> 630 28<536 560> 658 28<510 534> 686 28<484 508> 714 28<456 482>
VStem: 0 28<70 266 294 490> 456 28<714 742> 482 28<686 714> 508 28<658 686> 534 28<630 658> 560 28<602 630> 1120 28<70 182 378 490>
LayerCount: 2
Fore
SplineSet
0 518 m 1xe086
 1148 518 l 1
 1148 378 l 1
 1120 378 l 1
 1120 490 l 1
 28 490 l 1
 28 294 l 1
 588 294 l 1
 588 266 l 1
 28 266 l 1
 28 70 l 1
 1120 70 l 1
 1120 182 l 1
 1148 182 l 1
 1148 42 l 1
 0 42 l 1
 0 518 l 1xe086
562 658 m 1xe48a
 562 630 l 1xf48a
 588 630 l 1
 588 602 l 1
 560 602 l 1xf486
 560 630 l 1xe886
 534 630 l 1xe88a
 534 658 l 1xe48a
 508 658 l 1xe492
 508 686 l 1xe292
 482 686 l 1xe2a2
 482 714 l 1xe1a2
 456 714 l 1
 456 742 l 1
 484 742 l 1xe1c2
 484 714 l 1xe2c2
 510 714 l 1
 510 686 l 1xe5a2
 536 686 l 1
 536 658 l 1xea92
 562 658 l 1xe48a
EndSplineSet
EndChar

StartChar: ecaron
Encoding: 283 283 217
Width: 1148
Flags: W
HStem: -70 28<28 476> 154 28<224 1008> 378 28<28 1008> 490 28<450 474> 518 28<424 448 476 500> 546 28<398 422 502 526> 574 28<372 396 528 552> 602 28<344 370 554 580>
VStem: 0 28<-42 378> 344 28<602 630> 370 28<574 602> 396 28<546 574> 422 28<518 546> 448 28<490 518> 474 28<518 546> 500 28<546 574> 526 28<574 602> 552 28<602 630> 1008 28<182 378>
LayerCount: 2
Fore
SplineSet
0 406 m 1xe08420
 1036 406 l 1
 1036 154 l 1
 224 154 l 1
 224 182 l 1
 1008 182 l 1
 1008 378 l 1
 28 378 l 1
 28 -42 l 1
 476 -42 l 1
 476 -70 l 1
 0 -70 l 1
 0 406 l 1xe08420
552 602 m 1xe28060
 552 630 l 1
 580 630 l 1
 580 602 l 1xe18060
 554 602 l 1xe180a0
 554 574 l 1xe280a0
 528 574 l 1xe28120
 528 546 l 1xe48120
 502 546 l 1xe48220
 502 518 l 1xe88220
 476 518 l 1xe88420
 476 490 l 1
 448 490 l 1xf08420
 448 518 l 1xe88420
 422 518 l 1xe88820
 422 546 l 1xe48820
 396 546 l 1xe49020
 396 574 l 1xe29020
 370 574 l 1xe2a020
 370 602 l 1xe1a020
 344 602 l 1
 344 630 l 1
 372 630 l 1xe1c020
 372 602 l 1xe2c020
 398 602 l 1
 398 574 l 1xe5a020
 424 574 l 1
 424 546 l 1xea9020
 450 546 l 1
 450 518 l 1
 474 518 l 1
 474 546 l 1xf48a20
 500 546 l 1
 500 574 l 1xea8120
 526 574 l 1
 526 602 l 1xe580a0
 552 602 l 1xe28060
EndSplineSet
EndChar

StartChar: Ecaron
Encoding: 282 282 218
Width: 1260
Flags: W
HStem: 42 28<28 1120> 266 28<28 588> 490 28<28 1120> 602 28<562 586> 630 28<536 560 588 612> 658 28<510 534 614 638> 686 28<484 508 640 664> 714 28<456 482 666 692>
VStem: 0 28<70 266 294 490> 456 28<714 742> 482 28<686 714> 508 28<658 686> 534 28<630 658> 560 28<602 630> 586 28<630 658> 612 28<658 686> 638 28<686 714> 664 28<714 742> 1120 28<70 182 378 490>
LayerCount: 2
Fore
SplineSet
0 518 m 1xe08420
 1148 518 l 1
 1148 378 l 1
 1120 378 l 1
 1120 490 l 1
 28 490 l 1
 28 294 l 1
 588 294 l 1
 588 266 l 1
 28 266 l 1
 28 70 l 1
 1120 70 l 1
 1120 182 l 1
 1148 182 l 1
 1148 42 l 1
 0 42 l 1
 0 518 l 1xe08420
664 742 m 1xe18060
 692 742 l 1
 692 714 l 1xe18060
 666 714 l 1xe180a0
 666 686 l 1xe280a0
 640 686 l 1xe28120
 640 658 l 1xe48120
 614 658 l 1xe48220
 614 630 l 1xe88220
 588 630 l 1xe88420
 588 602 l 1
 560 602 l 1xf08420
 560 630 l 1xe88420
 534 630 l 1xe88820
 534 658 l 1xe48820
 508 658 l 1xe49020
 508 686 l 1xe29020
 482 686 l 1xe2a020
 482 714 l 1xe1a020
 456 714 l 1
 456 742 l 1
 484 742 l 1xe1c020
 484 714 l 1xe2c020
 510 714 l 1
 510 686 l 1xe5a020
 536 686 l 1
 536 658 l 1xea9020
 562 658 l 1
 562 630 l 1
 586 630 l 1
 586 658 l 1xf48a20
 612 658 l 1
 612 686 l 1xea8120
 638 686 l 1
 638 714 l 1xe580a0
 664 714 l 1xe28060
 664 742 l 1xe18060
EndSplineSet
EndChar

StartChar: ecircumflex
Encoding: 234 234 219
Width: 1148
Flags: W
HStem: -70 28<28 476> 154 28<224 1008> 378 28<28 1008> 490 28<344 370 554 580> 518 28<372 396 528 552> 546 28<398 422 502 526> 574 28<424 448 476 500> 602 28<450 474>
VStem: 0 28<-42 378> 344 28<490 518> 370 28<518 546> 396 28<546 574> 422 28<574 602> 448 28<602 630> 474 28<574 602> 500 28<546 574> 526 28<518 546> 552 28<490 518> 1008 28<182 378>
LayerCount: 2
Fore
SplineSet
0 406 m 1xe08420
 1036 406 l 1
 1036 154 l 1
 224 154 l 1
 224 182 l 1
 1008 182 l 1
 1008 378 l 1
 28 378 l 1
 28 -42 l 1
 476 -42 l 1
 476 -70 l 1
 0 -70 l 1
 0 406 l 1xe08420
554 546 m 1xe480a0
 554 518 l 1xf480a0
 580 518 l 1
 580 490 l 1
 552 490 l 1xf48060
 552 518 l 1xe88060
 526 518 l 1xe880a0
 526 546 l 1xe480a0
 500 546 l 1xe48120
 500 574 l 1xe28120
 474 574 l 1xe28220
 474 602 l 1
 450 602 l 1xe18a20
 450 574 l 1xe28a20
 424 574 l 1xe29020
 424 546 l 1xe49020
 398 546 l 1xe4a020
 398 518 l 1xe8a020
 372 518 l 1xe8c020
 372 490 l 1
 344 490 l 1
 344 518 l 1xf0c020
 370 518 l 1
 370 546 l 1xf4a020
 396 546 l 1
 396 574 l 1xea9020
 422 574 l 1
 422 602 l 1xe58820
 448 602 l 1xe28420
 448 630 l 1
 476 630 l 1xe18420
 476 602 l 1xe28420
 502 602 l 1
 502 574 l 1xe58220
 528 574 l 1
 528 546 l 1xea8120
 554 546 l 1xe480a0
EndSplineSet
EndChar

StartChar: Ecircumflex
Encoding: 202 202 220
Width: 1260
Flags: W
HStem: 42 28<28 1120> 266 28<28 588> 490 28<28 1120> 602 28<456 482 666 692> 630 28<484 508 640 664> 658 28<510 534 614 638> 686 28<536 560 588 612> 714 28<562 586>
VStem: 0 28<70 266 294 490> 456 28<602 630> 482 28<630 658> 508 28<658 686> 534 28<686 714> 560 28<714 742> 586 28<686 714> 612 28<658 686> 638 28<630 658> 664 28<602 630> 1120 28<70 182 378 490>
LayerCount: 2
Fore
SplineSet
0 518 m 1xe08420
 1148 518 l 1
 1148 378 l 1
 1120 378 l 1
 1120 490 l 1
 28 490 l 1
 28 294 l 1
 588 294 l 1
 588 266 l 1
 28 266 l 1
 28 70 l 1
 1120 70 l 1
 1120 182 l 1
 1148 182 l 1
 1148 42 l 1
 0 42 l 1
 0 518 l 1xe08420
666 658 m 1xe480a0
 666 630 l 1xf480a0
 692 630 l 1
 692 602 l 1
 664 602 l 1xf48060
 664 630 l 1xe88060
 638 630 l 1xe880a0
 638 658 l 1xe480a0
 612 658 l 1xe48120
 612 686 l 1xe28120
 586 686 l 1xe28220
 586 714 l 1
 562 714 l 1xe18a20
 562 686 l 1xe28a20
 536 686 l 1xe29020
 536 658 l 1xe49020
 510 658 l 1xe4a020
 510 630 l 1xe8a020
 484 630 l 1xe8c020
 484 602 l 1
 456 602 l 1
 456 630 l 1xf0c020
 482 630 l 1
 482 658 l 1xf4a020
 508 658 l 1
 508 686 l 1xea9020
 534 686 l 1
 534 714 l 1xe58820
 560 714 l 1xe28420
 560 742 l 1
 588 742 l 1xe18420
 588 714 l 1xe28420
 614 714 l 1
 614 686 l 1xe58220
 640 686 l 1
 640 658 l 1xea8120
 666 658 l 1xe480a0
EndSplineSet
EndChar

StartChar: edieresis
Encoding: 235 235 221
Width: 1148
Flags: W
HStem: -70 28<28 476> 154 28<224 1008> 378 28<28 1008> 602 28<336 364 560 588>
VStem: 0 28<-42 378> 336 28<602 630> 560 28<602 630> 1008 28<182 378>
LayerCount: 2
Fore
SplineSet
0 406 m 1
 1036 406 l 1
 1036 154 l 1
 224 154 l 1
 224 182 l 1
 1008 182 l 1
 1008 378 l 1
 28 378 l 1
 28 -42 l 1
 476 -42 l 1
 476 -70 l 1
 0 -70 l 1
 0 406 l 1
336 602 m 1
 336 630 l 1
 364 630 l 1
 364 602 l 1
 336 602 l 1
560 602 m 1
 560 630 l 1
 588 630 l 1
 588 602 l 1
 560 602 l 1
EndSplineSet
EndChar

StartChar: Edieresis
Encoding: 203 203 222
Width: 1260
Flags: W
HStem: 42 28<28 1120> 266 28<28 588> 490 28<28 1120> 714 28<448 476 672 700>
VStem: 0 28<70 266 294 490> 448 28<714 742> 672 28<714 742> 1120 28<70 182 378 490>
LayerCount: 2
Fore
SplineSet
0 518 m 1
 1148 518 l 1
 1148 378 l 1
 1120 378 l 1
 1120 490 l 1
 28 490 l 1
 28 294 l 1
 588 294 l 1
 588 266 l 1
 28 266 l 1
 28 70 l 1
 1120 70 l 1
 1120 182 l 1
 1148 182 l 1
 1148 42 l 1
 0 42 l 1
 0 518 l 1
448 714 m 1
 448 742 l 1
 476 742 l 1
 476 714 l 1
 448 714 l 1
672 714 m 1
 672 742 l 1
 700 742 l 1
 700 714 l 1
 672 714 l 1
EndSplineSet
EndChar

StartChar: iacute
Encoding: 237 237 223
Width: 244
Flags: W
HStem: 42 21G<0 28> 42 21G<0 28> 386 20G<0 28> 490 28<0 26> 518 28<28 52> 546 28<54 78> 574 28<80 104> 602 28<106 132>
VStem: 0 28<42 406 490 518> 26 28<518 546> 52 28<546 574> 78 28<574 602> 104 28<602 630>
LayerCount: 2
Fore
SplineSet
0 42 m 1xa080
 0 406 l 1
 28 406 l 1
 28 42 l 1
 0 42 l 1xa080
104 602 m 5x2208
 104 630 l 5
 132 630 l 5
 132 602 l 5x2108
 106 602 l 5x2110
 106 574 l 5x2210
 80 574 l 5x2220
 80 546 l 5x2420
 54 546 l 5x2440
 54 518 l 5x2840
 28 518 l 5x2880
 28 490 l 5
 0 490 l 5
 0 518 l 5x3080
 26 518 l 5
 26 546 l 5x3440
 52 546 l 5
 52 574 l 5x2a20
 78 574 l 5
 78 602 l 5x2510
 104 602 l 5x2208
EndSplineSet
EndChar

StartChar: Iacute
Encoding: 205 205 224
Width: 244
Flags: W
HStem: 42 21G<0 28> 42 21G<0 28> 498 20G<0 28> 602 28<0 26> 630 28<28 52> 658 28<54 78> 686 28<80 104> 714 28<106 132>
VStem: 0 28<42 518 602 630> 26 28<630 658> 52 28<658 686> 78 28<686 714> 104 28<714 742>
LayerCount: 2
Fore
SplineSet
0 42 m 1xa080
 0 518 l 1
 28 518 l 1
 28 42 l 1
 0 42 l 1xa080
104 714 m 5x2208
 104 742 l 5
 132 742 l 5
 132 714 l 5x2108
 106 714 l 5x2110
 106 686 l 5x2210
 80 686 l 5x2220
 80 658 l 5x2420
 54 658 l 5x2440
 54 630 l 5x2840
 28 630 l 5x2880
 28 602 l 5
 0 602 l 5
 0 630 l 5x3080
 26 630 l 5
 26 658 l 5x3440
 52 658 l 5
 52 686 l 5x2a20
 78 686 l 5
 78 714 l 5x2510
 104 714 l 5x2208
EndSplineSet
EndChar

StartChar: igrave
Encoding: 236 236 225
Width: 244
Flags: W
HStem: 42 21G<104 132> 42 21G<104 132> 386 20G<104 132> 490 28<106 132> 518 28<80 104> 546 28<54 78> 574 28<28 52> 602 28<0 26>
VStem: 0 28<602 630> 26 28<574 602> 52 28<546 574> 78 28<518 546> 104 28<42 406 490 518>
LayerCount: 2
Fore
SplineSet
104 42 m 1xa008
 104 406 l 1
 132 406 l 1
 132 42 l 1
 104 42 l 1xa008
106 546 m 5x2410
 106 518 l 5x3410
 132 518 l 5
 132 490 l 5
 104 490 l 5x3408
 104 518 l 5x2808
 78 518 l 5x2810
 78 546 l 5x2410
 52 546 l 5x2420
 52 574 l 5x2220
 26 574 l 5x2240
 26 602 l 5x2140
 0 602 l 5
 0 630 l 5
 28 630 l 5x2180
 28 602 l 5x2280
 54 602 l 5
 54 574 l 5x2540
 80 574 l 5
 80 546 l 5x2a20
 106 546 l 5x2410
EndSplineSet
EndChar

StartChar: Igrave
Encoding: 204 204 226
Width: 244
Flags: W
HStem: 42 21G<104 132> 42 21G<104 132> 498 20G<104 132> 602 28<106 132> 630 28<80 104> 658 28<54 78> 686 28<28 52> 714 28<0 26>
VStem: 0 28<714 742> 26 28<686 714> 52 28<658 686> 78 28<630 658> 104 28<42 518 602 630>
LayerCount: 2
Fore
SplineSet
104 42 m 1xa008
 104 518 l 1
 132 518 l 1
 132 42 l 1
 104 42 l 1xa008
106 658 m 1x2410
 106 630 l 1x3410
 132 630 l 1
 132 602 l 1
 104 602 l 1x3408
 104 630 l 1x2808
 78 630 l 1x2810
 78 658 l 1x2410
 52 658 l 1x2420
 52 686 l 1x2220
 26 686 l 1x2240
 26 714 l 1x2140
 0 714 l 1
 0 742 l 1
 28 742 l 1x2180
 28 714 l 1x2280
 54 714 l 1
 54 686 l 1x2540
 80 686 l 1
 80 658 l 1x2a20
 106 658 l 1x2410
EndSplineSet
EndChar

StartChar: icircumflex
Encoding: 238 238 227
Width: 348
Flags: W
HStem: 42 21G<104 132> 42 21G<104 132> 386 20G<104 132> 490 28<0 26 210 236> 518 28<28 52 184 208> 546 28<54 78 158 182> 574 28<80 104 132 156> 602 28<106 130>
VStem: 0 28<490 518> 26 28<518 546> 52 28<546 574> 78 28<574 602> 104 28<42 406 602 630> 130 28<574 602> 156 28<546 574> 182 28<518 546> 208 28<490 518>
LayerCount: 2
Fore
SplineSet
104 42 m 1xa008
 104 406 l 1
 132 406 l 1
 132 42 l 1
 104 42 l 1xa008
210 546 m 5x2401
 210 518 l 5x3401
 236 518 l 5
 236 490 l 5
 208 490 l 5x340080
 208 518 l 5x280080
 182 518 l 5x2801
 182 546 l 5x2401
 156 546 l 5x2402
 156 574 l 5x2202
 130 574 l 5x2204
 130 602 l 5
 106 602 l 5x2114
 106 574 l 5x2214
 80 574 l 5x2220
 80 546 l 5x2420
 54 546 l 5x2440
 54 518 l 5x2840
 28 518 l 5x2880
 28 490 l 5
 0 490 l 5
 0 518 l 5x3080
 26 518 l 5
 26 546 l 5x3440
 52 546 l 5
 52 574 l 5x2a20
 78 574 l 5
 78 602 l 5x2510
 104 602 l 5x2208
 104 630 l 5
 132 630 l 5x2108
 132 602 l 5x2208
 158 602 l 5
 158 574 l 5x2504
 184 574 l 5
 184 546 l 5x2a02
 210 546 l 5x2401
EndSplineSet
EndChar

StartChar: Icircumflex
Encoding: 206 206 228
Width: 348
Flags: W
HStem: 42 21G<104 132> 42 21G<104 132> 498 20G<104 132> 602 28<0 26 210 236> 630 28<28 52 184 208> 658 28<54 78 158 182> 686 28<80 104 132 156> 714 28<106 130>
VStem: 0 28<602 630> 26 28<630 658> 52 28<658 686> 78 28<686 714> 104 28<42 518 714 742> 130 28<686 714> 156 28<658 686> 182 28<630 658> 208 28<602 630>
LayerCount: 2
Fore
SplineSet
104 42 m 1xa008
 104 518 l 1
 132 518 l 1
 132 42 l 1
 104 42 l 1xa008
210 658 m 1x2401
 210 630 l 1x3401
 236 630 l 1
 236 602 l 1
 208 602 l 1x340080
 208 630 l 1x280080
 182 630 l 1x2801
 182 658 l 1x2401
 156 658 l 1x2402
 156 686 l 1x2202
 130 686 l 1x2204
 130 714 l 1
 106 714 l 1x2114
 106 686 l 1x2214
 80 686 l 1x2220
 80 658 l 1x2420
 54 658 l 1x2440
 54 630 l 1x2840
 28 630 l 1x2880
 28 602 l 1
 0 602 l 1
 0 630 l 1x3080
 26 630 l 1
 26 658 l 1x3440
 52 658 l 1
 52 686 l 1x2a20
 78 686 l 1
 78 714 l 1x2510
 104 714 l 1x2208
 104 742 l 1
 132 742 l 1x2108
 132 714 l 1x2208
 158 714 l 1
 158 686 l 1x2504
 184 686 l 1
 184 658 l 1x2a02
 210 658 l 1x2401
EndSplineSet
EndChar

StartChar: idieresis
Encoding: 239 239 229
Width: 364
Flags: W
HStem: 42 21G<112 140> 42 21G<112 140> 386 20G<112 140> 602 28<0 28 224 252>
VStem: 0 28<602 630> 112 28<42 406> 224 28<602 630>
CounterMasks: 1 0e
LayerCount: 2
Fore
SplineSet
112 42 m 1xbe
 112 406 l 1
 140 406 l 1
 140 42 l 1
 112 42 l 1xbe
0 602 m 5
 0 630 l 5
 28 630 l 5
 28 602 l 5
 0 602 l 5
224 602 m 5
 224 630 l 5
 252 630 l 5
 252 602 l 5
 224 602 l 5
EndSplineSet
EndChar

StartChar: Idieresis
Encoding: 207 207 230
Width: 364
Flags: W
HStem: 42 21G<112 140> 42 21G<112 140> 498 20G<112 140> 714 28<0 28 224 252>
VStem: 0 28<714 742> 112 28<42 518> 224 28<714 742>
CounterMasks: 1 0e
LayerCount: 2
Fore
SplineSet
112 42 m 1xbe
 112 518 l 1
 140 518 l 1
 140 42 l 1
 112 42 l 1xbe
0 714 m 1
 0 742 l 1
 28 742 l 1
 28 714 l 1
 0 714 l 1
224 714 m 1
 224 742 l 1
 252 742 l 1
 252 714 l 1
 224 714 l 1
EndSplineSet
EndChar

StartChar: ograve
Encoding: 242 242 231
Width: 1148
Flags: W
HStem: 42 28<28 1008> 378 28<28 1008> 490 28<562 588> 518 28<536 560> 546 28<510 534> 574 28<484 508> 602 28<456 482>
VStem: 0 28<70 378> 456 28<602 630> 482 28<574 602> 508 28<546 574> 534 28<518 546> 560 28<490 518> 1008 28<70 378>
LayerCount: 2
Fore
SplineSet
0 406 m 1xc104
 1036 406 l 1
 1036 42 l 1
 0 42 l 1
 0 406 l 1xc104
1008 70 m 1
 1008 378 l 1
 28 378 l 1
 28 70 l 1
 1008 70 l 1
562 546 m 1xc914
 562 518 l 1xe914
 588 518 l 1
 588 490 l 1
 560 490 l 1xe90c
 560 518 l 1xd10c
 534 518 l 1xd114
 534 546 l 1xc914
 508 546 l 1xc924
 508 574 l 1xc524
 482 574 l 1xc544
 482 602 l 1xc344
 456 602 l 1
 456 630 l 1
 484 630 l 1xc384
 484 602 l 1xc584
 510 602 l 1
 510 574 l 1xcb44
 536 574 l 1
 536 546 l 1xd524
 562 546 l 1xc914
EndSplineSet
EndChar

StartChar: Ograve
Encoding: 210 210 232
Width: 1260
Flags: W
HStem: 42 28<28 1120> 490 28<28 1120> 602 28<562 588> 630 28<536 560> 658 28<510 534> 686 28<484 508> 714 28<456 482>
VStem: 0 28<70 490> 456 28<714 742> 482 28<686 714> 508 28<658 686> 534 28<630 658> 560 28<602 630> 1120 28<70 490>
LayerCount: 2
Fore
SplineSet
0 518 m 1xc104
 1148 518 l 1
 1148 42 l 1
 0 42 l 1
 0 518 l 1xc104
1120 70 m 1
 1120 490 l 1
 28 490 l 1
 28 70 l 1
 1120 70 l 1
562 658 m 1xc914
 562 630 l 1xe914
 588 630 l 1
 588 602 l 1
 560 602 l 1xe90c
 560 630 l 1xd10c
 534 630 l 1xd114
 534 658 l 1xc914
 508 658 l 1xc924
 508 686 l 1xc524
 482 686 l 1xc544
 482 714 l 1xc344
 456 714 l 1
 456 742 l 1
 484 742 l 1xc384
 484 714 l 1xc584
 510 714 l 1
 510 686 l 1xcb44
 536 686 l 1
 536 658 l 1xd524
 562 658 l 1xc914
EndSplineSet
EndChar

StartChar: ocircumflex
Encoding: 244 244 233
Width: 1148
Flags: W
HStem: 42 28<28 1008> 378 28<28 1008> 490 28<344 370 554 580> 518 28<372 396 528 552> 546 28<398 422 502 526> 574 28<424 448 476 500> 602 28<450 474>
VStem: 0 28<70 378> 344 28<490 518> 370 28<518 546> 396 28<546 574> 422 28<574 602> 474 28<574 602> 500 28<546 574> 526 28<518 546> 552 28<490 518> 1008 28<70 378>
LayerCount: 2
Fore
SplineSet
0 406 m 1xc10080
 1036 406 l 1
 1036 42 l 1
 0 42 l 1
 0 406 l 1xc10080
1008 70 m 1
 1008 378 l 1
 28 378 l 1
 28 70 l 1
 1008 70 l 1
554 546 m 1xc90280
 554 518 l 1xe90280
 580 518 l 1
 580 490 l 1
 552 490 l 1xe90180
 552 518 l 1xd10180
 526 518 l 1xd10280
 526 546 l 1xc90280
 500 546 l 1xc90480
 500 574 l 1xc50480
 474 574 l 1xc50880
 474 602 l 1
 450 602 l 1xc31880
 450 574 l 1xc51880
 424 574 l 1xc52080
 424 546 l 1xc92080
 398 546 l 1xc94080
 398 518 l 1xd14080
 372 518 l 1xd18080
 372 490 l 1
 344 490 l 1
 344 518 l 1xe18080
 370 518 l 1
 370 546 l 1xe94080
 396 546 l 1
 396 574 l 1xd52080
 422 574 l 1
 422 602 l 1xcb1080
 448 602 l 1xc51080
 448 630 l 1
 476 630 l 1xc31080
 476 602 l 1xc51080
 502 602 l 1
 502 574 l 1xcb1880
 528 574 l 1
 528 546 l 1xd50480
 554 546 l 1xc90280
EndSplineSet
EndChar

StartChar: Ocircumflex
Encoding: 212 212 234
Width: 1260
Flags: W
HStem: 42 28<28 1120> 490 28<28 1120> 602 28<456 482 666 692> 630 28<484 508 640 664> 658 28<510 534 614 638> 686 28<536 560 588 612> 714 28<562 586>
VStem: 0 28<70 490> 456 28<602 630> 482 28<630 658> 508 28<658 686> 534 28<686 714> 586 28<686 714> 612 28<658 686> 638 28<630 658> 664 28<602 630> 1120 28<70 490>
LayerCount: 2
Fore
SplineSet
0 518 m 1xc10080
 1148 518 l 1
 1148 42 l 1
 0 42 l 1
 0 518 l 1xc10080
1120 70 m 1
 1120 490 l 1
 28 490 l 1
 28 70 l 1
 1120 70 l 1
666 658 m 1xc90280
 666 630 l 1xe90280
 692 630 l 1
 692 602 l 1
 664 602 l 1xe90180
 664 630 l 1xd10180
 638 630 l 1xd10280
 638 658 l 1xc90280
 612 658 l 1xc90480
 612 686 l 1xc50480
 586 686 l 1xc50880
 586 714 l 1
 562 714 l 1xc31880
 562 686 l 1xc51880
 536 686 l 1xc52080
 536 658 l 1xc92080
 510 658 l 1xc94080
 510 630 l 1xd14080
 484 630 l 1xd18080
 484 602 l 1
 456 602 l 1
 456 630 l 1xe18080
 482 630 l 1
 482 658 l 1xe94080
 508 658 l 1
 508 686 l 1xd52080
 534 686 l 1
 534 714 l 1xcb1080
 560 714 l 1xc51080
 560 742 l 1
 588 742 l 1xc31080
 588 714 l 1xc51080
 614 714 l 1
 614 686 l 1xcb1880
 640 686 l 1
 640 658 l 1xd50480
 666 658 l 1xc90280
EndSplineSet
EndChar

StartChar: otilde
Encoding: 245 245 235
Width: 1148
Flags: W
HStem: 42 28<28 1008> 378 28<28 1008> 490 28<554 664> 518 28<528 552> 546 28<502 526> 574 28<476 500> 602 28<364 474>
VStem: 0 28<70 378> 336 28<490 602> 474 28<574 602> 500 28<546 574> 526 28<518 546> 664 28<518 630> 1008 28<70 378>
LayerCount: 2
Fore
SplineSet
0 406 m 1xc18c
 1036 406 l 1
 1036 42 l 1
 0 42 l 1
 0 406 l 1xc18c
1008 70 m 1
 1008 378 l 1
 28 378 l 1
 28 70 l 1
 1008 70 l 1
664 518 m 1xe99c
 664 630 l 1
 692 630 l 1
 692 490 l 1
 552 490 l 1xeb9c
 552 518 l 1
 526 518 l 1xd19c
 526 546 l 1xc99c
 500 546 l 1xc9ac
 500 574 l 1xc5ac
 474 574 l 1xc5cc
 474 602 l 1
 364 602 l 1
 364 490 l 1
 336 490 l 1
 336 630 l 1
 476 630 l 1xe3cc
 476 602 l 1xc5cc
 502 602 l 1
 502 574 l 1xcbcc
 528 574 l 1
 528 546 l 1xd5ac
 554 546 l 1
 554 518 l 1
 664 518 l 1xe99c
EndSplineSet
EndChar

StartChar: Otilde
Encoding: 213 213 236
Width: 1260
Flags: W
HStem: 42 28<28 1120> 490 28<28 1120> 602 28<558 672> 630 28<532 556> 658 28<506 530> 686 28<480 504> 714 28<364 478>
VStem: 0 28<70 490> 336 28<602 714> 478 28<686 714> 504 28<658 686> 530 28<630 658> 672 28<630 742> 1120 28<70 490>
LayerCount: 2
Fore
SplineSet
0 518 m 1xc18c
 1148 518 l 1
 1148 42 l 1
 0 42 l 1
 0 518 l 1xc18c
1120 70 m 1
 1120 490 l 1
 28 490 l 1
 28 70 l 1
 1120 70 l 1
672 742 m 1xeb9c
 700 742 l 1
 700 602 l 1
 556 602 l 1xeb9c
 556 630 l 1
 530 630 l 1xd19c
 530 658 l 1xc99c
 504 658 l 1xc9ac
 504 686 l 1xc5ac
 478 686 l 1xc5cc
 478 714 l 1
 364 714 l 1
 364 602 l 1
 336 602 l 1
 336 742 l 1
 480 742 l 1xe3cc
 480 714 l 1xc5cc
 506 714 l 1
 506 686 l 1xcbcc
 532 686 l 1
 532 658 l 1xd5ac
 558 658 l 1
 558 630 l 1
 672 630 l 1
 672 742 l 1xeb9c
EndSplineSet
EndChar

StartChar: odieresis
Encoding: 246 246 237
Width: 1148
Flags: W
HStem: 42 28<28 1008> 378 28<28 1008> 602 28<336 364 560 588>
VStem: 0 28<70 378> 336 28<602 630> 560 28<602 630> 1008 28<70 378>
LayerCount: 2
Fore
SplineSet
0 406 m 1
 1036 406 l 1
 1036 42 l 1
 0 42 l 1
 0 406 l 1
1008 70 m 1
 1008 378 l 1
 28 378 l 1
 28 70 l 1
 1008 70 l 1
336 602 m 1
 336 630 l 1
 364 630 l 1
 364 602 l 1
 336 602 l 1
560 602 m 1
 560 630 l 1
 588 630 l 1
 588 602 l 1
 560 602 l 1
EndSplineSet
EndChar

StartChar: Odieresis
Encoding: 214 214 238
Width: 1260
Flags: W
HStem: 42 28<28 1120> 490 28<28 1120> 714 28<448 476 672 700>
VStem: 0 28<70 490> 448 28<714 742> 672 28<714 742> 1120 28<70 490>
LayerCount: 2
Fore
SplineSet
0 518 m 1
 1148 518 l 1
 1148 42 l 1
 0 42 l 1
 0 518 l 1
1120 70 m 1
 1120 490 l 1
 28 490 l 1
 28 70 l 1
 1120 70 l 1
448 714 m 1
 448 742 l 1
 476 742 l 1
 476 714 l 1
 448 714 l 1
672 714 m 1
 672 742 l 1
 700 742 l 1
 700 714 l 1
 672 714 l 1
EndSplineSet
EndChar

StartChar: uacute
Encoding: 250 250 239
Width: 1148
Flags: W
HStem: 42 28<28 1008> 386 20G<0 28 1008 1036> 490 28<448 474> 518 28<476 500> 546 28<502 526> 574 28<528 552> 602 28<554 580>
VStem: 0 28<70 406> 448 28<490 518> 474 28<518 546> 500 28<546 574> 526 28<574 602> 552 28<602 630> 1008 28<70 406>
LayerCount: 2
Fore
SplineSet
1008 70 m 1xc104
 1008 406 l 1
 1036 406 l 1
 1036 42 l 1
 0 42 l 1
 0 406 l 1
 28 406 l 1
 28 70 l 1
 1008 70 l 1xc104
552 602 m 1xc50c
 552 630 l 1
 580 630 l 1
 580 602 l 1xc30c
 554 602 l 1xc314
 554 574 l 1xc514
 528 574 l 1xc524
 528 546 l 1xc924
 502 546 l 1xc944
 502 518 l 1xd144
 476 518 l 1xd184
 476 490 l 1
 448 490 l 1
 448 518 l 1xe184
 474 518 l 1
 474 546 l 1xe944
 500 546 l 1
 500 574 l 1xd524
 526 574 l 1
 526 602 l 1xcb14
 552 602 l 1xc50c
EndSplineSet
EndChar

StartChar: Uacute
Encoding: 218 218 240
Width: 1260
Flags: W
HStem: 42 28<28 1120> 498 20G<0 28 1120 1148> 602 28<448 474> 630 28<476 500> 658 28<502 526> 686 28<528 552> 714 28<554 580>
VStem: 0 28<70 518> 448 28<602 630> 474 28<630 658> 500 28<658 686> 526 28<686 714> 552 28<714 742> 1120 28<70 518>
LayerCount: 2
Fore
SplineSet
1120 70 m 1xc104
 1120 518 l 1
 1148 518 l 1
 1148 42 l 1
 0 42 l 1
 0 518 l 1
 28 518 l 1
 28 70 l 1
 1120 70 l 1xc104
552 714 m 1xc50c
 552 742 l 1
 580 742 l 1
 580 714 l 1xc30c
 554 714 l 1xc314
 554 686 l 1xc514
 528 686 l 1xc524
 528 658 l 1xc924
 502 658 l 1xc944
 502 630 l 1xd144
 476 630 l 1xd184
 476 602 l 1
 448 602 l 1
 448 630 l 1xe184
 474 630 l 1
 474 658 l 1xe944
 500 658 l 1
 500 686 l 1xd524
 526 686 l 1
 526 714 l 1xcb14
 552 714 l 1xc50c
EndSplineSet
EndChar

StartChar: ugrave
Encoding: 249 249 241
Width: 1148
Flags: W
HStem: 42 28<28 1008> 386 20G<0 28 1008 1036> 490 28<562 588> 518 28<536 560> 546 28<510 534> 574 28<484 508> 602 28<456 482>
VStem: 0 28<70 406> 456 28<602 630> 482 28<574 602> 508 28<546 574> 534 28<518 546> 560 28<490 518> 1008 28<70 406>
LayerCount: 2
Fore
SplineSet
1008 70 m 1xc104
 1008 406 l 1
 1036 406 l 1
 1036 42 l 1
 0 42 l 1
 0 406 l 1
 28 406 l 1
 28 70 l 1
 1008 70 l 1xc104
562 546 m 1xc914
 562 518 l 1xe914
 588 518 l 1
 588 490 l 1
 560 490 l 1xe90c
 560 518 l 1xd10c
 534 518 l 1xd114
 534 546 l 1xc914
 508 546 l 1xc924
 508 574 l 1xc524
 482 574 l 1xc544
 482 602 l 1xc344
 456 602 l 1
 456 630 l 1
 484 630 l 1xc384
 484 602 l 1xc584
 510 602 l 1
 510 574 l 1xcb44
 536 574 l 1
 536 546 l 1xd524
 562 546 l 1xc914
EndSplineSet
EndChar

StartChar: Ugrave
Encoding: 217 217 242
Width: 1260
Flags: W
HStem: 42 28<28 1120> 498 20G<0 28 1120 1148> 602 28<562 588> 630 28<536 560> 658 28<510 534> 686 28<484 508> 714 28<456 482>
VStem: 0 28<70 518> 456 28<714 742> 482 28<686 714> 508 28<658 686> 534 28<630 658> 560 28<602 630> 1120 28<70 518>
LayerCount: 2
Fore
SplineSet
1120 70 m 1xc104
 1120 518 l 1
 1148 518 l 1
 1148 42 l 1
 0 42 l 1
 0 518 l 1
 28 518 l 1
 28 70 l 1
 1120 70 l 1xc104
562 658 m 1xc914
 562 630 l 1xe914
 588 630 l 1
 588 602 l 1
 560 602 l 1xe90c
 560 630 l 1xd10c
 534 630 l 1xd114
 534 658 l 1xc914
 508 658 l 1xc924
 508 686 l 1xc524
 482 686 l 1xc544
 482 714 l 1xc344
 456 714 l 1
 456 742 l 1
 484 742 l 1xc384
 484 714 l 1xc584
 510 714 l 1
 510 686 l 1xcb44
 536 686 l 1
 536 658 l 1xd524
 562 658 l 1xc914
EndSplineSet
EndChar

StartChar: ucircumflex
Encoding: 251 251 243
Width: 1148
Flags: W
HStem: 42 28<28 1008> 386 20G<0 28 1008 1036> 490 28<344 370 554 580> 518 28<372 396 528 552> 546 28<398 422 502 526> 574 28<424 448 476 500> 602 28<450 474>
VStem: 0 28<70 406> 344 28<490 518> 370 28<518 546> 396 28<546 574> 422 28<574 602> 474 28<574 602> 500 28<546 574> 526 28<518 546> 552 28<490 518> 1008 28<70 406>
LayerCount: 2
Fore
SplineSet
1008 70 m 1xc10080
 1008 406 l 1
 1036 406 l 1
 1036 42 l 1
 0 42 l 1
 0 406 l 1
 28 406 l 1
 28 70 l 1
 1008 70 l 1xc10080
554 546 m 1xc90280
 554 518 l 1xe90280
 580 518 l 1
 580 490 l 1
 552 490 l 1xe90180
 552 518 l 1xd10180
 526 518 l 1xd10280
 526 546 l 1xc90280
 500 546 l 1xc90480
 500 574 l 1xc50480
 474 574 l 1xc50880
 474 602 l 1
 450 602 l 1xc31880
 450 574 l 1xc51880
 424 574 l 1xc52080
 424 546 l 1xc92080
 398 546 l 1xc94080
 398 518 l 1xd14080
 372 518 l 1xd18080
 372 490 l 1
 344 490 l 1
 344 518 l 1xe18080
 370 518 l 1
 370 546 l 1xe94080
 396 546 l 1
 396 574 l 1xd52080
 422 574 l 1
 422 602 l 1xcb1080
 448 602 l 1xc51080
 448 630 l 1
 476 630 l 1xc31080
 476 602 l 1xc51080
 502 602 l 1
 502 574 l 1xcb1880
 528 574 l 1
 528 546 l 1xd50480
 554 546 l 1xc90280
EndSplineSet
EndChar

StartChar: Ucircumflex
Encoding: 219 219 244
Width: 1260
Flags: W
HStem: 42 28<28 1120> 498 20G<0 28 1120 1148> 602 28<456 482 666 692> 630 28<484 508 640 664> 658 28<510 534 614 638> 686 28<536 560 588 612> 714 28<562 586>
VStem: 0 28<70 518> 456 28<602 630> 482 28<630 658> 508 28<658 686> 534 28<686 714> 586 28<686 714> 612 28<658 686> 638 28<630 658> 664 28<602 630> 1120 28<70 518>
LayerCount: 2
Fore
SplineSet
1120 70 m 1xc10080
 1120 518 l 1
 1148 518 l 1
 1148 42 l 1
 0 42 l 1
 0 518 l 1
 28 518 l 1
 28 70 l 1
 1120 70 l 1xc10080
666 658 m 1xc90280
 666 630 l 1xe90280
 692 630 l 1
 692 602 l 1
 664 602 l 1xe90180
 664 630 l 1xd10180
 638 630 l 1xd10280
 638 658 l 1xc90280
 612 658 l 1xc90480
 612 686 l 1xc50480
 586 686 l 1xc50880
 586 714 l 1
 562 714 l 1xc31880
 562 686 l 1xc51880
 536 686 l 1xc52080
 536 658 l 1xc92080
 510 658 l 1xc94080
 510 630 l 1xd14080
 484 630 l 1xd18080
 484 602 l 1
 456 602 l 1
 456 630 l 1xe18080
 482 630 l 1
 482 658 l 1xe94080
 508 658 l 1
 508 686 l 1xd52080
 534 686 l 1
 534 714 l 1xcb1080
 560 714 l 1xc51080
 560 742 l 1
 588 742 l 1xc31080
 588 714 l 1xc51080
 614 714 l 1
 614 686 l 1xcb1880
 640 686 l 1
 640 658 l 1xd50480
 666 658 l 1xc90280
EndSplineSet
EndChar

StartChar: udieresis
Encoding: 252 252 245
Width: 1148
Flags: W
HStem: 42 28<28 1008> 386 20G<0 28 1008 1036> 602 28<336 364 560 588>
VStem: 0 28<70 406> 336 28<602 630> 560 28<602 630> 1008 28<70 406>
LayerCount: 2
Fore
SplineSet
1008 70 m 1
 1008 406 l 1
 1036 406 l 1
 1036 42 l 1
 0 42 l 1
 0 406 l 1
 28 406 l 1
 28 70 l 1
 1008 70 l 1
336 602 m 1
 336 630 l 1
 364 630 l 1
 364 602 l 1
 336 602 l 1
560 602 m 1
 560 630 l 1
 588 630 l 1
 588 602 l 1
 560 602 l 1
EndSplineSet
EndChar

StartChar: Udieresis
Encoding: 220 220 246
Width: 1260
Flags: W
HStem: 42 28<28 1120> 498 20G<0 28 1120 1148> 714 28<448 476 672 700>
VStem: 0 28<70 518> 448 28<714 742> 672 28<714 742> 1120 28<70 518>
LayerCount: 2
Fore
SplineSet
1120 70 m 1
 1120 518 l 1
 1148 518 l 1
 1148 42 l 1
 0 42 l 1
 0 518 l 1
 28 518 l 1
 28 70 l 1
 1120 70 l 1
448 714 m 1
 448 742 l 1
 476 742 l 1
 476 714 l 1
 448 714 l 1
672 714 m 1
 672 742 l 1
 700 742 l 1
 700 714 l 1
 672 714 l 1
EndSplineSet
EndChar

StartChar: uhungarumlaut
Encoding: 369 369 247
Width: 1148
Flags: W
HStem: 42 28<28 1008> 386 20G<0 28 1008 1036> 490 28<336 362 560 586> 518 28<364 388 588 612> 546 28<390 414 614 638> 574 28<416 440 640 664> 602 28<442 468 666 692>
VStem: 0 28<70 406> 336 28<490 518> 362 28<518 546> 388 28<546 574> 414 28<574 602> 440 28<602 630> 560 28<490 518> 586 28<518 546> 612 28<546 574> 638 28<574 602> 664 28<602 630> 1008 28<70 406>
LayerCount: 2
Fore
SplineSet
1008 70 m 1xc10020
 1008 406 l 1
 1036 406 l 1
 1036 42 l 1
 0 42 l 1
 0 406 l 1
 28 406 l 1
 28 70 l 1
 1008 70 l 1xc10020
664 630 m 1xc30060
 692 630 l 1
 692 602 l 1xc30060
 666 602 l 1xc300a0
 666 574 l 1xc500a0
 640 574 l 1xc50120
 640 546 l 1xc90120
 614 546 l 1xc90220
 614 518 l 1xd10220
 588 518 l 1xd10420
 588 490 l 1
 560 490 l 1
 560 518 l 1xe10420
 586 518 l 1
 586 546 l 1xe90220
 612 546 l 1
 612 574 l 1xd50120
 638 574 l 1
 638 602 l 1xcb00a0
 664 602 l 1xc50060
 664 630 l 1xc30060
440 602 m 1xc50820
 440 630 l 1
 468 630 l 1
 468 602 l 1xc30820
 442 602 l 1xc31020
 442 574 l 1xc51020
 416 574 l 1xc52020
 416 546 l 1xc92020
 390 546 l 1xc94020
 390 518 l 1xd14020
 364 518 l 1xd18020
 364 490 l 1
 336 490 l 1
 336 518 l 1xe18020
 362 518 l 1
 362 546 l 1xe94020
 388 546 l 1
 388 574 l 1xd52020
 414 574 l 1
 414 602 l 1xcb1020
 440 602 l 1xc50820
EndSplineSet
EndChar

StartChar: Uhungarumlaut
Encoding: 368 368 248
Width: 1260
Flags: W
HStem: 42 28<28 1120> 498 20G<0 28 1120 1148> 602 28<448 474 672 698> 630 28<476 500 700 724> 658 28<502 526 726 750> 686 28<528 552 752 776> 714 28<554 580 778 804>
VStem: 0 28<70 518> 448 28<602 630> 474 28<630 658> 500 28<658 686> 526 28<686 714> 552 28<714 742> 672 28<602 630> 698 28<630 658> 724 28<658 686> 750 28<686 714> 776 28<714 742> 1120 28<70 518>
LayerCount: 2
Fore
SplineSet
1120 70 m 1xc10020
 1120 518 l 1
 1148 518 l 1
 1148 42 l 1
 0 42 l 1
 0 518 l 1
 28 518 l 1
 28 70 l 1
 1120 70 l 1xc10020
552 714 m 1xc50820
 552 742 l 1
 580 742 l 1
 580 714 l 1xc30820
 554 714 l 1xc31020
 554 686 l 1xc51020
 528 686 l 1xc52020
 528 658 l 1xc92020
 502 658 l 1xc94020
 502 630 l 1xd14020
 476 630 l 1xd18020
 476 602 l 1
 448 602 l 1
 448 630 l 1xe18020
 474 630 l 1
 474 658 l 1xe94020
 500 658 l 1
 500 686 l 1xd52020
 526 686 l 1
 526 714 l 1xcb1020
 552 714 l 1xc50820
776 742 m 1xc30060
 804 742 l 1
 804 714 l 1xc30060
 778 714 l 1xc300a0
 778 686 l 1xc500a0
 752 686 l 1xc50120
 752 658 l 1xc90120
 726 658 l 1xc90220
 726 630 l 1xd10220
 700 630 l 1xd10420
 700 602 l 1
 672 602 l 1
 672 630 l 1xe10420
 698 630 l 1
 698 658 l 1xe90220
 724 658 l 1
 724 686 l 1xd50120
 750 686 l 1
 750 714 l 1xcb00a0
 776 714 l 1xc50060
 776 742 l 1xc30060
EndSplineSet
EndChar

StartChar: yacute
Encoding: 253 253 249
Width: 1148
Flags: W
HStem: -70 28<560 1008> 154 28<28 1008> 386 20G<0 28 1008 1036> 490 28<448 474> 518 28<476 500> 546 28<502 526> 574 28<528 552> 602 28<554 580>
VStem: 0 28<182 406> 448 28<490 518> 474 28<518 546> 500 28<546 574> 526 28<574 602> 552 28<602 630> 1008 28<-42 154 182 406>
LayerCount: 2
Fore
SplineSet
1008 182 m 1xe082
 1008 406 l 1
 1036 406 l 1
 1036 -70 l 1
 560 -70 l 1
 560 -42 l 1
 1008 -42 l 1
 1008 154 l 1
 0 154 l 1
 0 406 l 1
 28 406 l 1
 28 182 l 1
 1008 182 l 1xe082
552 602 m 1xe286
 552 630 l 1
 580 630 l 1
 580 602 l 1xe186
 554 602 l 1xe18a
 554 574 l 1xe28a
 528 574 l 1xe292
 528 546 l 1xe492
 502 546 l 1xe4a2
 502 518 l 1xe8a2
 476 518 l 1xe8c2
 476 490 l 1
 448 490 l 1
 448 518 l 1xf0c2
 474 518 l 1
 474 546 l 1xf4a2
 500 546 l 1
 500 574 l 1xea92
 526 574 l 1
 526 602 l 1xe58a
 552 602 l 1xe286
EndSplineSet
EndChar

StartChar: Yacute
Encoding: 221 221 250
Width: 1260
Flags: W
HStem: 42 21G<560 588> 42 21G<560 588> 154 28<28 560 588 1120> 498 20G<0 28 1120 1148> 602 28<448 474> 630 28<476 500> 658 28<502 526> 686 28<528 552> 714 28<554 580>
VStem: 0 28<182 518> 448 28<602 630> 474 28<630 658> 500 28<658 686> 526 28<686 714> 552 28<714 742> 560 28<42 154> 1120 28<182 518>
LayerCount: 2
Fore
SplineSet
1120 182 m 1xb04180
 1120 518 l 1
 1148 518 l 1
 1148 154 l 1
 588 154 l 1
 588 42 l 1
 560 42 l 1
 560 154 l 1
 0 154 l 1
 0 518 l 1
 28 518 l 1
 28 182 l 1
 1120 182 l 1xb04180
552 714 m 1x314280
 552 742 l 1
 580 742 l 1
 580 714 l 1x30c280
 554 714 l 1x30c480
 554 686 l 1x314480
 528 686 l 1x314880
 528 658 l 1x324880
 502 658 l 1x325080
 502 630 l 1x345080
 476 630 l 1x346080
 476 602 l 1
 448 602 l 1
 448 630 l 1x386080
 474 630 l 1
 474 658 l 1x3a5080
 500 658 l 1
 500 686 l 1x354880
 526 686 l 1
 526 714 l 1x32c480
 552 714 l 1x314280
EndSplineSet
EndChar

StartChar: ydieresis
Encoding: 255 255 251
Width: 1148
Flags: W
HStem: -70 28<560 1008> 154 28<28 1008> 386 20G<0 28 1008 1036> 602 28<336 364 560 588>
VStem: 0 28<182 406> 336 28<602 630> 560 28<602 630> 1008 28<-42 154 182 406>
LayerCount: 2
Fore
SplineSet
1008 182 m 1
 1008 406 l 1
 1036 406 l 1
 1036 -70 l 1
 560 -70 l 1
 560 -42 l 1
 1008 -42 l 1
 1008 154 l 1
 0 154 l 1
 0 406 l 1
 28 406 l 1
 28 182 l 1
 1008 182 l 1
336 602 m 1
 336 630 l 1
 364 630 l 1
 364 602 l 1
 336 602 l 1
560 602 m 1
 560 630 l 1
 588 630 l 1
 588 602 l 1
 560 602 l 1
EndSplineSet
EndChar

StartChar: Ydieresis
Encoding: 376 376 252
Width: 1260
Flags: W
HStem: 42 21G<560 588> 42 21G<560 588> 154 28<28 560 588 1120> 498 20G<0 28 1120 1148> 714 28<448 476 672 700>
VStem: 0 28<182 518> 448 28<714 742> 560 28<42 154> 672 28<714 742> 1120 28<182 518>
LayerCount: 2
Fore
SplineSet
1120 182 m 1xbfc0
 1120 518 l 1
 1148 518 l 1
 1148 154 l 1
 588 154 l 1
 588 42 l 1
 560 42 l 1
 560 154 l 1
 0 154 l 1
 0 518 l 1
 28 518 l 1
 28 182 l 1
 1120 182 l 1xbfc0
448 714 m 1
 448 742 l 1
 476 742 l 1
 476 714 l 1
 448 714 l 1
672 714 m 1
 672 742 l 1
 700 742 l 1
 700 714 l 1
 672 714 l 1
EndSplineSet
EndChar

StartChar: ycircumflex
Encoding: 375 375 253
Width: 1148
Flags: W
HStem: -70 28<560 1008> 154 28<28 1008> 386 20G<0 28 1008 1036> 490 28<344 370 554 580> 518 28<372 396 528 552> 546 28<398 422 502 526> 574 28<424 448 476 500> 602 28<450 474>
VStem: 0 28<182 406> 344 28<490 518> 370 28<518 546> 396 28<546 574> 422 28<574 602> 474 28<574 602> 500 28<546 574> 526 28<518 546> 552 28<490 518> 1008 28<-42 154 182 406>
LayerCount: 2
Fore
SplineSet
1008 182 m 1xe08040
 1008 406 l 1
 1036 406 l 1
 1036 -70 l 1
 560 -70 l 1
 560 -42 l 1
 1008 -42 l 1
 1008 154 l 1
 0 154 l 1
 0 406 l 1
 28 406 l 1
 28 182 l 1
 1008 182 l 1xe08040
554 546 m 1xe48140
 554 518 l 1xf48140
 580 518 l 1
 580 490 l 1
 552 490 l 1xf480c0
 552 518 l 1xe880c0
 526 518 l 1xe88140
 526 546 l 1xe48140
 500 546 l 1xe48240
 500 574 l 1xe28240
 474 574 l 1xe28440
 474 602 l 1
 450 602 l 1xe18c40
 450 574 l 1xe28c40
 424 574 l 1xe29040
 424 546 l 1xe49040
 398 546 l 1xe4a040
 398 518 l 1xe8a040
 372 518 l 1xe8c040
 372 490 l 1
 344 490 l 1
 344 518 l 1xf0c040
 370 518 l 1
 370 546 l 1xf4a040
 396 546 l 1
 396 574 l 1xea9040
 422 574 l 1
 422 602 l 1xe58840
 448 602 l 1xe28840
 448 630 l 1
 476 630 l 1xe18840
 476 602 l 1xe28840
 502 602 l 1
 502 574 l 1xe58c40
 528 574 l 1
 528 546 l 1xea8240
 554 546 l 1xe48140
EndSplineSet
EndChar

StartChar: Ycircumflex
Encoding: 374 374 254
Width: 1260
Flags: W
HStem: 42 21G<560 588> 42 21G<560 588> 154 28<28 560 588 1120> 498 20G<0 28 1120 1148> 602 28<456 482 666 692> 630 28<484 508 640 664> 658 28<510 534 614 638> 686 28<536 560 588 612> 714 28<562 586>
VStem: 0 28<182 518> 456 28<602 630> 482 28<630 658> 508 28<658 686> 534 28<686 714> 560 28<42 154 714 742> 586 28<686 714> 612 28<658 686> 638 28<630 658> 664 28<602 630> 1120 28<182 518>
LayerCount: 2
Fore
SplineSet
1120 182 m 1xb04210
 1120 518 l 1
 1148 518 l 1
 1148 154 l 1
 588 154 l 1
 588 42 l 1
 560 42 l 1
 560 154 l 1
 0 154 l 1
 0 518 l 1
 28 518 l 1
 28 182 l 1
 1120 182 l 1xb04210
666 658 m 1x324050
 666 630 l 1x3a4050
 692 630 l 1
 692 602 l 1
 664 602 l 1x3a4030
 664 630 l 1x344030
 638 630 l 1x344050
 638 658 l 1x324050
 612 658 l 1x324090
 612 686 l 1x314090
 586 686 l 1x314110
 586 714 l 1
 562 714 l 1x30c510
 562 686 l 1x314510
 536 686 l 1x314810
 536 658 l 1x324810
 510 658 l 1x325010
 510 630 l 1x345010
 484 630 l 1x346010
 484 602 l 1
 456 602 l 1
 456 630 l 1x386010
 482 630 l 1
 482 658 l 1x3a5010
 508 658 l 1
 508 686 l 1x354810
 534 686 l 1
 534 714 l 1x32c410
 560 714 l 1x314210
 560 742 l 1
 588 742 l 1x30c210
 588 714 l 1x314210
 614 714 l 1
 614 686 l 1x32c110
 640 686 l 1
 640 658 l 1x354090
 666 658 l 1x324050
EndSplineSet
EndChar

StartChar: wcircumflex
Encoding: 373 373 255
Width: 1484
Flags: W
HStem: 42 28<28 672 700 1344> 386 20G<0 28 672 700 1344 1372> 490 28<344 370 554 580> 518 28<372 396 528 552> 546 28<398 422 502 526> 574 28<424 448 476 500> 602 28<450 474>
VStem: 0 28<70 406> 344 28<490 518> 370 28<518 546> 396 28<546 574> 422 28<574 602> 474 28<574 602> 500 28<546 574> 526 28<518 546> 552 28<490 518> 672 28<70 406> 1344 28<70 406>
LayerCount: 2
Fore
SplineSet
1344 406 m 1xc100c0
 1372 406 l 1
 1372 42 l 1
 0 42 l 1
 0 406 l 1
 28 406 l 1
 28 70 l 1
 672 70 l 1
 672 406 l 1
 700 406 l 1
 700 70 l 1
 1344 70 l 1
 1344 406 l 1xc100c0
554 546 m 5xc902c0
 554 518 l 5xe902c0
 580 518 l 5
 580 490 l 5
 552 490 l 5xe901c0
 552 518 l 5xd101c0
 526 518 l 5xd102c0
 526 546 l 5xc902c0
 500 546 l 5xc904c0
 500 574 l 5xc504c0
 474 574 l 5xc508c0
 474 602 l 5
 450 602 l 5xc318c0
 450 574 l 5xc518c0
 424 574 l 5xc520c0
 424 546 l 5xc920c0
 398 546 l 5xc940c0
 398 518 l 5xd140c0
 372 518 l 5xd180c0
 372 490 l 5
 344 490 l 5
 344 518 l 5xe180c0
 370 518 l 5
 370 546 l 5xe940c0
 396 546 l 5
 396 574 l 5xd520c0
 422 574 l 5
 422 602 l 5xcb10c0
 448 602 l 5xc510c0
 448 630 l 5
 476 630 l 5xc310c0
 476 602 l 5xc510c0
 502 602 l 5
 502 574 l 5xcb18c0
 528 574 l 5
 528 546 l 5xd504c0
 554 546 l 5xc902c0
EndSplineSet
EndChar

StartChar: Wcircumflex
Encoding: 372 372 256
Width: 1820
Flags: W
HStem: 42 28<28 560 1148 1680> 266 28<588 1120> 498 20G<0 28 1120 1148 1680 1708> 602 28<456 482 666 692> 630 28<484 508 640 664> 658 28<510 534 614 638> 686 28<536 560 588 612> 714 28<562 586>
VStem: 0 28<70 518> 456 28<602 630> 482 28<630 658> 508 28<658 686> 534 28<686 714> 560 28<70 266 714 742> 586 28<686 714> 612 28<658 686> 638 28<630 658> 664 28<602 630> 1120 28<70 266 294 518> 1680 28<70 518>
LayerCount: 2
Fore
SplineSet
1680 518 m 1xe08430
 1708 518 l 1
 1708 42 l 1
 1120 42 l 1
 1120 266 l 1
 588 266 l 1
 588 42 l 1
 0 42 l 1
 0 518 l 1
 28 518 l 1
 28 70 l 1
 560 70 l 1
 560 294 l 1
 1120 294 l 1
 1120 518 l 1
 1148 518 l 1
 1148 70 l 1
 1680 70 l 1
 1680 518 l 1xe08430
666 658 m 5xe480b0
 666 630 l 5xf480b0
 692 630 l 5
 692 602 l 5
 664 602 l 5xf48070
 664 630 l 5xe88070
 638 630 l 5xe880b0
 638 658 l 5xe480b0
 612 658 l 5xe48130
 612 686 l 5xe28130
 586 686 l 5xe28230
 586 714 l 5
 562 714 l 5xe18a30
 562 686 l 5xe28a30
 536 686 l 5xe29030
 536 658 l 5xe49030
 510 658 l 5xe4a030
 510 630 l 5xe8a030
 484 630 l 5xe8c030
 484 602 l 5
 456 602 l 5
 456 630 l 5xf0c030
 482 630 l 5
 482 658 l 5xf4a030
 508 658 l 5
 508 686 l 5xea9030
 534 686 l 5
 534 714 l 5xe58830
 560 714 l 5xe28430
 560 742 l 5
 588 742 l 5xe18430
 588 714 l 5xe28430
 614 714 l 5
 614 686 l 5xe58230
 640 686 l 5
 640 658 l 5xea8130
 666 658 l 5xe480b0
EndSplineSet
EndChar

StartChar: ntilde
Encoding: 241 241 257
Width: 1148
Flags: W
HStem: 42 21G<0 28 1008 1036> 42 21G<0 28 1008 1036> 378 28<28 1008> 490 28<554 664> 518 28<528 552> 546 28<502 526> 574 28<476 500> 602 28<364 474>
VStem: 0 28<42 378> 336 28<490 602> 474 28<574 602> 500 28<546 574> 526 28<518 546> 664 28<518 630> 1008 28<42 378>
LayerCount: 2
Fore
SplineSet
0 406 m 1xa0c6
 1036 406 l 1
 1036 42 l 1
 1008 42 l 1
 1008 378 l 1
 28 378 l 1
 28 42 l 1
 0 42 l 1
 0 406 l 1xa0c6
664 518 m 1x34ce
 664 630 l 1
 692 630 l 1
 692 490 l 1
 552 490 l 1x35ce
 552 518 l 1
 526 518 l 1x28ce
 526 546 l 1x24ce
 500 546 l 1x24d6
 500 574 l 1x22d6
 474 574 l 1x22e6
 474 602 l 1
 364 602 l 1
 364 490 l 1
 336 490 l 1
 336 630 l 1
 476 630 l 1x31e6
 476 602 l 1x22e6
 502 602 l 1
 502 574 l 1x25e6
 528 574 l 1
 528 546 l 1x2ad6
 554 546 l 1
 554 518 l 1
 664 518 l 1x34ce
EndSplineSet
EndChar

StartChar: Ntilde
Encoding: 209 209 258
Width: 1260
Flags: W
HStem: 42 21G<0 28 1120 1148> 42 21G<0 28 1120 1148> 266 28<588 1120> 490 28<28 560> 602 28<558 672> 630 28<532 556> 658 28<506 530> 686 28<480 504> 714 28<364 478>
VStem: 0 28<42 490> 336 28<602 714> 478 28<686 714> 504 28<658 686> 530 28<630 658> 560 28<294 490> 672 28<630 742> 1120 28<42 266 294 518>
LayerCount: 2
Fore
SplineSet
1120 294 m 1xb06380
 1120 518 l 1
 1148 518 l 1
 1148 42 l 1
 1120 42 l 1
 1120 266 l 1
 560 266 l 1
 560 490 l 1
 28 490 l 1
 28 42 l 1
 0 42 l 1
 0 518 l 1
 588 518 l 1
 588 294 l 1
 1120 294 l 1xb06380
672 742 m 1x3ae780
 700 742 l 1
 700 602 l 1
 556 602 l 1x3ae780
 556 630 l 1
 530 630 l 1x346780
 530 658 l 1x326780
 504 658 l 1x326b80
 504 686 l 1x316b80
 478 686 l 1x317380
 478 714 l 1
 364 714 l 1
 364 602 l 1
 336 602 l 1
 336 742 l 1
 480 742 l 1x38f380
 480 714 l 1x317380
 506 714 l 1
 506 686 l 1x32f380
 532 686 l 1
 532 658 l 1x356b80
 558 658 l 1
 558 630 l 1
 672 630 l 1
 672 742 l 1x3ae780
EndSplineSet
EndChar

StartChar: scircumflex
Encoding: 349 349 259
Width: 1148
Flags: W
HStem: -70 28<560 1008> 154 28<28 1008> 378 28<28 1036> 490 28<344 370 554 580> 518 28<372 396 528 552> 546 28<398 422 502 526> 574 28<424 448 476 500> 602 28<450 474>
VStem: 0 28<182 378> 344 28<490 518> 370 28<518 546> 396 28<546 574> 422 28<574 602> 474 28<574 602> 500 28<546 574> 526 28<518 546> 552 28<490 518> 1008 28<-42 154>
LayerCount: 2
Fore
SplineSet
28 378 m 1xe08040
 28 182 l 1
 1036 182 l 1
 1036 -70 l 1
 560 -70 l 1
 560 -42 l 1
 1008 -42 l 1
 1008 154 l 1
 0 154 l 1
 0 406 l 1
 1036 406 l 1
 1036 378 l 1
 28 378 l 1xe08040
554 546 m 1xe48140
 554 518 l 1xf48140
 580 518 l 1
 580 490 l 1
 552 490 l 1xf480c0
 552 518 l 1xe880c0
 526 518 l 1xe88140
 526 546 l 1xe48140
 500 546 l 1xe48240
 500 574 l 1xe28240
 474 574 l 1xe28440
 474 602 l 1
 450 602 l 1xe18c40
 450 574 l 1xe28c40
 424 574 l 1xe29040
 424 546 l 1xe49040
 398 546 l 1xe4a040
 398 518 l 1xe8a040
 372 518 l 1xe8c040
 372 490 l 1
 344 490 l 1
 344 518 l 1xf0c040
 370 518 l 1
 370 546 l 1xf4a040
 396 546 l 1
 396 574 l 1xea9040
 422 574 l 1
 422 602 l 1xe58840
 448 602 l 1xe28840
 448 630 l 1
 476 630 l 1xe18840
 476 602 l 1xe28840
 502 602 l 1
 502 574 l 1xe58c40
 528 574 l 1
 528 546 l 1xea8240
 554 546 l 1xe48140
EndSplineSet
EndChar

StartChar: Scircumflex
Encoding: 348 348 260
Width: 1260
Flags: W
HStem: 42 28<0 1120> 266 28<28 1120> 490 28<28 1148> 602 28<456 482 666 692> 630 28<484 508 640 664> 658 28<510 534 614 638> 686 28<536 560 588 612> 714 28<562 586>
VStem: 0 28<294 490> 456 28<602 630> 482 28<630 658> 508 28<658 686> 534 28<686 714> 586 28<686 714> 612 28<658 686> 638 28<630 658> 664 28<602 630> 1120 28<70 266>
LayerCount: 2
Fore
SplineSet
28 490 m 1xe08040
 28 294 l 1
 1148 294 l 1
 1148 42 l 1
 0 42 l 1
 0 70 l 1
 1120 70 l 1
 1120 266 l 1
 0 266 l 1
 0 518 l 1
 1148 518 l 1
 1148 490 l 1
 28 490 l 1xe08040
666 658 m 1xe48140
 666 630 l 1xf48140
 692 630 l 1
 692 602 l 1
 664 602 l 1xf480c0
 664 630 l 1xe880c0
 638 630 l 1xe88140
 638 658 l 1xe48140
 612 658 l 1xe48240
 612 686 l 1xe28240
 586 686 l 1xe28440
 586 714 l 1
 562 714 l 1xe18c40
 562 686 l 1xe28c40
 536 686 l 1xe29040
 536 658 l 1xe49040
 510 658 l 1xe4a040
 510 630 l 1xe8a040
 484 630 l 1xe8c040
 484 602 l 1
 456 602 l 1
 456 630 l 1xf0c040
 482 630 l 1
 482 658 l 1xf4a040
 508 658 l 1
 508 686 l 1xea9040
 534 686 l 1
 534 714 l 1xe58840
 560 714 l 1xe28840
 560 742 l 1
 588 742 l 1xe18840
 588 714 l 1xe28840
 614 714 l 1
 614 686 l 1xe58c40
 640 686 l 1
 640 658 l 1xea8240
 666 658 l 1xe48140
EndSplineSet
EndChar

StartChar: scaron
Encoding: 353 353 261
Width: 1148
Flags: W
HStem: -70 28<560 1008> 154 28<28 1008> 378 28<28 1036> 490 28<450 474> 518 28<424 448 476 500> 546 28<398 422 502 526> 574 28<372 396 528 552> 602 28<344 370 554 580>
VStem: 0 28<182 378> 344 28<602 630> 370 28<574 602> 396 28<546 574> 422 28<518 546> 474 28<518 546> 500 28<546 574> 526 28<574 602> 552 28<602 630> 1008 28<-42 154>
LayerCount: 2
Fore
SplineSet
28 378 m 1xe08040
 28 182 l 1
 1036 182 l 1
 1036 -70 l 1
 560 -70 l 1
 560 -42 l 1
 1008 -42 l 1
 1008 154 l 1
 0 154 l 1
 0 406 l 1
 1036 406 l 1
 1036 378 l 1
 28 378 l 1xe08040
552 602 m 1xe280c0
 552 630 l 1
 580 630 l 1
 580 602 l 1xe180c0
 554 602 l 1xe18140
 554 574 l 1xe28140
 528 574 l 1xe28240
 528 546 l 1xe48240
 502 546 l 1xe48440
 502 518 l 1
 476 518 l 1xe88440
 476 490 l 1
 448 490 l 1xf08440
 448 518 l 1
 422 518 l 1xe88c40
 422 546 l 1xe48c40
 396 546 l 1xe49040
 396 574 l 1xe29040
 370 574 l 1xe2a040
 370 602 l 1xe1a040
 344 602 l 1
 344 630 l 1
 372 630 l 1xe1c040
 372 602 l 1xe2c040
 398 602 l 1
 398 574 l 1xe5a040
 424 574 l 1
 424 546 l 1xea9040
 450 546 l 1
 450 518 l 1
 474 518 l 1
 474 546 l 1xf48c40
 500 546 l 1
 500 574 l 1xea8240
 526 574 l 1
 526 602 l 1xe58140
 552 602 l 1xe280c0
EndSplineSet
EndChar

StartChar: Scaron
Encoding: 352 352 262
Width: 1260
Flags: W
HStem: 42 28<0 1120> 266 28<28 1120> 490 28<28 1148> 602 28<562 586> 630 28<536 560 588 612> 658 28<510 534 614 638> 686 28<484 508 640 664> 714 28<456 482 666 692>
VStem: 0 28<294 490> 456 28<714 742> 482 28<686 714> 508 28<658 686> 534 28<630 658> 586 28<630 658> 612 28<658 686> 638 28<686 714> 664 28<714 742> 1120 28<70 266>
LayerCount: 2
Fore
SplineSet
28 490 m 1xe08040
 28 294 l 1
 1148 294 l 1
 1148 42 l 1
 0 42 l 1
 0 70 l 1
 1120 70 l 1
 1120 266 l 1
 0 266 l 1
 0 518 l 1
 1148 518 l 1
 1148 490 l 1
 28 490 l 1xe08040
664 742 m 1xe180c0
 692 742 l 1
 692 714 l 1xe180c0
 666 714 l 1xe18140
 666 686 l 1xe28140
 640 686 l 1xe28240
 640 658 l 1xe48240
 614 658 l 1xe48440
 614 630 l 1
 588 630 l 1xe88440
 588 602 l 1
 560 602 l 1xf08440
 560 630 l 1
 534 630 l 1xe88c40
 534 658 l 1xe48c40
 508 658 l 1xe49040
 508 686 l 1xe29040
 482 686 l 1xe2a040
 482 714 l 1xe1a040
 456 714 l 1
 456 742 l 1
 484 742 l 1xe1c040
 484 714 l 1xe2c040
 510 714 l 1
 510 686 l 1xe5a040
 536 686 l 1
 536 658 l 1xea9040
 562 658 l 1
 562 630 l 1
 586 630 l 1
 586 658 l 1xf48c40
 612 658 l 1
 612 686 l 1xea8240
 638 686 l 1
 638 714 l 1xe58140
 664 714 l 1xe280c0
 664 742 l 1xe180c0
EndSplineSet
EndChar

StartChar: ccircumflex
Encoding: 265 265 263
Width: 1148
Flags: W
HStem: 42 28<28 1036> 378 28<28 1036> 490 28<344 370 554 580> 518 28<372 396 528 552> 546 28<398 422 502 526> 574 28<424 448 476 500> 602 28<450 474>
VStem: 0 28<70 378> 344 28<490 518> 370 28<518 546> 396 28<546 574> 422 28<574 602> 474 28<574 602> 500 28<546 574> 526 28<518 546> 552 28<490 518>
LayerCount: 2
Fore
SplineSet
0 406 m 1xc1
 1036 406 l 1
 1036 378 l 1
 28 378 l 1
 28 70 l 1
 1036 70 l 1
 1036 42 l 1
 0 42 l 1
 0 406 l 1xc1
554 546 m 1xc902
 554 518 l 1xe902
 580 518 l 1
 580 490 l 1
 552 490 l 1xe901
 552 518 l 1xd101
 526 518 l 1xd102
 526 546 l 1xc902
 500 546 l 1xc904
 500 574 l 1xc504
 474 574 l 1xc508
 474 602 l 1
 450 602 l 1xc318
 450 574 l 1xc518
 424 574 l 1xc520
 424 546 l 1xc920
 398 546 l 1xc940
 398 518 l 1xd140
 372 518 l 1xd180
 372 490 l 1
 344 490 l 1
 344 518 l 1xe180
 370 518 l 1
 370 546 l 1xe940
 396 546 l 1
 396 574 l 1xd520
 422 574 l 1
 422 602 l 1xcb10
 448 602 l 1xc510
 448 630 l 1
 476 630 l 1xc310
 476 602 l 1xc510
 502 602 l 1
 502 574 l 1xcb18
 528 574 l 1
 528 546 l 1xd504
 554 546 l 1xc902
EndSplineSet
EndChar

StartChar: Ccircumflex
Encoding: 264 264 264
Width: 1260
Flags: W
HStem: 42 28<28 1120> 490 28<28 1120> 602 28<456 482 666 692> 630 28<484 508 640 664> 658 28<510 534 614 638> 686 28<536 560 588 612> 714 28<562 586>
VStem: 0 28<70 490> 456 28<602 630> 482 28<630 658> 508 28<658 686> 534 28<686 714> 586 28<686 714> 612 28<658 686> 638 28<630 658> 664 28<602 630> 1120 28<70 182 378 490>
LayerCount: 2
Fore
SplineSet
0 518 m 1xc10080
 1148 518 l 1
 1148 378 l 1
 1120 378 l 1
 1120 490 l 1
 28 490 l 1
 28 70 l 1
 1120 70 l 1
 1120 182 l 1
 1148 182 l 1
 1148 42 l 1
 0 42 l 1
 0 518 l 1xc10080
666 658 m 1xc90280
 666 630 l 1xe90280
 692 630 l 1
 692 602 l 1
 664 602 l 1xe90180
 664 630 l 1xd10180
 638 630 l 1xd10280
 638 658 l 1xc90280
 612 658 l 1xc90480
 612 686 l 1xc50480
 586 686 l 1xc50880
 586 714 l 1
 562 714 l 1xc31880
 562 686 l 1xc51880
 536 686 l 1xc52080
 536 658 l 1xc92080
 510 658 l 1xc94080
 510 630 l 1xd14080
 484 630 l 1xd18080
 484 602 l 1
 456 602 l 1
 456 630 l 1xe18080
 482 630 l 1
 482 658 l 1xe94080
 508 658 l 1
 508 686 l 1xd52080
 534 686 l 1
 534 714 l 1xcb1080
 560 714 l 1xc51080
 560 742 l 1
 588 742 l 1xc31080
 588 714 l 1xc51080
 614 714 l 1
 614 686 l 1xcb1880
 640 686 l 1
 640 658 l 1xd50480
 666 658 l 1xc90280
EndSplineSet
EndChar

